  0
SECTION
  2
HEADER
  9
$ACADVER
  1
AC1009
  9
$INSBASE
 10
0.0
 20
0.0
 30
0.0
  9
$EXTMIN
 10
0.0
 20
0.0
 30
0.0
  9
$EXTMAX
 10
100.0
 20
100.0
 30
0.0
  9
$UNITMODE
 70
0
  9
$AUNITS
 70
0
  9
$ANGBASE
 50
0.0
  9
$ANGDIR
 70
0
  0
ENDSEC
  0
SECTION
  2
TABLES
  0
TABLE
  2
LTYPE
 70
19
  0
LTYPE
  2
CONTINUOUS
 70
0
  3
Solid
 72
65
 73
0
 40
0.0
  0
LTYPE
  2
CENTER
 70
0
  3
Center ____ _ ____ _ ____ _ ____ _ ____ _ ____
 72
65
 73
4
 40
2.0
 49
1.25
 49
-0.25
 49
0.25
 49
-0.25
  0
LTYPE
  2
CENTERX2
 70
0
  3
Center (2x) ________  __  ________  __  ________
 72
65
 73
4
 40
3.5
 49
2.5
 49
-0.25
 49
0.5
 49
-0.25
  0
LTYPE
  2
CENTER2
 70
0
  3
Center (.5x) ____ _ ____ _ ____ _ ____ _ ____
 72
65
 73
4
 40
1.0
 49
0.625
 49
-0.125
 49
0.125
 49
-0.125
  0
LTYPE
  2
DASHED
 70
0
  3
Dashed __ __ __ __ __ __ __ __ __ __ __ __ __ _
 72
65
 73
2
 40
0.6
 49
0.5
 49
-0.1
  0
LTYPE
  2
DASHEDX2
 70
0
  3
Dashed (2x) ____  ____  ____  ____  ____  ____
 72
65
 73
2
 40
1.2
 49
1.0
 49
-0.2
  0
LTYPE
  2
DASHED2
 70
0
  3
Dashed (.5x) _ _ _ _ _ _ _ _ _ _ _ _ _ _
 72
65
 73
2
 40
0.3
 49
0.25
 49
-0.05
  0
LTYPE
  2
PHANTOM
 70
0
  3
Phantom ______  __  __  ______  __  __  ______
 72
65
 73
6
 40
2.5
 49
1.25
 49
-0.25
 49
0.25
 49
-0.25
 49
0.25
 49
-0.25
  0
LTYPE
  2
PHANTOMX2
 70
0
  3
Phantom (2x)____________    ____    ____    ____________
 72
65
 73
6
 40
4.25
 49
2.5
 49
-0.25
 49
0.5
 49
-0.25
 49
0.5
 49
-0.25
  0
LTYPE
  2
PHANTOM2
 70
0
  3
Phantom (.5x) ___ _ _ ___ _ _ ___ _ _ ___ _ _ ___
 72
65
 73
6
 40
1.25
 49
0.625
 49
-0.125
 49
0.125
 49
-0.125
 49
0.125
 49
-0.125
  0
LTYPE
  2
DASHDOT
 70
0
  3
Dash dot __ . __ . __ . __ . __ . __ . __ . __
 72
65
 73
4
 40
1.4
 49
1.0
 49
-0.2
 49
0.0
 49
-0.2
  0
LTYPE
  2
DASHDOTX2
 70
0
  3
Dash dot (2x) ____  .  ____  .  ____  .  ____
 72
65
 73
4
 40
2.4
 49
2.0
 49
-0.2
 49
0.0
 49
-0.2
  0
LTYPE
  2
DASHDOT2
 70
0
  3
Dash dot (.5x) _ . _ . _ . _ . _ . _ . _ . _
 72
65
 73
4
 40
0.7
 49
0.5
 49
-0.1
 49
0.0
 49
-0.1
  0
LTYPE
  2
DOT
 70
0
  3
Dot .  .  .  .  .  .  .  .  .  .  .  .  .  .  .  .
 72
65
 73
2
 40
0.2
 49
0.0
 49
-0.2
  0
LTYPE
  2
DOTX2
 70
0
  3
Dot (2x) .    .    .    .    .    .    .    . 
 72
65
 73
2
 40
0.4
 49
0.0
 49
-0.4
  0
LTYPE
  2
DOT2
 70
0
  3
Dot (.5) . . . . . . . . . . . . . . . . . . . 
 72
65
 73
2
 40
0.1
 49
0.0
 49
-0.1
  0
LTYPE
  2
DIVIDE
 70
0
  3
Divide __ . . __ . . __ . . __ . . __ . . __
 72
65
 73
6
 40
1.6
 49
1.0
 49
-0.2
 49
0.0
 49
-0.2
 49
0.0
 49
-0.2
  0
LTYPE
  2
DIVIDEX2
 70
0
  3
Divide (2x) ____  . .  ____  . .  ____  . .  ____
 72
65
 73
6
 40
2.6
 49
2.0
 49
-0.2
 49
0.0
 49
-0.2
 49
0.0
 49
-0.2
  0
LTYPE
  2
DIVIDE2
 70
0
  3
Divide(.5x) _ . _ . _ . _ . _ . _ . _ . _
 72
65
 73
6
 40
0.8
 49
0.5
 49
-0.1
 49
0.0
 49
-0.1
 49
0.0
 49
-0.1
  0
ENDTAB
  0
TABLE
  2
LAYER
 70
5
  0
LAYER
  2
DIMENSIONS
 70
0
 62
1
  6
CONTINUOUS
  0
LAYER
  2
TABLEBACKGROUND
 70
0
 62
1
  6
CONTINUOUS
  0
LAYER
  2
TABLECONTENT
 70
0
 62
1
  6
CONTINUOUS
  0
LAYER
  2
TABLEGRID
 70
0
 62
1
  6
CONTINUOUS
  0
LAYER
  2
VIEWPORTS
 70
0
 62
7
  6
CONTINUOUS
  0
ENDTAB
  0
TABLE
  2
STYLE
 70
12
  0
STYLE
  2
STANDARD
 70
0
 40
0.0
 41
1.0
 42
1.0
 50
0.0
 71
0
  3
arial.ttf
  4

  0
STYLE
  2
ARIAL
 70
0
 40
0.0
 41
1.0
 42
1.0
 50
0.0
 71
0
  3
arial.ttf
  4

  0
STYLE
  2
ARIAL_BOLD
 70
0
 40
0.0
 41
1.0
 42
1.0
 50
0.0
 71
0
  3
arialbd.ttf
  4

  0
STYLE
  2
ARIAL_ITALIC
 70
0
 40
0.0
 41
1.0
 42
1.0
 50
0.0
 71
0
  3
ariali.ttf
  4

  0
STYLE
  2
ARIAL_BOLD_ITALIC
 70
0
 40
0.0
 41
1.0
 42
1.0
 50
0.0
 71
0
  3
arialbi.ttf
  4

  0
STYLE
  2
ARIAL_BLACK
 70
0
 40
0.0
 41
1.0
 42
1.0
 50
0.0
 71
0
  3
ariblk.ttf
  4

  0
STYLE
  2
ISOCPEUR
 70
0
 40
0.0
 41
1.0
 42
1.0
 50
0.0
 71
0
  3
isocpeur.ttf
  4

  0
STYLE
  2
ISOCPEUR_ITALIC
 70
0
 40
0.0
 41
1.0
 42
1.0
 50
0.0
 71
0
  3
isocpeui.ttf
  4

  0
STYLE
  2
TIMES
 70
0
 40
0.0
 41
1.0
 42
1.0
 50
0.0
 71
0
  3
times.ttf
  4

  0
STYLE
  2
TIMES_BOLD
 70
0
 40
0.0
 41
1.0
 42
1.0
 50
0.0
 71
0
  3
timesbd.ttf
  4

  0
STYLE
  2
TIMES_ITALIC
 70
0
 40
0.0
 41
1.0
 42
1.0
 50
0.0
 71
0
  3
timesi.ttf
  4

  0
STYLE
  2
TIMES_BOLD_ITALIC
 70
0
 40
0.0
 41
1.0
 42
1.0
 50
0.0
 71
0
  3
timesbi.ttf
  4

  0
ENDTAB
  0
TABLE
  2
VIEW
 70
0
  0
ENDTAB
  0
TABLE
  2
APPID
 70
1
  0
APPID
  2
DXFWRITE
 70
0
  0
ENDTAB
  0
TABLE
  2
VPORT
 70
0
  0
ENDTAB
  0
TABLE
  2
UCS
 70
0
  0
ENDTAB
  0
ENDSEC
  0
SECTION
  2
BLOCKS
  0
ENDSEC
  0
SECTION
  2
ENTITIES
  0
VIEWPORT
  8
VIEWPORTS
 67
1
 10
0.0
 20
0.0
 30
0.0
 40
1.0
 41
1.0
 68
1
 69
1
1001
ACAD
1000
MVIEW
1002
{
1070
16
1010
0.0
1020
0.0
1030
0.0
1010
0.0
1020
0.0
1030
0.0
1040
0.0
1040
1.0
1040
0.0
1040
0.0
1040
50.0
1040
0.0
1040
0.0
1070
0
1070
100
1070
1
1070
3
1070
0
1070
0
1070
0
1070
0
1040
0.0
1040
0.0
1040
0.0
1040
0.1
1040
0.1
1040
0.1
1040
0.1
1070
0
1002
{
1002
}
1002
}
  0
POLYLINE
 62
256
  8
0
 66
1
 10
0.0
 20
0.0
 30
0.0
 70
9
  0
VERTEX
  8
0
 10
0.0
 20
0.0
 30
0.0
  0
VERTEX
  8
0
 10
8.5
 20
0.0
 30
0.0
  0
VERTEX
  8
0
 10
8.5
 20
2.0
 30
0.0
  0
VERTEX
  8
0
 10
0.0
 20
2.0
 30
0.0
  0
SEQEND
  0
CIRCLE
  8
0
 10
7.5
 20
1.0
 30
0.0
 40
0.5
  0
TEXT
  8
0
 10
0.5
 20
0.5
 30
0.0
 40
1.0
  1
FIN-710
  0
POLYLINE
 62
256
  8
0
 66
1
 10
0.0
 20
0.0
 30
0.0
 70
9
  0
VERTEX
  8
0
 10
8.6
 20
0.0
 30
0.0
  0
VERTEX
  8
0
 10
17.1
 20
0.0
 30
0.0
  0
VERTEX
  8
0
 10
17.1
 20
2.0
 30
0.0
  0
VERTEX
  8
0
 10
8.6
 20
2.0
 30
0.0
  0
SEQEND
  0
CIRCLE
  8
0
 10
16.1
 20
1.0
 30
0.0
 40
0.5
  0
TEXT
  8
0
 10
9.1
 20
0.5
 30
0.0
 40
1.0
  1
FIN-711
  0
POLYLINE
 62
256
  8
0
 66
1
 10
0.0
 20
0.0
 30
0.0
 70
9
  0
VERTEX
  8
0
 10
17.200000000000003
 20
0.0
 30
0.0
  0
VERTEX
  8
0
 10
25.700000000000003
 20
0.0
 30
0.0
  0
VERTEX
  8
0
 10
25.700000000000003
 20
2.0
 30
0.0
  0
VERTEX
  8
0
 10
17.200000000000003
 20
2.0
 30
0.0
  0
SEQEND
  0
CIRCLE
  8
0
 10
24.700000000000003
 20
1.0
 30
0.0
 40
0.5
  0
TEXT
  8
0
 10
17.700000000000003
 20
0.5
 30
0.0
 40
1.0
  1
FIN-712
  0
POLYLINE
 62
256
  8
0
 66
1
 10
0.0
 20
0.0
 30
0.0
 70
9
  0
VERTEX
  8
0
 10
25.800000000000004
 20
0.0
 30
0.0
  0
VERTEX
  8
0
 10
34.300000000000004
 20
0.0
 30
0.0
  0
VERTEX
  8
0
 10
34.300000000000004
 20
2.0
 30
0.0
  0
VERTEX
  8
0
 10
25.800000000000004
 20
2.0
 30
0.0
  0
SEQEND
  0
CIRCLE
  8
0
 10
33.300000000000004
 20
1.0
 30
0.0
 40
0.5
  0
TEXT
  8
0
 10
26.300000000000004
 20
0.5
 30
0.0
 40
1.0
  1
FIN-713
  0
POLYLINE
 62
256
  8
0
 66
1
 10
0.0
 20
0.0
 30
0.0
 70
9
  0
VERTEX
  8
0
 10
34.400000000000006
 20
0.0
 30
0.0
  0
VERTEX
  8
0
 10
42.900000000000006
 20
0.0
 30
0.0
  0
VERTEX
  8
0
 10
42.900000000000006
 20
2.0
 30
0.0
  0
VERTEX
  8
0
 10
34.400000000000006
 20
2.0
 30
0.0
  0
SEQEND
  0
CIRCLE
  8
0
 10
41.900000000000006
 20
1.0
 30
0.0
 40
0.5
  0
TEXT
  8
0
 10
34.900000000000006
 20
0.5
 30
0.0
 40
1.0
  1
FIN-714
  0
POLYLINE
 62
256
  8
0
 66
1
 10
0.0
 20
0.0
 30
0.0
 70
9
  0
VERTEX
  8
0
 10
43.00000000000001
 20
0.0
 30
0.0
  0
VERTEX
  8
0
 10
51.50000000000001
 20
0.0
 30
0.0
  0
VERTEX
  8
0
 10
51.50000000000001
 20
2.0
 30
0.0
  0
VERTEX
  8
0
 10
43.00000000000001
 20
2.0
 30
0.0
  0
SEQEND
  0
CIRCLE
  8
0
 10
50.50000000000001
 20
1.0
 30
0.0
 40
0.5
  0
TEXT
  8
0
 10
43.50000000000001
 20
0.5
 30
0.0
 40
1.0
  1
FIN-715
  0
POLYLINE
 62
256
  8
0
 66
1
 10
0.0
 20
0.0
 30
0.0
 70
9
  0
VERTEX
  8
0
 10
51.60000000000001
 20
0.0
 30
0.0
  0
VERTEX
  8
0
 10
60.10000000000001
 20
0.0
 30
0.0
  0
VERTEX
  8
0
 10
60.10000000000001
 20
2.0
 30
0.0
  0
VERTEX
  8
0
 10
51.60000000000001
 20
2.0
 30
0.0
  0
SEQEND
  0
CIRCLE
  8
0
 10
59.10000000000001
 20
1.0
 30
0.0
 40
0.5
  0
TEXT
  8
0
 10
52.10000000000001
 20
0.5
 30
0.0
 40
1.0
  1
FIN-716
  0
POLYLINE
 62
256
  8
0
 66
1
 10
0.0
 20
0.0
 30
0.0
 70
9
  0
VERTEX
  8
0
 10
60.20000000000001
 20
0.0
 30
0.0
  0
VERTEX
  8
0
 10
68.70000000000002
 20
0.0
 30
0.0
  0
VERTEX
  8
0
 10
68.70000000000002
 20
2.0
 30
0.0
  0
VERTEX
  8
0
 10
60.20000000000001
 20
2.0
 30
0.0
  0
SEQEND
  0
CIRCLE
  8
0
 10
67.70000000000002
 20
1.0
 30
0.0
 40
0.5
  0
TEXT
  8
0
 10
60.70000000000001
 20
0.5
 30
0.0
 40
1.0
  1
FIN-717
  0
POLYLINE
 62
256
  8
0
 66
1
 10
0.0
 20
0.0
 30
0.0
 70
9
  0
VERTEX
  8
0
 10
68.80000000000001
 20
0.0
 30
0.0
  0
VERTEX
  8
0
 10
77.30000000000001
 20
0.0
 30
0.0
  0
VERTEX
  8
0
 10
77.30000000000001
 20
2.0
 30
0.0
  0
VERTEX
  8
0
 10
68.80000000000001
 20
2.0
 30
0.0
  0
SEQEND
  0
CIRCLE
  8
0
 10
76.30000000000001
 20
1.0
 30
0.0
 40
0.5
  0
TEXT
  8
0
 10
69.30000000000001
 20
0.5
 30
0.0
 40
1.0
  1
FIN-718
  0
POLYLINE
 62
256
  8
0
 66
1
 10
0.0
 20
0.0
 30
0.0
 70
9
  0
VERTEX
  8
0
 10
77.4
 20
0.0
 30
0.0
  0
VERTEX
  8
0
 10
85.9
 20
0.0
 30
0.0
  0
VERTEX
  8
0
 10
85.9
 20
2.0
 30
0.0
  0
VERTEX
  8
0
 10
77.4
 20
2.0
 30
0.0
  0
SEQEND
  0
CIRCLE
  8
0
 10
84.9
 20
1.0
 30
0.0
 40
0.5
  0
TEXT
  8
0
 10
77.9
 20
0.5
 30
0.0
 40
1.0
  1
FIN-719
  0
POLYLINE
 62
256
  8
0
 66
1
 10
0.0
 20
0.0
 30
0.0
 70
9
  0
VERTEX
  8
0
 10
86.0
 20
0.0
 30
0.0
  0
VERTEX
  8
0
 10
94.5
 20
0.0
 30
0.0
  0
VERTEX
  8
0
 10
94.5
 20
2.0
 30
0.0
  0
VERTEX
  8
0
 10
86.0
 20
2.0
 30
0.0
  0
SEQEND
  0
CIRCLE
  8
0
 10
93.5
 20
1.0
 30
0.0
 40
0.5
  0
TEXT
  8
0
 10
86.5
 20
0.5
 30
0.0
 40
1.0
  1
FIN-72
  0
POLYLINE
 62
256
  8
0
 66
1
 10
0.0
 20
0.0
 30
0.0
 70
9
  0
VERTEX
  8
0
 10
0.0
 20
-2.1
 30
0.0
  0
VERTEX
  8
0
 10
8.5
 20
-2.1
 30
0.0
  0
VERTEX
  8
0
 10
8.5
 20
-0.10000000000000009
 30
0.0
  0
VERTEX
  8
0
 10
0.0
 20
-0.10000000000000009
 30
0.0
  0
SEQEND
  0
CIRCLE
  8
0
 10
7.5
 20
-1.1
 30
0.0
 40
0.5
  0
TEXT
  8
0
 10
0.5
 20
-1.6
 30
0.0
 40
1.0
  1
FIN-720
  0
POLYLINE
 62
256
  8
0
 66
1
 10
0.0
 20
0.0
 30
0.0
 70
9
  0
VERTEX
  8
0
 10
8.6
 20
-2.1
 30
0.0
  0
VERTEX
  8
0
 10
17.1
 20
-2.1
 30
0.0
  0
VERTEX
  8
0
 10
17.1
 20
-0.10000000000000009
 30
0.0
  0
VERTEX
  8
0
 10
8.6
 20
-0.10000000000000009
 30
0.0
  0
SEQEND
  0
CIRCLE
  8
0
 10
16.1
 20
-1.1
 30
0.0
 40
0.5
  0
TEXT
  8
0
 10
9.1
 20
-1.6
 30
0.0
 40
1.0
  1
FIN-721
  0
POLYLINE
 62
256
  8
0
 66
1
 10
0.0
 20
0.0
 30
0.0
 70
9
  0
VERTEX
  8
0
 10
17.200000000000003
 20
-2.1
 30
0.0
  0
VERTEX
  8
0
 10
25.700000000000003
 20
-2.1
 30
0.0
  0
VERTEX
  8
0
 10
25.700000000000003
 20
-0.10000000000000009
 30
0.0
  0
VERTEX
  8
0
 10
17.200000000000003
 20
-0.10000000000000009
 30
0.0
  0
SEQEND
  0
CIRCLE
  8
0
 10
24.700000000000003
 20
-1.1
 30
0.0
 40
0.5
  0
TEXT
  8
0
 10
17.700000000000003
 20
-1.6
 30
0.0
 40
1.0
  1
FIN-722
  0
POLYLINE
 62
256
  8
0
 66
1
 10
0.0
 20
0.0
 30
0.0
 70
9
  0
VERTEX
  8
0
 10
25.800000000000004
 20
-2.1
 30
0.0
  0
VERTEX
  8
0
 10
34.300000000000004
 20
-2.1
 30
0.0
  0
VERTEX
  8
0
 10
34.300000000000004
 20
-0.10000000000000009
 30
0.0
  0
VERTEX
  8
0
 10
25.800000000000004
 20
-0.10000000000000009
 30
0.0
  0
SEQEND
  0
CIRCLE
  8
0
 10
33.300000000000004
 20
-1.1
 30
0.0
 40
0.5
  0
TEXT
  8
0
 10
26.300000000000004
 20
-1.6
 30
0.0
 40
1.0
  1
FIN-723
  0
POLYLINE
 62
256
  8
0
 66
1
 10
0.0
 20
0.0
 30
0.0
 70
9
  0
VERTEX
  8
0
 10
34.400000000000006
 20
-2.1
 30
0.0
  0
VERTEX
  8
0
 10
42.900000000000006
 20
-2.1
 30
0.0
  0
VERTEX
  8
0
 10
42.900000000000006
 20
-0.10000000000000009
 30
0.0
  0
VERTEX
  8
0
 10
34.400000000000006
 20
-0.10000000000000009
 30
0.0
  0
SEQEND
  0
CIRCLE
  8
0
 10
41.900000000000006
 20
-1.1
 30
0.0
 40
0.5
  0
TEXT
  8
0
 10
34.900000000000006
 20
-1.6
 30
0.0
 40
1.0
  1
FIN-724
  0
POLYLINE
 62
256
  8
0
 66
1
 10
0.0
 20
0.0
 30
0.0
 70
9
  0
VERTEX
  8
0
 10
43.00000000000001
 20
-2.1
 30
0.0
  0
VERTEX
  8
0
 10
51.50000000000001
 20
-2.1
 30
0.0
  0
VERTEX
  8
0
 10
51.50000000000001
 20
-0.10000000000000009
 30
0.0
  0
VERTEX
  8
0
 10
43.00000000000001
 20
-0.10000000000000009
 30
0.0
  0
SEQEND
  0
CIRCLE
  8
0
 10
50.50000000000001
 20
-1.1
 30
0.0
 40
0.5
  0
TEXT
  8
0
 10
43.50000000000001
 20
-1.6
 30
0.0
 40
1.0
  1
FIN-725
  0
POLYLINE
 62
256
  8
0
 66
1
 10
0.0
 20
0.0
 30
0.0
 70
9
  0
VERTEX
  8
0
 10
51.60000000000001
 20
-2.1
 30
0.0
  0
VERTEX
  8
0
 10
60.10000000000001
 20
-2.1
 30
0.0
  0
VERTEX
  8
0
 10
60.10000000000001
 20
-0.10000000000000009
 30
0.0
  0
VERTEX
  8
0
 10
51.60000000000001
 20
-0.10000000000000009
 30
0.0
  0
SEQEND
  0
CIRCLE
  8
0
 10
59.10000000000001
 20
-1.1
 30
0.0
 40
0.5
  0
TEXT
  8
0
 10
52.10000000000001
 20
-1.6
 30
0.0
 40
1.0
  1
FIN-726
  0
POLYLINE
 62
256
  8
0
 66
1
 10
0.0
 20
0.0
 30
0.0
 70
9
  0
VERTEX
  8
0
 10
60.20000000000001
 20
-2.1
 30
0.0
  0
VERTEX
  8
0
 10
68.70000000000002
 20
-2.1
 30
0.0
  0
VERTEX
  8
0
 10
68.70000000000002
 20
-0.10000000000000009
 30
0.0
  0
VERTEX
  8
0
 10
60.20000000000001
 20
-0.10000000000000009
 30
0.0
  0
SEQEND
  0
CIRCLE
  8
0
 10
67.70000000000002
 20
-1.1
 30
0.0
 40
0.5
  0
TEXT
  8
0
 10
60.70000000000001
 20
-1.6
 30
0.0
 40
1.0
  1
FIN-727
  0
POLYLINE
 62
256
  8
0
 66
1
 10
0.0
 20
0.0
 30
0.0
 70
9
  0
VERTEX
  8
0
 10
68.80000000000001
 20
-2.1
 30
0.0
  0
VERTEX
  8
0
 10
77.30000000000001
 20
-2.1
 30
0.0
  0
VERTEX
  8
0
 10
77.30000000000001
 20
-0.10000000000000009
 30
0.0
  0
VERTEX
  8
0
 10
68.80000000000001
 20
-0.10000000000000009
 30
0.0
  0
SEQEND
  0
CIRCLE
  8
0
 10
76.30000000000001
 20
-1.1
 30
0.0
 40
0.5
  0
TEXT
  8
0
 10
69.30000000000001
 20
-1.6
 30
0.0
 40
1.0
  1
FIN-728
  0
POLYLINE
 62
256
  8
0
 66
1
 10
0.0
 20
0.0
 30
0.0
 70
9
  0
VERTEX
  8
0
 10
77.4
 20
-2.1
 30
0.0
  0
VERTEX
  8
0
 10
85.9
 20
-2.1
 30
0.0
  0
VERTEX
  8
0
 10
85.9
 20
-0.10000000000000009
 30
0.0
  0
VERTEX
  8
0
 10
77.4
 20
-0.10000000000000009
 30
0.0
  0
SEQEND
  0
CIRCLE
  8
0
 10
84.9
 20
-1.1
 30
0.0
 40
0.5
  0
TEXT
  8
0
 10
77.9
 20
-1.6
 30
0.0
 40
1.0
  1
FIN-729
  0
POLYLINE
 62
256
  8
0
 66
1
 10
0.0
 20
0.0
 30
0.0
 70
9
  0
VERTEX
  8
0
 10
86.0
 20
-2.1
 30
0.0
  0
VERTEX
  8
0
 10
94.5
 20
-2.1
 30
0.0
  0
VERTEX
  8
0
 10
94.5
 20
-0.10000000000000009
 30
0.0
  0
VERTEX
  8
0
 10
86.0
 20
-0.10000000000000009
 30
0.0
  0
SEQEND
  0
CIRCLE
  8
0
 10
93.5
 20
-1.1
 30
0.0
 40
0.5
  0
TEXT
  8
0
 10
86.5
 20
-1.6
 30
0.0
 40
1.0
  1
FIN-73
  0
POLYLINE
 62
256
  8
0
 66
1
 10
0.0
 20
0.0
 30
0.0
 70
9
  0
VERTEX
  8
0
 10
0.0
 20
-4.199999999999999
 30
0.0
  0
VERTEX
  8
0
 10
8.5
 20
-4.199999999999999
 30
0.0
  0
VERTEX
  8
0
 10
8.5
 20
-2.1999999999999993
 30
0.0
  0
VERTEX
  8
0
 10
0.0
 20
-2.1999999999999993
 30
0.0
  0
SEQEND
  0
CIRCLE
  8
0
 10
7.5
 20
-3.1999999999999993
 30
0.0
 40
0.5
  0
TEXT
  8
0
 10
0.5
 20
-3.6999999999999993
 30
0.0
 40
1.0
  1
FIN-730
  0
POLYLINE
 62
256
  8
0
 66
1
 10
0.0
 20
0.0
 30
0.0
 70
9
  0
VERTEX
  8
0
 10
8.6
 20
-4.199999999999999
 30
0.0
  0
VERTEX
  8
0
 10
17.1
 20
-4.199999999999999
 30
0.0
  0
VERTEX
  8
0
 10
17.1
 20
-2.1999999999999993
 30
0.0
  0
VERTEX
  8
0
 10
8.6
 20
-2.1999999999999993
 30
0.0
  0
SEQEND
  0
CIRCLE
  8
0
 10
16.1
 20
-3.1999999999999993
 30
0.0
 40
0.5
  0
TEXT
  8
0
 10
9.1
 20
-3.6999999999999993
 30
0.0
 40
1.0
  1
FIN-731
  0
POLYLINE
 62
256
  8
0
 66
1
 10
0.0
 20
0.0
 30
0.0
 70
9
  0
VERTEX
  8
0
 10
17.200000000000003
 20
-4.199999999999999
 30
0.0
  0
VERTEX
  8
0
 10
25.700000000000003
 20
-4.199999999999999
 30
0.0
  0
VERTEX
  8
0
 10
25.700000000000003
 20
-2.1999999999999993
 30
0.0
  0
VERTEX
  8
0
 10
17.200000000000003
 20
-2.1999999999999993
 30
0.0
  0
SEQEND
  0
CIRCLE
  8
0
 10
24.700000000000003
 20
-3.1999999999999993
 30
0.0
 40
0.5
  0
TEXT
  8
0
 10
17.700000000000003
 20
-3.6999999999999993
 30
0.0
 40
1.0
  1
FIN-732
  0
POLYLINE
 62
256
  8
0
 66
1
 10
0.0
 20
0.0
 30
0.0
 70
9
  0
VERTEX
  8
0
 10
25.800000000000004
 20
-4.199999999999999
 30
0.0
  0
VERTEX
  8
0
 10
34.300000000000004
 20
-4.199999999999999
 30
0.0
  0
VERTEX
  8
0
 10
34.300000000000004
 20
-2.1999999999999993
 30
0.0
  0
VERTEX
  8
0
 10
25.800000000000004
 20
-2.1999999999999993
 30
0.0
  0
SEQEND
  0
CIRCLE
  8
0
 10
33.300000000000004
 20
-3.1999999999999993
 30
0.0
 40
0.5
  0
TEXT
  8
0
 10
26.300000000000004
 20
-3.6999999999999993
 30
0.0
 40
1.0
  1
FIN-733
  0
POLYLINE
 62
256
  8
0
 66
1
 10
0.0
 20
0.0
 30
0.0
 70
9
  0
VERTEX
  8
0
 10
34.400000000000006
 20
-4.199999999999999
 30
0.0
  0
VERTEX
  8
0
 10
42.900000000000006
 20
-4.199999999999999
 30
0.0
  0
VERTEX
  8
0
 10
42.900000000000006
 20
-2.1999999999999993
 30
0.0
  0
VERTEX
  8
0
 10
34.400000000000006
 20
-2.1999999999999993
 30
0.0
  0
SEQEND
  0
CIRCLE
  8
0
 10
41.900000000000006
 20
-3.1999999999999993
 30
0.0
 40
0.5
  0
TEXT
  8
0
 10
34.900000000000006
 20
-3.6999999999999993
 30
0.0
 40
1.0
  1
FIN-734
  0
POLYLINE
 62
256
  8
0
 66
1
 10
0.0
 20
0.0
 30
0.0
 70
9
  0
VERTEX
  8
0
 10
43.00000000000001
 20
-4.199999999999999
 30
0.0
  0
VERTEX
  8
0
 10
51.50000000000001
 20
-4.199999999999999
 30
0.0
  0
VERTEX
  8
0
 10
51.50000000000001
 20
-2.1999999999999993
 30
0.0
  0
VERTEX
  8
0
 10
43.00000000000001
 20
-2.1999999999999993
 30
0.0
  0
SEQEND
  0
CIRCLE
  8
0
 10
50.50000000000001
 20
-3.1999999999999993
 30
0.0
 40
0.5
  0
TEXT
  8
0
 10
43.50000000000001
 20
-3.6999999999999993
 30
0.0
 40
1.0
  1
FIN-735
  0
POLYLINE
 62
256
  8
0
 66
1
 10
0.0
 20
0.0
 30
0.0
 70
9
  0
VERTEX
  8
0
 10
51.60000000000001
 20
-4.199999999999999
 30
0.0
  0
VERTEX
  8
0
 10
60.10000000000001
 20
-4.199999999999999
 30
0.0
  0
VERTEX
  8
0
 10
60.10000000000001
 20
-2.1999999999999993
 30
0.0
  0
VERTEX
  8
0
 10
51.60000000000001
 20
-2.1999999999999993
 30
0.0
  0
SEQEND
  0
CIRCLE
  8
0
 10
59.10000000000001
 20
-3.1999999999999993
 30
0.0
 40
0.5
  0
TEXT
  8
0
 10
52.10000000000001
 20
-3.6999999999999993
 30
0.0
 40
1.0
  1
FIN-736
  0
POLYLINE
 62
256
  8
0
 66
1
 10
0.0
 20
0.0
 30
0.0
 70
9
  0
VERTEX
  8
0
 10
60.20000000000001
 20
-4.199999999999999
 30
0.0
  0
VERTEX
  8
0
 10
68.70000000000002
 20
-4.199999999999999
 30
0.0
  0
VERTEX
  8
0
 10
68.70000000000002
 20
-2.1999999999999993
 30
0.0
  0
VERTEX
  8
0
 10
60.20000000000001
 20
-2.1999999999999993
 30
0.0
  0
SEQEND
  0
CIRCLE
  8
0
 10
67.70000000000002
 20
-3.1999999999999993
 30
0.0
 40
0.5
  0
TEXT
  8
0
 10
60.70000000000001
 20
-3.6999999999999993
 30
0.0
 40
1.0
  1
FIN-737
  0
POLYLINE
 62
256
  8
0
 66
1
 10
0.0
 20
0.0
 30
0.0
 70
9
  0
VERTEX
  8
0
 10
68.80000000000001
 20
-4.199999999999999
 30
0.0
  0
VERTEX
  8
0
 10
77.30000000000001
 20
-4.199999999999999
 30
0.0
  0
VERTEX
  8
0
 10
77.30000000000001
 20
-2.1999999999999993
 30
0.0
  0
VERTEX
  8
0
 10
68.80000000000001
 20
-2.1999999999999993
 30
0.0
  0
SEQEND
  0
CIRCLE
  8
0
 10
76.30000000000001
 20
-3.1999999999999993
 30
0.0
 40
0.5
  0
TEXT
  8
0
 10
69.30000000000001
 20
-3.6999999999999993
 30
0.0
 40
1.0
  1
FIN-738
  0
POLYLINE
 62
256
  8
0
 66
1
 10
0.0
 20
0.0
 30
0.0
 70
9
  0
VERTEX
  8
0
 10
77.4
 20
-4.199999999999999
 30
0.0
  0
VERTEX
  8
0
 10
85.9
 20
-4.199999999999999
 30
0.0
  0
VERTEX
  8
0
 10
85.9
 20
-2.1999999999999993
 30
0.0
  0
VERTEX
  8
0
 10
77.4
 20
-2.1999999999999993
 30
0.0
  0
SEQEND
  0
CIRCLE
  8
0
 10
84.9
 20
-3.1999999999999993
 30
0.0
 40
0.5
  0
TEXT
  8
0
 10
77.9
 20
-3.6999999999999993
 30
0.0
 40
1.0
  1
FIN-739
  0
POLYLINE
 62
256
  8
0
 66
1
 10
0.0
 20
0.0
 30
0.0
 70
9
  0
VERTEX
  8
0
 10
86.0
 20
-4.199999999999999
 30
0.0
  0
VERTEX
  8
0
 10
94.5
 20
-4.199999999999999
 30
0.0
  0
VERTEX
  8
0
 10
94.5
 20
-2.1999999999999993
 30
0.0
  0
VERTEX
  8
0
 10
86.0
 20
-2.1999999999999993
 30
0.0
  0
SEQEND
  0
CIRCLE
  8
0
 10
93.5
 20
-3.1999999999999993
 30
0.0
 40
0.5
  0
TEXT
  8
0
 10
86.5
 20
-3.6999999999999993
 30
0.0
 40
1.0
  1
FIN-74
  0
POLYLINE
 62
256
  8
0
 66
1
 10
0.0
 20
0.0
 30
0.0
 70
9
  0
VERTEX
  8
0
 10
0.0
 20
-6.299999999999999
 30
0.0
  0
VERTEX
  8
0
 10
8.5
 20
-6.299999999999999
 30
0.0
  0
VERTEX
  8
0
 10
8.5
 20
-4.299999999999999
 30
0.0
  0
VERTEX
  8
0
 10
0.0
 20
-4.299999999999999
 30
0.0
  0
SEQEND
  0
CIRCLE
  8
0
 10
7.5
 20
-5.299999999999999
 30
0.0
 40
0.5
  0
TEXT
  8
0
 10
0.5
 20
-5.799999999999999
 30
0.0
 40
1.0
  1
FIN-740
  0
POLYLINE
 62
256
  8
0
 66
1
 10
0.0
 20
0.0
 30
0.0
 70
9
  0
VERTEX
  8
0
 10
8.6
 20
-6.299999999999999
 30
0.0
  0
VERTEX
  8
0
 10
17.1
 20
-6.299999999999999
 30
0.0
  0
VERTEX
  8
0
 10
17.1
 20
-4.299999999999999
 30
0.0
  0
VERTEX
  8
0
 10
8.6
 20
-4.299999999999999
 30
0.0
  0
SEQEND
  0
CIRCLE
  8
0
 10
16.1
 20
-5.299999999999999
 30
0.0
 40
0.5
  0
TEXT
  8
0
 10
9.1
 20
-5.799999999999999
 30
0.0
 40
1.0
  1
FIN-741
  0
POLYLINE
 62
256
  8
0
 66
1
 10
0.0
 20
0.0
 30
0.0
 70
9
  0
VERTEX
  8
0
 10
17.200000000000003
 20
-6.299999999999999
 30
0.0
  0
VERTEX
  8
0
 10
25.700000000000003
 20
-6.299999999999999
 30
0.0
  0
VERTEX
  8
0
 10
25.700000000000003
 20
-4.299999999999999
 30
0.0
  0
VERTEX
  8
0
 10
17.200000000000003
 20
-4.299999999999999
 30
0.0
  0
SEQEND
  0
CIRCLE
  8
0
 10
24.700000000000003
 20
-5.299999999999999
 30
0.0
 40
0.5
  0
TEXT
  8
0
 10
17.700000000000003
 20
-5.799999999999999
 30
0.0
 40
1.0
  1
FIN-742
  0
POLYLINE
 62
256
  8
0
 66
1
 10
0.0
 20
0.0
 30
0.0
 70
9
  0
VERTEX
  8
0
 10
25.800000000000004
 20
-6.299999999999999
 30
0.0
  0
VERTEX
  8
0
 10
34.300000000000004
 20
-6.299999999999999
 30
0.0
  0
VERTEX
  8
0
 10
34.300000000000004
 20
-4.299999999999999
 30
0.0
  0
VERTEX
  8
0
 10
25.800000000000004
 20
-4.299999999999999
 30
0.0
  0
SEQEND
  0
CIRCLE
  8
0
 10
33.300000000000004
 20
-5.299999999999999
 30
0.0
 40
0.5
  0
TEXT
  8
0
 10
26.300000000000004
 20
-5.799999999999999
 30
0.0
 40
1.0
  1
FIN-743
  0
POLYLINE
 62
256
  8
0
 66
1
 10
0.0
 20
0.0
 30
0.0
 70
9
  0
VERTEX
  8
0
 10
34.400000000000006
 20
-6.299999999999999
 30
0.0
  0
VERTEX
  8
0
 10
42.900000000000006
 20
-6.299999999999999
 30
0.0
  0
VERTEX
  8
0
 10
42.900000000000006
 20
-4.299999999999999
 30
0.0
  0
VERTEX
  8
0
 10
34.400000000000006
 20
-4.299999999999999
 30
0.0
  0
SEQEND
  0
CIRCLE
  8
0
 10
41.900000000000006
 20
-5.299999999999999
 30
0.0
 40
0.5
  0
TEXT
  8
0
 10
34.900000000000006
 20
-5.799999999999999
 30
0.0
 40
1.0
  1
FIN-744
  0
POLYLINE
 62
256
  8
0
 66
1
 10
0.0
 20
0.0
 30
0.0
 70
9
  0
VERTEX
  8
0
 10
43.00000000000001
 20
-6.299999999999999
 30
0.0
  0
VERTEX
  8
0
 10
51.50000000000001
 20
-6.299999999999999
 30
0.0
  0
VERTEX
  8
0
 10
51.50000000000001
 20
-4.299999999999999
 30
0.0
  0
VERTEX
  8
0
 10
43.00000000000001
 20
-4.299999999999999
 30
0.0
  0
SEQEND
  0
CIRCLE
  8
0
 10
50.50000000000001
 20
-5.299999999999999
 30
0.0
 40
0.5
  0
TEXT
  8
0
 10
43.50000000000001
 20
-5.799999999999999
 30
0.0
 40
1.0
  1
FIN-745
  0
POLYLINE
 62
256
  8
0
 66
1
 10
0.0
 20
0.0
 30
0.0
 70
9
  0
VERTEX
  8
0
 10
51.60000000000001
 20
-6.299999999999999
 30
0.0
  0
VERTEX
  8
0
 10
60.10000000000001
 20
-6.299999999999999
 30
0.0
  0
VERTEX
  8
0
 10
60.10000000000001
 20
-4.299999999999999
 30
0.0
  0
VERTEX
  8
0
 10
51.60000000000001
 20
-4.299999999999999
 30
0.0
  0
SEQEND
  0
CIRCLE
  8
0
 10
59.10000000000001
 20
-5.299999999999999
 30
0.0
 40
0.5
  0
TEXT
  8
0
 10
52.10000000000001
 20
-5.799999999999999
 30
0.0
 40
1.0
  1
FIN-746
  0
POLYLINE
 62
256
  8
0
 66
1
 10
0.0
 20
0.0
 30
0.0
 70
9
  0
VERTEX
  8
0
 10
60.20000000000001
 20
-6.299999999999999
 30
0.0
  0
VERTEX
  8
0
 10
68.70000000000002
 20
-6.299999999999999
 30
0.0
  0
VERTEX
  8
0
 10
68.70000000000002
 20
-4.299999999999999
 30
0.0
  0
VERTEX
  8
0
 10
60.20000000000001
 20
-4.299999999999999
 30
0.0
  0
SEQEND
  0
CIRCLE
  8
0
 10
67.70000000000002
 20
-5.299999999999999
 30
0.0
 40
0.5
  0
TEXT
  8
0
 10
60.70000000000001
 20
-5.799999999999999
 30
0.0
 40
1.0
  1
FIN-747
  0
POLYLINE
 62
256
  8
0
 66
1
 10
0.0
 20
0.0
 30
0.0
 70
9
  0
VERTEX
  8
0
 10
68.80000000000001
 20
-6.299999999999999
 30
0.0
  0
VERTEX
  8
0
 10
77.30000000000001
 20
-6.299999999999999
 30
0.0
  0
VERTEX
  8
0
 10
77.30000000000001
 20
-4.299999999999999
 30
0.0
  0
VERTEX
  8
0
 10
68.80000000000001
 20
-4.299999999999999
 30
0.0
  0
SEQEND
  0
CIRCLE
  8
0
 10
76.30000000000001
 20
-5.299999999999999
 30
0.0
 40
0.5
  0
TEXT
  8
0
 10
69.30000000000001
 20
-5.799999999999999
 30
0.0
 40
1.0
  1
FIN-748
  0
POLYLINE
 62
256
  8
0
 66
1
 10
0.0
 20
0.0
 30
0.0
 70
9
  0
VERTEX
  8
0
 10
77.4
 20
-6.299999999999999
 30
0.0
  0
VERTEX
  8
0
 10
85.9
 20
-6.299999999999999
 30
0.0
  0
VERTEX
  8
0
 10
85.9
 20
-4.299999999999999
 30
0.0
  0
VERTEX
  8
0
 10
77.4
 20
-4.299999999999999
 30
0.0
  0
SEQEND
  0
CIRCLE
  8
0
 10
84.9
 20
-5.299999999999999
 30
0.0
 40
0.5
  0
TEXT
  8
0
 10
77.9
 20
-5.799999999999999
 30
0.0
 40
1.0
  1
FIN-749
  0
POLYLINE
 62
256
  8
0
 66
1
 10
0.0
 20
0.0
 30
0.0
 70
9
  0
VERTEX
  8
0
 10
86.0
 20
-6.299999999999999
 30
0.0
  0
VERTEX
  8
0
 10
94.5
 20
-6.299999999999999
 30
0.0
  0
VERTEX
  8
0
 10
94.5
 20
-4.299999999999999
 30
0.0
  0
VERTEX
  8
0
 10
86.0
 20
-4.299999999999999
 30
0.0
  0
SEQEND
  0
CIRCLE
  8
0
 10
93.5
 20
-5.299999999999999
 30
0.0
 40
0.5
  0
TEXT
  8
0
 10
86.5
 20
-5.799999999999999
 30
0.0
 40
1.0
  1
FIN-75
  0
POLYLINE
 62
256
  8
0
 66
1
 10
0.0
 20
0.0
 30
0.0
 70
9
  0
VERTEX
  8
0
 10
0.0
 20
-8.399999999999999
 30
0.0
  0
VERTEX
  8
0
 10
8.5
 20
-8.399999999999999
 30
0.0
  0
VERTEX
  8
0
 10
8.5
 20
-6.399999999999999
 30
0.0
  0
VERTEX
  8
0
 10
0.0
 20
-6.399999999999999
 30
0.0
  0
SEQEND
  0
CIRCLE
  8
0
 10
7.5
 20
-7.399999999999999
 30
0.0
 40
0.5
  0
TEXT
  8
0
 10
0.5
 20
-7.899999999999999
 30
0.0
 40
1.0
  1
FIN-750
  0
POLYLINE
 62
256
  8
0
 66
1
 10
0.0
 20
0.0
 30
0.0
 70
9
  0
VERTEX
  8
0
 10
8.6
 20
-8.399999999999999
 30
0.0
  0
VERTEX
  8
0
 10
17.1
 20
-8.399999999999999
 30
0.0
  0
VERTEX
  8
0
 10
17.1
 20
-6.399999999999999
 30
0.0
  0
VERTEX
  8
0
 10
8.6
 20
-6.399999999999999
 30
0.0
  0
SEQEND
  0
CIRCLE
  8
0
 10
16.1
 20
-7.399999999999999
 30
0.0
 40
0.5
  0
TEXT
  8
0
 10
9.1
 20
-7.899999999999999
 30
0.0
 40
1.0
  1
FIN-751
  0
POLYLINE
 62
256
  8
0
 66
1
 10
0.0
 20
0.0
 30
0.0
 70
9
  0
VERTEX
  8
0
 10
17.200000000000003
 20
-8.399999999999999
 30
0.0
  0
VERTEX
  8
0
 10
25.700000000000003
 20
-8.399999999999999
 30
0.0
  0
VERTEX
  8
0
 10
25.700000000000003
 20
-6.399999999999999
 30
0.0
  0
VERTEX
  8
0
 10
17.200000000000003
 20
-6.399999999999999
 30
0.0
  0
SEQEND
  0
CIRCLE
  8
0
 10
24.700000000000003
 20
-7.399999999999999
 30
0.0
 40
0.5
  0
TEXT
  8
0
 10
17.700000000000003
 20
-7.899999999999999
 30
0.0
 40
1.0
  1
FIN-752
  0
POLYLINE
 62
256
  8
0
 66
1
 10
0.0
 20
0.0
 30
0.0
 70
9
  0
VERTEX
  8
0
 10
25.800000000000004
 20
-8.399999999999999
 30
0.0
  0
VERTEX
  8
0
 10
34.300000000000004
 20
-8.399999999999999
 30
0.0
  0
VERTEX
  8
0
 10
34.300000000000004
 20
-6.399999999999999
 30
0.0
  0
VERTEX
  8
0
 10
25.800000000000004
 20
-6.399999999999999
 30
0.0
  0
SEQEND
  0
CIRCLE
  8
0
 10
33.300000000000004
 20
-7.399999999999999
 30
0.0
 40
0.5
  0
TEXT
  8
0
 10
26.300000000000004
 20
-7.899999999999999
 30
0.0
 40
1.0
  1
FIN-753
  0
POLYLINE
 62
256
  8
0
 66
1
 10
0.0
 20
0.0
 30
0.0
 70
9
  0
VERTEX
  8
0
 10
34.400000000000006
 20
-8.399999999999999
 30
0.0
  0
VERTEX
  8
0
 10
42.900000000000006
 20
-8.399999999999999
 30
0.0
  0
VERTEX
  8
0
 10
42.900000000000006
 20
-6.399999999999999
 30
0.0
  0
VERTEX
  8
0
 10
34.400000000000006
 20
-6.399999999999999
 30
0.0
  0
SEQEND
  0
CIRCLE
  8
0
 10
41.900000000000006
 20
-7.399999999999999
 30
0.0
 40
0.5
  0
TEXT
  8
0
 10
34.900000000000006
 20
-7.899999999999999
 30
0.0
 40
1.0
  1
FIN-754
  0
POLYLINE
 62
256
  8
0
 66
1
 10
0.0
 20
0.0
 30
0.0
 70
9
  0
VERTEX
  8
0
 10
43.00000000000001
 20
-8.399999999999999
 30
0.0
  0
VERTEX
  8
0
 10
51.50000000000001
 20
-8.399999999999999
 30
0.0
  0
VERTEX
  8
0
 10
51.50000000000001
 20
-6.399999999999999
 30
0.0
  0
VERTEX
  8
0
 10
43.00000000000001
 20
-6.399999999999999
 30
0.0
  0
SEQEND
  0
CIRCLE
  8
0
 10
50.50000000000001
 20
-7.399999999999999
 30
0.0
 40
0.5
  0
TEXT
  8
0
 10
43.50000000000001
 20
-7.899999999999999
 30
0.0
 40
1.0
  1
FIN-755
  0
POLYLINE
 62
256
  8
0
 66
1
 10
0.0
 20
0.0
 30
0.0
 70
9
  0
VERTEX
  8
0
 10
51.60000000000001
 20
-8.399999999999999
 30
0.0
  0
VERTEX
  8
0
 10
60.10000000000001
 20
-8.399999999999999
 30
0.0
  0
VERTEX
  8
0
 10
60.10000000000001
 20
-6.399999999999999
 30
0.0
  0
VERTEX
  8
0
 10
51.60000000000001
 20
-6.399999999999999
 30
0.0
  0
SEQEND
  0
CIRCLE
  8
0
 10
59.10000000000001
 20
-7.399999999999999
 30
0.0
 40
0.5
  0
TEXT
  8
0
 10
52.10000000000001
 20
-7.899999999999999
 30
0.0
 40
1.0
  1
FIN-756
  0
POLYLINE
 62
256
  8
0
 66
1
 10
0.0
 20
0.0
 30
0.0
 70
9
  0
VERTEX
  8
0
 10
60.20000000000001
 20
-8.399999999999999
 30
0.0
  0
VERTEX
  8
0
 10
68.70000000000002
 20
-8.399999999999999
 30
0.0
  0
VERTEX
  8
0
 10
68.70000000000002
 20
-6.399999999999999
 30
0.0
  0
VERTEX
  8
0
 10
60.20000000000001
 20
-6.399999999999999
 30
0.0
  0
SEQEND
  0
CIRCLE
  8
0
 10
67.70000000000002
 20
-7.399999999999999
 30
0.0
 40
0.5
  0
TEXT
  8
0
 10
60.70000000000001
 20
-7.899999999999999
 30
0.0
 40
1.0
  1
FIN-757
  0
POLYLINE
 62
256
  8
0
 66
1
 10
0.0
 20
0.0
 30
0.0
 70
9
  0
VERTEX
  8
0
 10
68.80000000000001
 20
-8.399999999999999
 30
0.0
  0
VERTEX
  8
0
 10
77.30000000000001
 20
-8.399999999999999
 30
0.0
  0
VERTEX
  8
0
 10
77.30000000000001
 20
-6.399999999999999
 30
0.0
  0
VERTEX
  8
0
 10
68.80000000000001
 20
-6.399999999999999
 30
0.0
  0
SEQEND
  0
CIRCLE
  8
0
 10
76.30000000000001
 20
-7.399999999999999
 30
0.0
 40
0.5
  0
TEXT
  8
0
 10
69.30000000000001
 20
-7.899999999999999
 30
0.0
 40
1.0
  1
FIN-758
  0
POLYLINE
 62
256
  8
0
 66
1
 10
0.0
 20
0.0
 30
0.0
 70
9
  0
VERTEX
  8
0
 10
77.4
 20
-8.399999999999999
 30
0.0
  0
VERTEX
  8
0
 10
85.9
 20
-8.399999999999999
 30
0.0
  0
VERTEX
  8
0
 10
85.9
 20
-6.399999999999999
 30
0.0
  0
VERTEX
  8
0
 10
77.4
 20
-6.399999999999999
 30
0.0
  0
SEQEND
  0
CIRCLE
  8
0
 10
84.9
 20
-7.399999999999999
 30
0.0
 40
0.5
  0
TEXT
  8
0
 10
77.9
 20
-7.899999999999999
 30
0.0
 40
1.0
  1
FIN-759
  0
POLYLINE
 62
256
  8
0
 66
1
 10
0.0
 20
0.0
 30
0.0
 70
9
  0
VERTEX
  8
0
 10
86.0
 20
-8.399999999999999
 30
0.0
  0
VERTEX
  8
0
 10
94.5
 20
-8.399999999999999
 30
0.0
  0
VERTEX
  8
0
 10
94.5
 20
-6.399999999999999
 30
0.0
  0
VERTEX
  8
0
 10
86.0
 20
-6.399999999999999
 30
0.0
  0
SEQEND
  0
CIRCLE
  8
0
 10
93.5
 20
-7.399999999999999
 30
0.0
 40
0.5
  0
TEXT
  8
0
 10
86.5
 20
-7.899999999999999
 30
0.0
 40
1.0
  1
FIN-76
  0
POLYLINE
 62
256
  8
0
 66
1
 10
0.0
 20
0.0
 30
0.0
 70
9
  0
VERTEX
  8
0
 10
0.0
 20
-10.499999999999998
 30
0.0
  0
VERTEX
  8
0
 10
8.5
 20
-10.499999999999998
 30
0.0
  0
VERTEX
  8
0
 10
8.5
 20
-8.499999999999998
 30
0.0
  0
VERTEX
  8
0
 10
0.0
 20
-8.499999999999998
 30
0.0
  0
SEQEND
  0
CIRCLE
  8
0
 10
7.5
 20
-9.499999999999998
 30
0.0
 40
0.5
  0
TEXT
  8
0
 10
0.5
 20
-9.999999999999998
 30
0.0
 40
1.0
  1
FIN-760
  0
POLYLINE
 62
256
  8
0
 66
1
 10
0.0
 20
0.0
 30
0.0
 70
9
  0
VERTEX
  8
0
 10
8.6
 20
-10.499999999999998
 30
0.0
  0
VERTEX
  8
0
 10
17.1
 20
-10.499999999999998
 30
0.0
  0
VERTEX
  8
0
 10
17.1
 20
-8.499999999999998
 30
0.0
  0
VERTEX
  8
0
 10
8.6
 20
-8.499999999999998
 30
0.0
  0
SEQEND
  0
CIRCLE
  8
0
 10
16.1
 20
-9.499999999999998
 30
0.0
 40
0.5
  0
TEXT
  8
0
 10
9.1
 20
-9.999999999999998
 30
0.0
 40
1.0
  1
FIN-761
  0
POLYLINE
 62
256
  8
0
 66
1
 10
0.0
 20
0.0
 30
0.0
 70
9
  0
VERTEX
  8
0
 10
17.200000000000003
 20
-10.499999999999998
 30
0.0
  0
VERTEX
  8
0
 10
25.700000000000003
 20
-10.499999999999998
 30
0.0
  0
VERTEX
  8
0
 10
25.700000000000003
 20
-8.499999999999998
 30
0.0
  0
VERTEX
  8
0
 10
17.200000000000003
 20
-8.499999999999998
 30
0.0
  0
SEQEND
  0
CIRCLE
  8
0
 10
24.700000000000003
 20
-9.499999999999998
 30
0.0
 40
0.5
  0
TEXT
  8
0
 10
17.700000000000003
 20
-9.999999999999998
 30
0.0
 40
1.0
  1
FIN-762
  0
POLYLINE
 62
256
  8
0
 66
1
 10
0.0
 20
0.0
 30
0.0
 70
9
  0
VERTEX
  8
0
 10
25.800000000000004
 20
-10.499999999999998
 30
0.0
  0
VERTEX
  8
0
 10
34.300000000000004
 20
-10.499999999999998
 30
0.0
  0
VERTEX
  8
0
 10
34.300000000000004
 20
-8.499999999999998
 30
0.0
  0
VERTEX
  8
0
 10
25.800000000000004
 20
-8.499999999999998
 30
0.0
  0
SEQEND
  0
CIRCLE
  8
0
 10
33.300000000000004
 20
-9.499999999999998
 30
0.0
 40
0.5
  0
TEXT
  8
0
 10
26.300000000000004
 20
-9.999999999999998
 30
0.0
 40
1.0
  1
FIN-763
  0
POLYLINE
 62
256
  8
0
 66
1
 10
0.0
 20
0.0
 30
0.0
 70
9
  0
VERTEX
  8
0
 10
34.400000000000006
 20
-10.499999999999998
 30
0.0
  0
VERTEX
  8
0
 10
42.900000000000006
 20
-10.499999999999998
 30
0.0
  0
VERTEX
  8
0
 10
42.900000000000006
 20
-8.499999999999998
 30
0.0
  0
VERTEX
  8
0
 10
34.400000000000006
 20
-8.499999999999998
 30
0.0
  0
SEQEND
  0
CIRCLE
  8
0
 10
41.900000000000006
 20
-9.499999999999998
 30
0.0
 40
0.5
  0
TEXT
  8
0
 10
34.900000000000006
 20
-9.999999999999998
 30
0.0
 40
1.0
  1
FIN-764
  0
POLYLINE
 62
256
  8
0
 66
1
 10
0.0
 20
0.0
 30
0.0
 70
9
  0
VERTEX
  8
0
 10
43.00000000000001
 20
-10.499999999999998
 30
0.0
  0
VERTEX
  8
0
 10
51.50000000000001
 20
-10.499999999999998
 30
0.0
  0
VERTEX
  8
0
 10
51.50000000000001
 20
-8.499999999999998
 30
0.0
  0
VERTEX
  8
0
 10
43.00000000000001
 20
-8.499999999999998
 30
0.0
  0
SEQEND
  0
CIRCLE
  8
0
 10
50.50000000000001
 20
-9.499999999999998
 30
0.0
 40
0.5
  0
TEXT
  8
0
 10
43.50000000000001
 20
-9.999999999999998
 30
0.0
 40
1.0
  1
FIN-765
  0
POLYLINE
 62
256
  8
0
 66
1
 10
0.0
 20
0.0
 30
0.0
 70
9
  0
VERTEX
  8
0
 10
51.60000000000001
 20
-10.499999999999998
 30
0.0
  0
VERTEX
  8
0
 10
60.10000000000001
 20
-10.499999999999998
 30
0.0
  0
VERTEX
  8
0
 10
60.10000000000001
 20
-8.499999999999998
 30
0.0
  0
VERTEX
  8
0
 10
51.60000000000001
 20
-8.499999999999998
 30
0.0
  0
SEQEND
  0
CIRCLE
  8
0
 10
59.10000000000001
 20
-9.499999999999998
 30
0.0
 40
0.5
  0
TEXT
  8
0
 10
52.10000000000001
 20
-9.999999999999998
 30
0.0
 40
1.0
  1
FIN-766
  0
POLYLINE
 62
256
  8
0
 66
1
 10
0.0
 20
0.0
 30
0.0
 70
9
  0
VERTEX
  8
0
 10
60.20000000000001
 20
-10.499999999999998
 30
0.0
  0
VERTEX
  8
0
 10
68.70000000000002
 20
-10.499999999999998
 30
0.0
  0
VERTEX
  8
0
 10
68.70000000000002
 20
-8.499999999999998
 30
0.0
  0
VERTEX
  8
0
 10
60.20000000000001
 20
-8.499999999999998
 30
0.0
  0
SEQEND
  0
CIRCLE
  8
0
 10
67.70000000000002
 20
-9.499999999999998
 30
0.0
 40
0.5
  0
TEXT
  8
0
 10
60.70000000000001
 20
-9.999999999999998
 30
0.0
 40
1.0
  1
FIN-767
  0
POLYLINE
 62
256
  8
0
 66
1
 10
0.0
 20
0.0
 30
0.0
 70
9
  0
VERTEX
  8
0
 10
68.80000000000001
 20
-10.499999999999998
 30
0.0
  0
VERTEX
  8
0
 10
77.30000000000001
 20
-10.499999999999998
 30
0.0
  0
VERTEX
  8
0
 10
77.30000000000001
 20
-8.499999999999998
 30
0.0
  0
VERTEX
  8
0
 10
68.80000000000001
 20
-8.499999999999998
 30
0.0
  0
SEQEND
  0
CIRCLE
  8
0
 10
76.30000000000001
 20
-9.499999999999998
 30
0.0
 40
0.5
  0
TEXT
  8
0
 10
69.30000000000001
 20
-9.999999999999998
 30
0.0
 40
1.0
  1
FIN-768
  0
POLYLINE
 62
256
  8
0
 66
1
 10
0.0
 20
0.0
 30
0.0
 70
9
  0
VERTEX
  8
0
 10
77.4
 20
-10.499999999999998
 30
0.0
  0
VERTEX
  8
0
 10
85.9
 20
-10.499999999999998
 30
0.0
  0
VERTEX
  8
0
 10
85.9
 20
-8.499999999999998
 30
0.0
  0
VERTEX
  8
0
 10
77.4
 20
-8.499999999999998
 30
0.0
  0
SEQEND
  0
CIRCLE
  8
0
 10
84.9
 20
-9.499999999999998
 30
0.0
 40
0.5
  0
TEXT
  8
0
 10
77.9
 20
-9.999999999999998
 30
0.0
 40
1.0
  1
FIN-769
  0
POLYLINE
 62
256
  8
0
 66
1
 10
0.0
 20
0.0
 30
0.0
 70
9
  0
VERTEX
  8
0
 10
86.0
 20
-10.499999999999998
 30
0.0
  0
VERTEX
  8
0
 10
94.5
 20
-10.499999999999998
 30
0.0
  0
VERTEX
  8
0
 10
94.5
 20
-8.499999999999998
 30
0.0
  0
VERTEX
  8
0
 10
86.0
 20
-8.499999999999998
 30
0.0
  0
SEQEND
  0
CIRCLE
  8
0
 10
93.5
 20
-9.499999999999998
 30
0.0
 40
0.5
  0
TEXT
  8
0
 10
86.5
 20
-9.999999999999998
 30
0.0
 40
1.0
  1
FIN-77
  0
POLYLINE
 62
256
  8
0
 66
1
 10
0.0
 20
0.0
 30
0.0
 70
9
  0
VERTEX
  8
0
 10
0.0
 20
-12.599999999999998
 30
0.0
  0
VERTEX
  8
0
 10
8.5
 20
-12.599999999999998
 30
0.0
  0
VERTEX
  8
0
 10
8.5
 20
-10.599999999999998
 30
0.0
  0
VERTEX
  8
0
 10
0.0
 20
-10.599999999999998
 30
0.0
  0
SEQEND
  0
CIRCLE
  8
0
 10
7.5
 20
-11.599999999999998
 30
0.0
 40
0.5
  0
TEXT
  8
0
 10
0.5
 20
-12.099999999999998
 30
0.0
 40
1.0
  1
FIN-770
  0
POLYLINE
 62
256
  8
0
 66
1
 10
0.0
 20
0.0
 30
0.0
 70
9
  0
VERTEX
  8
0
 10
8.6
 20
-12.599999999999998
 30
0.0
  0
VERTEX
  8
0
 10
17.1
 20
-12.599999999999998
 30
0.0
  0
VERTEX
  8
0
 10
17.1
 20
-10.599999999999998
 30
0.0
  0
VERTEX
  8
0
 10
8.6
 20
-10.599999999999998
 30
0.0
  0
SEQEND
  0
CIRCLE
  8
0
 10
16.1
 20
-11.599999999999998
 30
0.0
 40
0.5
  0
TEXT
  8
0
 10
9.1
 20
-12.099999999999998
 30
0.0
 40
1.0
  1
FIN-771
  0
POLYLINE
 62
256
  8
0
 66
1
 10
0.0
 20
0.0
 30
0.0
 70
9
  0
VERTEX
  8
0
 10
17.200000000000003
 20
-12.599999999999998
 30
0.0
  0
VERTEX
  8
0
 10
25.700000000000003
 20
-12.599999999999998
 30
0.0
  0
VERTEX
  8
0
 10
25.700000000000003
 20
-10.599999999999998
 30
0.0
  0
VERTEX
  8
0
 10
17.200000000000003
 20
-10.599999999999998
 30
0.0
  0
SEQEND
  0
CIRCLE
  8
0
 10
24.700000000000003
 20
-11.599999999999998
 30
0.0
 40
0.5
  0
TEXT
  8
0
 10
17.700000000000003
 20
-12.099999999999998
 30
0.0
 40
1.0
  1
FIN-772
  0
POLYLINE
 62
256
  8
0
 66
1
 10
0.0
 20
0.0
 30
0.0
 70
9
  0
VERTEX
  8
0
 10
25.800000000000004
 20
-12.599999999999998
 30
0.0
  0
VERTEX
  8
0
 10
34.300000000000004
 20
-12.599999999999998
 30
0.0
  0
VERTEX
  8
0
 10
34.300000000000004
 20
-10.599999999999998
 30
0.0
  0
VERTEX
  8
0
 10
25.800000000000004
 20
-10.599999999999998
 30
0.0
  0
SEQEND
  0
CIRCLE
  8
0
 10
33.300000000000004
 20
-11.599999999999998
 30
0.0
 40
0.5
  0
TEXT
  8
0
 10
26.300000000000004
 20
-12.099999999999998
 30
0.0
 40
1.0
  1
FIN-773
  0
POLYLINE
 62
256
  8
0
 66
1
 10
0.0
 20
0.0
 30
0.0
 70
9
  0
VERTEX
  8
0
 10
34.400000000000006
 20
-12.599999999999998
 30
0.0
  0
VERTEX
  8
0
 10
42.900000000000006
 20
-12.599999999999998
 30
0.0
  0
VERTEX
  8
0
 10
42.900000000000006
 20
-10.599999999999998
 30
0.0
  0
VERTEX
  8
0
 10
34.400000000000006
 20
-10.599999999999998
 30
0.0
  0
SEQEND
  0
CIRCLE
  8
0
 10
41.900000000000006
 20
-11.599999999999998
 30
0.0
 40
0.5
  0
TEXT
  8
0
 10
34.900000000000006
 20
-12.099999999999998
 30
0.0
 40
1.0
  1
FIN-774
  0
POLYLINE
 62
256
  8
0
 66
1
 10
0.0
 20
0.0
 30
0.0
 70
9
  0
VERTEX
  8
0
 10
43.00000000000001
 20
-12.599999999999998
 30
0.0
  0
VERTEX
  8
0
 10
51.50000000000001
 20
-12.599999999999998
 30
0.0
  0
VERTEX
  8
0
 10
51.50000000000001
 20
-10.599999999999998
 30
0.0
  0
VERTEX
  8
0
 10
43.00000000000001
 20
-10.599999999999998
 30
0.0
  0
SEQEND
  0
CIRCLE
  8
0
 10
50.50000000000001
 20
-11.599999999999998
 30
0.0
 40
0.5
  0
TEXT
  8
0
 10
43.50000000000001
 20
-12.099999999999998
 30
0.0
 40
1.0
  1
FIN-775
  0
POLYLINE
 62
256
  8
0
 66
1
 10
0.0
 20
0.0
 30
0.0
 70
9
  0
VERTEX
  8
0
 10
51.60000000000001
 20
-12.599999999999998
 30
0.0
  0
VERTEX
  8
0
 10
60.10000000000001
 20
-12.599999999999998
 30
0.0
  0
VERTEX
  8
0
 10
60.10000000000001
 20
-10.599999999999998
 30
0.0
  0
VERTEX
  8
0
 10
51.60000000000001
 20
-10.599999999999998
 30
0.0
  0
SEQEND
  0
CIRCLE
  8
0
 10
59.10000000000001
 20
-11.599999999999998
 30
0.0
 40
0.5
  0
TEXT
  8
0
 10
52.10000000000001
 20
-12.099999999999998
 30
0.0
 40
1.0
  1
FIN-776
  0
POLYLINE
 62
256
  8
0
 66
1
 10
0.0
 20
0.0
 30
0.0
 70
9
  0
VERTEX
  8
0
 10
60.20000000000001
 20
-12.599999999999998
 30
0.0
  0
VERTEX
  8
0
 10
68.70000000000002
 20
-12.599999999999998
 30
0.0
  0
VERTEX
  8
0
 10
68.70000000000002
 20
-10.599999999999998
 30
0.0
  0
VERTEX
  8
0
 10
60.20000000000001
 20
-10.599999999999998
 30
0.0
  0
SEQEND
  0
CIRCLE
  8
0
 10
67.70000000000002
 20
-11.599999999999998
 30
0.0
 40
0.5
  0
TEXT
  8
0
 10
60.70000000000001
 20
-12.099999999999998
 30
0.0
 40
1.0
  1
FIN-777
  0
POLYLINE
 62
256
  8
0
 66
1
 10
0.0
 20
0.0
 30
0.0
 70
9
  0
VERTEX
  8
0
 10
68.80000000000001
 20
-12.599999999999998
 30
0.0
  0
VERTEX
  8
0
 10
77.30000000000001
 20
-12.599999999999998
 30
0.0
  0
VERTEX
  8
0
 10
77.30000000000001
 20
-10.599999999999998
 30
0.0
  0
VERTEX
  8
0
 10
68.80000000000001
 20
-10.599999999999998
 30
0.0
  0
SEQEND
  0
CIRCLE
  8
0
 10
76.30000000000001
 20
-11.599999999999998
 30
0.0
 40
0.5
  0
TEXT
  8
0
 10
69.30000000000001
 20
-12.099999999999998
 30
0.0
 40
1.0
  1
FIN-778
  0
POLYLINE
 62
256
  8
0
 66
1
 10
0.0
 20
0.0
 30
0.0
 70
9
  0
VERTEX
  8
0
 10
77.4
 20
-12.599999999999998
 30
0.0
  0
VERTEX
  8
0
 10
85.9
 20
-12.599999999999998
 30
0.0
  0
VERTEX
  8
0
 10
85.9
 20
-10.599999999999998
 30
0.0
  0
VERTEX
  8
0
 10
77.4
 20
-10.599999999999998
 30
0.0
  0
SEQEND
  0
CIRCLE
  8
0
 10
84.9
 20
-11.599999999999998
 30
0.0
 40
0.5
  0
TEXT
  8
0
 10
77.9
 20
-12.099999999999998
 30
0.0
 40
1.0
  1
FIN-779
  0
POLYLINE
 62
256
  8
0
 66
1
 10
0.0
 20
0.0
 30
0.0
 70
9
  0
VERTEX
  8
0
 10
86.0
 20
-12.599999999999998
 30
0.0
  0
VERTEX
  8
0
 10
94.5
 20
-12.599999999999998
 30
0.0
  0
VERTEX
  8
0
 10
94.5
 20
-10.599999999999998
 30
0.0
  0
VERTEX
  8
0
 10
86.0
 20
-10.599999999999998
 30
0.0
  0
SEQEND
  0
CIRCLE
  8
0
 10
93.5
 20
-11.599999999999998
 30
0.0
 40
0.5
  0
TEXT
  8
0
 10
86.5
 20
-12.099999999999998
 30
0.0
 40
1.0
  1
FIN-78
  0
POLYLINE
 62
256
  8
0
 66
1
 10
0.0
 20
0.0
 30
0.0
 70
9
  0
VERTEX
  8
0
 10
0.0
 20
-14.699999999999998
 30
0.0
  0
VERTEX
  8
0
 10
8.5
 20
-14.699999999999998
 30
0.0
  0
VERTEX
  8
0
 10
8.5
 20
-12.699999999999998
 30
0.0
  0
VERTEX
  8
0
 10
0.0
 20
-12.699999999999998
 30
0.0
  0
SEQEND
  0
CIRCLE
  8
0
 10
7.5
 20
-13.699999999999998
 30
0.0
 40
0.5
  0
TEXT
  8
0
 10
0.5
 20
-14.199999999999998
 30
0.0
 40
1.0
  1
FIN-780
  0
POLYLINE
 62
256
  8
0
 66
1
 10
0.0
 20
0.0
 30
0.0
 70
9
  0
VERTEX
  8
0
 10
8.6
 20
-14.699999999999998
 30
0.0
  0
VERTEX
  8
0
 10
17.1
 20
-14.699999999999998
 30
0.0
  0
VERTEX
  8
0
 10
17.1
 20
-12.699999999999998
 30
0.0
  0
VERTEX
  8
0
 10
8.6
 20
-12.699999999999998
 30
0.0
  0
SEQEND
  0
CIRCLE
  8
0
 10
16.1
 20
-13.699999999999998
 30
0.0
 40
0.5
  0
TEXT
  8
0
 10
9.1
 20
-14.199999999999998
 30
0.0
 40
1.0
  1
FIN-781
  0
POLYLINE
 62
256
  8
0
 66
1
 10
0.0
 20
0.0
 30
0.0
 70
9
  0
VERTEX
  8
0
 10
17.200000000000003
 20
-14.699999999999998
 30
0.0
  0
VERTEX
  8
0
 10
25.700000000000003
 20
-14.699999999999998
 30
0.0
  0
VERTEX
  8
0
 10
25.700000000000003
 20
-12.699999999999998
 30
0.0
  0
VERTEX
  8
0
 10
17.200000000000003
 20
-12.699999999999998
 30
0.0
  0
SEQEND
  0
CIRCLE
  8
0
 10
24.700000000000003
 20
-13.699999999999998
 30
0.0
 40
0.5
  0
TEXT
  8
0
 10
17.700000000000003
 20
-14.199999999999998
 30
0.0
 40
1.0
  1
FIN-782
  0
POLYLINE
 62
256
  8
0
 66
1
 10
0.0
 20
0.0
 30
0.0
 70
9
  0
VERTEX
  8
0
 10
25.800000000000004
 20
-14.699999999999998
 30
0.0
  0
VERTEX
  8
0
 10
34.300000000000004
 20
-14.699999999999998
 30
0.0
  0
VERTEX
  8
0
 10
34.300000000000004
 20
-12.699999999999998
 30
0.0
  0
VERTEX
  8
0
 10
25.800000000000004
 20
-12.699999999999998
 30
0.0
  0
SEQEND
  0
CIRCLE
  8
0
 10
33.300000000000004
 20
-13.699999999999998
 30
0.0
 40
0.5
  0
TEXT
  8
0
 10
26.300000000000004
 20
-14.199999999999998
 30
0.0
 40
1.0
  1
FIN-783
  0
POLYLINE
 62
256
  8
0
 66
1
 10
0.0
 20
0.0
 30
0.0
 70
9
  0
VERTEX
  8
0
 10
34.400000000000006
 20
-14.699999999999998
 30
0.0
  0
VERTEX
  8
0
 10
42.900000000000006
 20
-14.699999999999998
 30
0.0
  0
VERTEX
  8
0
 10
42.900000000000006
 20
-12.699999999999998
 30
0.0
  0
VERTEX
  8
0
 10
34.400000000000006
 20
-12.699999999999998
 30
0.0
  0
SEQEND
  0
CIRCLE
  8
0
 10
41.900000000000006
 20
-13.699999999999998
 30
0.0
 40
0.5
  0
TEXT
  8
0
 10
34.900000000000006
 20
-14.199999999999998
 30
0.0
 40
1.0
  1
FIN-784
  0
POLYLINE
 62
256
  8
0
 66
1
 10
0.0
 20
0.0
 30
0.0
 70
9
  0
VERTEX
  8
0
 10
43.00000000000001
 20
-14.699999999999998
 30
0.0
  0
VERTEX
  8
0
 10
51.50000000000001
 20
-14.699999999999998
 30
0.0
  0
VERTEX
  8
0
 10
51.50000000000001
 20
-12.699999999999998
 30
0.0
  0
VERTEX
  8
0
 10
43.00000000000001
 20
-12.699999999999998
 30
0.0
  0
SEQEND
  0
CIRCLE
  8
0
 10
50.50000000000001
 20
-13.699999999999998
 30
0.0
 40
0.5
  0
TEXT
  8
0
 10
43.50000000000001
 20
-14.199999999999998
 30
0.0
 40
1.0
  1
FIN-785
  0
POLYLINE
 62
256
  8
0
 66
1
 10
0.0
 20
0.0
 30
0.0
 70
9
  0
VERTEX
  8
0
 10
51.60000000000001
 20
-14.699999999999998
 30
0.0
  0
VERTEX
  8
0
 10
60.10000000000001
 20
-14.699999999999998
 30
0.0
  0
VERTEX
  8
0
 10
60.10000000000001
 20
-12.699999999999998
 30
0.0
  0
VERTEX
  8
0
 10
51.60000000000001
 20
-12.699999999999998
 30
0.0
  0
SEQEND
  0
CIRCLE
  8
0
 10
59.10000000000001
 20
-13.699999999999998
 30
0.0
 40
0.5
  0
TEXT
  8
0
 10
52.10000000000001
 20
-14.199999999999998
 30
0.0
 40
1.0
  1
FIN-786
  0
POLYLINE
 62
256
  8
0
 66
1
 10
0.0
 20
0.0
 30
0.0
 70
9
  0
VERTEX
  8
0
 10
60.20000000000001
 20
-14.699999999999998
 30
0.0
  0
VERTEX
  8
0
 10
68.70000000000002
 20
-14.699999999999998
 30
0.0
  0
VERTEX
  8
0
 10
68.70000000000002
 20
-12.699999999999998
 30
0.0
  0
VERTEX
  8
0
 10
60.20000000000001
 20
-12.699999999999998
 30
0.0
  0
SEQEND
  0
CIRCLE
  8
0
 10
67.70000000000002
 20
-13.699999999999998
 30
0.0
 40
0.5
  0
TEXT
  8
0
 10
60.70000000000001
 20
-14.199999999999998
 30
0.0
 40
1.0
  1
FIN-787
  0
POLYLINE
 62
256
  8
0
 66
1
 10
0.0
 20
0.0
 30
0.0
 70
9
  0
VERTEX
  8
0
 10
68.80000000000001
 20
-14.699999999999998
 30
0.0
  0
VERTEX
  8
0
 10
77.30000000000001
 20
-14.699999999999998
 30
0.0
  0
VERTEX
  8
0
 10
77.30000000000001
 20
-12.699999999999998
 30
0.0
  0
VERTEX
  8
0
 10
68.80000000000001
 20
-12.699999999999998
 30
0.0
  0
SEQEND
  0
CIRCLE
  8
0
 10
76.30000000000001
 20
-13.699999999999998
 30
0.0
 40
0.5
  0
TEXT
  8
0
 10
69.30000000000001
 20
-14.199999999999998
 30
0.0
 40
1.0
  1
FIN-788
  0
POLYLINE
 62
256
  8
0
 66
1
 10
0.0
 20
0.0
 30
0.0
 70
9
  0
VERTEX
  8
0
 10
77.4
 20
-14.699999999999998
 30
0.0
  0
VERTEX
  8
0
 10
85.9
 20
-14.699999999999998
 30
0.0
  0
VERTEX
  8
0
 10
85.9
 20
-12.699999999999998
 30
0.0
  0
VERTEX
  8
0
 10
77.4
 20
-12.699999999999998
 30
0.0
  0
SEQEND
  0
CIRCLE
  8
0
 10
84.9
 20
-13.699999999999998
 30
0.0
 40
0.5
  0
TEXT
  8
0
 10
77.9
 20
-14.199999999999998
 30
0.0
 40
1.0
  1
FIN-789
  0
POLYLINE
 62
256
  8
0
 66
1
 10
0.0
 20
0.0
 30
0.0
 70
9
  0
VERTEX
  8
0
 10
86.0
 20
-14.699999999999998
 30
0.0
  0
VERTEX
  8
0
 10
94.5
 20
-14.699999999999998
 30
0.0
  0
VERTEX
  8
0
 10
94.5
 20
-12.699999999999998
 30
0.0
  0
VERTEX
  8
0
 10
86.0
 20
-12.699999999999998
 30
0.0
  0
SEQEND
  0
CIRCLE
  8
0
 10
93.5
 20
-13.699999999999998
 30
0.0
 40
0.5
  0
TEXT
  8
0
 10
86.5
 20
-14.199999999999998
 30
0.0
 40
1.0
  1
FIN-79
  0
POLYLINE
 62
256
  8
0
 66
1
 10
0.0
 20
0.0
 30
0.0
 70
9
  0
VERTEX
  8
0
 10
0.0
 20
-16.799999999999997
 30
0.0
  0
VERTEX
  8
0
 10
8.5
 20
-16.799999999999997
 30
0.0
  0
VERTEX
  8
0
 10
8.5
 20
-14.799999999999997
 30
0.0
  0
VERTEX
  8
0
 10
0.0
 20
-14.799999999999997
 30
0.0
  0
SEQEND
  0
CIRCLE
  8
0
 10
7.5
 20
-15.799999999999997
 30
0.0
 40
0.5
  0
TEXT
  8
0
 10
0.5
 20
-16.299999999999997
 30
0.0
 40
1.0
  1
FIN-790
  0
POLYLINE
 62
256
  8
0
 66
1
 10
0.0
 20
0.0
 30
0.0
 70
9
  0
VERTEX
  8
0
 10
8.6
 20
-16.799999999999997
 30
0.0
  0
VERTEX
  8
0
 10
17.1
 20
-16.799999999999997
 30
0.0
  0
VERTEX
  8
0
 10
17.1
 20
-14.799999999999997
 30
0.0
  0
VERTEX
  8
0
 10
8.6
 20
-14.799999999999997
 30
0.0
  0
SEQEND
  0
CIRCLE
  8
0
 10
16.1
 20
-15.799999999999997
 30
0.0
 40
0.5
  0
TEXT
  8
0
 10
9.1
 20
-16.299999999999997
 30
0.0
 40
1.0
  1
FIN-791
  0
POLYLINE
 62
256
  8
0
 66
1
 10
0.0
 20
0.0
 30
0.0
 70
9
  0
VERTEX
  8
0
 10
17.200000000000003
 20
-16.799999999999997
 30
0.0
  0
VERTEX
  8
0
 10
25.700000000000003
 20
-16.799999999999997
 30
0.0
  0
VERTEX
  8
0
 10
25.700000000000003
 20
-14.799999999999997
 30
0.0
  0
VERTEX
  8
0
 10
17.200000000000003
 20
-14.799999999999997
 30
0.0
  0
SEQEND
  0
CIRCLE
  8
0
 10
24.700000000000003
 20
-15.799999999999997
 30
0.0
 40
0.5
  0
TEXT
  8
0
 10
17.700000000000003
 20
-16.299999999999997
 30
0.0
 40
1.0
  1
FIN-792
  0
POLYLINE
 62
256
  8
0
 66
1
 10
0.0
 20
0.0
 30
0.0
 70
9
  0
VERTEX
  8
0
 10
25.800000000000004
 20
-16.799999999999997
 30
0.0
  0
VERTEX
  8
0
 10
34.300000000000004
 20
-16.799999999999997
 30
0.0
  0
VERTEX
  8
0
 10
34.300000000000004
 20
-14.799999999999997
 30
0.0
  0
VERTEX
  8
0
 10
25.800000000000004
 20
-14.799999999999997
 30
0.0
  0
SEQEND
  0
CIRCLE
  8
0
 10
33.300000000000004
 20
-15.799999999999997
 30
0.0
 40
0.5
  0
TEXT
  8
0
 10
26.300000000000004
 20
-16.299999999999997
 30
0.0
 40
1.0
  1
FIN-793
  0
POLYLINE
 62
256
  8
0
 66
1
 10
0.0
 20
0.0
 30
0.0
 70
9
  0
VERTEX
  8
0
 10
34.400000000000006
 20
-16.799999999999997
 30
0.0
  0
VERTEX
  8
0
 10
42.900000000000006
 20
-16.799999999999997
 30
0.0
  0
VERTEX
  8
0
 10
42.900000000000006
 20
-14.799999999999997
 30
0.0
  0
VERTEX
  8
0
 10
34.400000000000006
 20
-14.799999999999997
 30
0.0
  0
SEQEND
  0
CIRCLE
  8
0
 10
41.900000000000006
 20
-15.799999999999997
 30
0.0
 40
0.5
  0
TEXT
  8
0
 10
34.900000000000006
 20
-16.299999999999997
 30
0.0
 40
1.0
  1
FIN-794
  0
POLYLINE
 62
256
  8
0
 66
1
 10
0.0
 20
0.0
 30
0.0
 70
9
  0
VERTEX
  8
0
 10
43.00000000000001
 20
-16.799999999999997
 30
0.0
  0
VERTEX
  8
0
 10
51.50000000000001
 20
-16.799999999999997
 30
0.0
  0
VERTEX
  8
0
 10
51.50000000000001
 20
-14.799999999999997
 30
0.0
  0
VERTEX
  8
0
 10
43.00000000000001
 20
-14.799999999999997
 30
0.0
  0
SEQEND
  0
CIRCLE
  8
0
 10
50.50000000000001
 20
-15.799999999999997
 30
0.0
 40
0.5
  0
TEXT
  8
0
 10
43.50000000000001
 20
-16.299999999999997
 30
0.0
 40
1.0
  1
FIN-795
  0
POLYLINE
 62
256
  8
0
 66
1
 10
0.0
 20
0.0
 30
0.0
 70
9
  0
VERTEX
  8
0
 10
51.60000000000001
 20
-16.799999999999997
 30
0.0
  0
VERTEX
  8
0
 10
60.10000000000001
 20
-16.799999999999997
 30
0.0
  0
VERTEX
  8
0
 10
60.10000000000001
 20
-14.799999999999997
 30
0.0
  0
VERTEX
  8
0
 10
51.60000000000001
 20
-14.799999999999997
 30
0.0
  0
SEQEND
  0
CIRCLE
  8
0
 10
59.10000000000001
 20
-15.799999999999997
 30
0.0
 40
0.5
  0
TEXT
  8
0
 10
52.10000000000001
 20
-16.299999999999997
 30
0.0
 40
1.0
  1
FIN-796
  0
POLYLINE
 62
256
  8
0
 66
1
 10
0.0
 20
0.0
 30
0.0
 70
9
  0
VERTEX
  8
0
 10
60.20000000000001
 20
-16.799999999999997
 30
0.0
  0
VERTEX
  8
0
 10
68.70000000000002
 20
-16.799999999999997
 30
0.0
  0
VERTEX
  8
0
 10
68.70000000000002
 20
-14.799999999999997
 30
0.0
  0
VERTEX
  8
0
 10
60.20000000000001
 20
-14.799999999999997
 30
0.0
  0
SEQEND
  0
CIRCLE
  8
0
 10
67.70000000000002
 20
-15.799999999999997
 30
0.0
 40
0.5
  0
TEXT
  8
0
 10
60.70000000000001
 20
-16.299999999999997
 30
0.0
 40
1.0
  1
FIN-797
  0
POLYLINE
 62
256
  8
0
 66
1
 10
0.0
 20
0.0
 30
0.0
 70
9
  0
VERTEX
  8
0
 10
68.80000000000001
 20
-16.799999999999997
 30
0.0
  0
VERTEX
  8
0
 10
77.30000000000001
 20
-16.799999999999997
 30
0.0
  0
VERTEX
  8
0
 10
77.30000000000001
 20
-14.799999999999997
 30
0.0
  0
VERTEX
  8
0
 10
68.80000000000001
 20
-14.799999999999997
 30
0.0
  0
SEQEND
  0
CIRCLE
  8
0
 10
76.30000000000001
 20
-15.799999999999997
 30
0.0
 40
0.5
  0
TEXT
  8
0
 10
69.30000000000001
 20
-16.299999999999997
 30
0.0
 40
1.0
  1
FIN-798
  0
POLYLINE
 62
256
  8
0
 66
1
 10
0.0
 20
0.0
 30
0.0
 70
9
  0
VERTEX
  8
0
 10
77.4
 20
-16.799999999999997
 30
0.0
  0
VERTEX
  8
0
 10
85.9
 20
-16.799999999999997
 30
0.0
  0
VERTEX
  8
0
 10
85.9
 20
-14.799999999999997
 30
0.0
  0
VERTEX
  8
0
 10
77.4
 20
-14.799999999999997
 30
0.0
  0
SEQEND
  0
CIRCLE
  8
0
 10
84.9
 20
-15.799999999999997
 30
0.0
 40
0.5
  0
TEXT
  8
0
 10
77.9
 20
-16.299999999999997
 30
0.0
 40
1.0
  1
FIN-799
  0
POLYLINE
 62
256
  8
0
 66
1
 10
0.0
 20
0.0
 30
0.0
 70
9
  0
VERTEX
  8
0
 10
86.0
 20
-16.799999999999997
 30
0.0
  0
VERTEX
  8
0
 10
94.5
 20
-16.799999999999997
 30
0.0
  0
VERTEX
  8
0
 10
94.5
 20
-14.799999999999997
 30
0.0
  0
VERTEX
  8
0
 10
86.0
 20
-14.799999999999997
 30
0.0
  0
SEQEND
  0
CIRCLE
  8
0
 10
93.5
 20
-15.799999999999997
 30
0.0
 40
0.5
  0
TEXT
  8
0
 10
86.5
 20
-16.299999999999997
 30
0.0
 40
1.0
  1
FIN-8
  0
POLYLINE
 62
256
  8
0
 66
1
 10
0.0
 20
0.0
 30
0.0
 70
9
  0
VERTEX
  8
0
 10
0.0
 20
-18.9
 30
0.0
  0
VERTEX
  8
0
 10
8.5
 20
-18.9
 30
0.0
  0
VERTEX
  8
0
 10
8.5
 20
-16.9
 30
0.0
  0
VERTEX
  8
0
 10
0.0
 20
-16.9
 30
0.0
  0
SEQEND
  0
CIRCLE
  8
0
 10
7.5
 20
-17.9
 30
0.0
 40
0.5
  0
TEXT
  8
0
 10
0.5
 20
-18.4
 30
0.0
 40
1.0
  1
FIN-80
  0
POLYLINE
 62
256
  8
0
 66
1
 10
0.0
 20
0.0
 30
0.0
 70
9
  0
VERTEX
  8
0
 10
8.6
 20
-18.9
 30
0.0
  0
VERTEX
  8
0
 10
17.1
 20
-18.9
 30
0.0
  0
VERTEX
  8
0
 10
17.1
 20
-16.9
 30
0.0
  0
VERTEX
  8
0
 10
8.6
 20
-16.9
 30
0.0
  0
SEQEND
  0
CIRCLE
  8
0
 10
16.1
 20
-17.9
 30
0.0
 40
0.5
  0
TEXT
  8
0
 10
9.1
 20
-18.4
 30
0.0
 40
1.0
  1
FIN-800
  0
POLYLINE
 62
256
  8
0
 66
1
 10
0.0
 20
0.0
 30
0.0
 70
9
  0
VERTEX
  8
0
 10
17.200000000000003
 20
-18.9
 30
0.0
  0
VERTEX
  8
0
 10
25.700000000000003
 20
-18.9
 30
0.0
  0
VERTEX
  8
0
 10
25.700000000000003
 20
-16.9
 30
0.0
  0
VERTEX
  8
0
 10
17.200000000000003
 20
-16.9
 30
0.0
  0
SEQEND
  0
CIRCLE
  8
0
 10
24.700000000000003
 20
-17.9
 30
0.0
 40
0.5
  0
TEXT
  8
0
 10
17.700000000000003
 20
-18.4
 30
0.0
 40
1.0
  1
FIN-801
  0
POLYLINE
 62
256
  8
0
 66
1
 10
0.0
 20
0.0
 30
0.0
 70
9
  0
VERTEX
  8
0
 10
25.800000000000004
 20
-18.9
 30
0.0
  0
VERTEX
  8
0
 10
34.300000000000004
 20
-18.9
 30
0.0
  0
VERTEX
  8
0
 10
34.300000000000004
 20
-16.9
 30
0.0
  0
VERTEX
  8
0
 10
25.800000000000004
 20
-16.9
 30
0.0
  0
SEQEND
  0
CIRCLE
  8
0
 10
33.300000000000004
 20
-17.9
 30
0.0
 40
0.5
  0
TEXT
  8
0
 10
26.300000000000004
 20
-18.4
 30
0.0
 40
1.0
  1
FIN-802
  0
POLYLINE
 62
256
  8
0
 66
1
 10
0.0
 20
0.0
 30
0.0
 70
9
  0
VERTEX
  8
0
 10
34.400000000000006
 20
-18.9
 30
0.0
  0
VERTEX
  8
0
 10
42.900000000000006
 20
-18.9
 30
0.0
  0
VERTEX
  8
0
 10
42.900000000000006
 20
-16.9
 30
0.0
  0
VERTEX
  8
0
 10
34.400000000000006
 20
-16.9
 30
0.0
  0
SEQEND
  0
CIRCLE
  8
0
 10
41.900000000000006
 20
-17.9
 30
0.0
 40
0.5
  0
TEXT
  8
0
 10
34.900000000000006
 20
-18.4
 30
0.0
 40
1.0
  1
FIN-803
  0
POLYLINE
 62
256
  8
0
 66
1
 10
0.0
 20
0.0
 30
0.0
 70
9
  0
VERTEX
  8
0
 10
43.00000000000001
 20
-18.9
 30
0.0
  0
VERTEX
  8
0
 10
51.50000000000001
 20
-18.9
 30
0.0
  0
VERTEX
  8
0
 10
51.50000000000001
 20
-16.9
 30
0.0
  0
VERTEX
  8
0
 10
43.00000000000001
 20
-16.9
 30
0.0
  0
SEQEND
  0
CIRCLE
  8
0
 10
50.50000000000001
 20
-17.9
 30
0.0
 40
0.5
  0
TEXT
  8
0
 10
43.50000000000001
 20
-18.4
 30
0.0
 40
1.0
  1
FIN-804
  0
POLYLINE
 62
256
  8
0
 66
1
 10
0.0
 20
0.0
 30
0.0
 70
9
  0
VERTEX
  8
0
 10
51.60000000000001
 20
-18.9
 30
0.0
  0
VERTEX
  8
0
 10
60.10000000000001
 20
-18.9
 30
0.0
  0
VERTEX
  8
0
 10
60.10000000000001
 20
-16.9
 30
0.0
  0
VERTEX
  8
0
 10
51.60000000000001
 20
-16.9
 30
0.0
  0
SEQEND
  0
CIRCLE
  8
0
 10
59.10000000000001
 20
-17.9
 30
0.0
 40
0.5
  0
TEXT
  8
0
 10
52.10000000000001
 20
-18.4
 30
0.0
 40
1.0
  1
FIN-805
  0
POLYLINE
 62
256
  8
0
 66
1
 10
0.0
 20
0.0
 30
0.0
 70
9
  0
VERTEX
  8
0
 10
60.20000000000001
 20
-18.9
 30
0.0
  0
VERTEX
  8
0
 10
68.70000000000002
 20
-18.9
 30
0.0
  0
VERTEX
  8
0
 10
68.70000000000002
 20
-16.9
 30
0.0
  0
VERTEX
  8
0
 10
60.20000000000001
 20
-16.9
 30
0.0
  0
SEQEND
  0
CIRCLE
  8
0
 10
67.70000000000002
 20
-17.9
 30
0.0
 40
0.5
  0
TEXT
  8
0
 10
60.70000000000001
 20
-18.4
 30
0.0
 40
1.0
  1
FIN-806
  0
POLYLINE
 62
256
  8
0
 66
1
 10
0.0
 20
0.0
 30
0.0
 70
9
  0
VERTEX
  8
0
 10
68.80000000000001
 20
-18.9
 30
0.0
  0
VERTEX
  8
0
 10
77.30000000000001
 20
-18.9
 30
0.0
  0
VERTEX
  8
0
 10
77.30000000000001
 20
-16.9
 30
0.0
  0
VERTEX
  8
0
 10
68.80000000000001
 20
-16.9
 30
0.0
  0
SEQEND
  0
CIRCLE
  8
0
 10
76.30000000000001
 20
-17.9
 30
0.0
 40
0.5
  0
TEXT
  8
0
 10
69.30000000000001
 20
-18.4
 30
0.0
 40
1.0
  1
FIN-807
  0
POLYLINE
 62
256
  8
0
 66
1
 10
0.0
 20
0.0
 30
0.0
 70
9
  0
VERTEX
  8
0
 10
77.4
 20
-18.9
 30
0.0
  0
VERTEX
  8
0
 10
85.9
 20
-18.9
 30
0.0
  0
VERTEX
  8
0
 10
85.9
 20
-16.9
 30
0.0
  0
VERTEX
  8
0
 10
77.4
 20
-16.9
 30
0.0
  0
SEQEND
  0
CIRCLE
  8
0
 10
84.9
 20
-17.9
 30
0.0
 40
0.5
  0
TEXT
  8
0
 10
77.9
 20
-18.4
 30
0.0
 40
1.0
  1
FIN-808
  0
POLYLINE
 62
256
  8
0
 66
1
 10
0.0
 20
0.0
 30
0.0
 70
9
  0
VERTEX
  8
0
 10
86.0
 20
-18.9
 30
0.0
  0
VERTEX
  8
0
 10
94.5
 20
-18.9
 30
0.0
  0
VERTEX
  8
0
 10
94.5
 20
-16.9
 30
0.0
  0
VERTEX
  8
0
 10
86.0
 20
-16.9
 30
0.0
  0
SEQEND
  0
CIRCLE
  8
0
 10
93.5
 20
-17.9
 30
0.0
 40
0.5
  0
TEXT
  8
0
 10
86.5
 20
-18.4
 30
0.0
 40
1.0
  1
FIN-809
  0
POLYLINE
 62
256
  8
0
 66
1
 10
0.0
 20
0.0
 30
0.0
 70
9
  0
VERTEX
  8
0
 10
0.0
 20
-21.0
 30
0.0
  0
VERTEX
  8
0
 10
8.5
 20
-21.0
 30
0.0
  0
VERTEX
  8
0
 10
8.5
 20
-19.0
 30
0.0
  0
VERTEX
  8
0
 10
0.0
 20
-19.0
 30
0.0
  0
SEQEND
  0
CIRCLE
  8
0
 10
7.5
 20
-20.0
 30
0.0
 40
0.5
  0
TEXT
  8
0
 10
0.5
 20
-20.5
 30
0.0
 40
1.0
  1
FIN-81
  0
POLYLINE
 62
256
  8
0
 66
1
 10
0.0
 20
0.0
 30
0.0
 70
9
  0
VERTEX
  8
0
 10
8.6
 20
-21.0
 30
0.0
  0
VERTEX
  8
0
 10
17.1
 20
-21.0
 30
0.0
  0
VERTEX
  8
0
 10
17.1
 20
-19.0
 30
0.0
  0
VERTEX
  8
0
 10
8.6
 20
-19.0
 30
0.0
  0
SEQEND
  0
CIRCLE
  8
0
 10
16.1
 20
-20.0
 30
0.0
 40
0.5
  0
TEXT
  8
0
 10
9.1
 20
-20.5
 30
0.0
 40
1.0
  1
FIN-810
  0
POLYLINE
 62
256
  8
0
 66
1
 10
0.0
 20
0.0
 30
0.0
 70
9
  0
VERTEX
  8
0
 10
17.200000000000003
 20
-21.0
 30
0.0
  0
VERTEX
  8
0
 10
25.700000000000003
 20
-21.0
 30
0.0
  0
VERTEX
  8
0
 10
25.700000000000003
 20
-19.0
 30
0.0
  0
VERTEX
  8
0
 10
17.200000000000003
 20
-19.0
 30
0.0
  0
SEQEND
  0
CIRCLE
  8
0
 10
24.700000000000003
 20
-20.0
 30
0.0
 40
0.5
  0
TEXT
  8
0
 10
17.700000000000003
 20
-20.5
 30
0.0
 40
1.0
  1
FIN-811
  0
POLYLINE
 62
256
  8
0
 66
1
 10
0.0
 20
0.0
 30
0.0
 70
9
  0
VERTEX
  8
0
 10
25.800000000000004
 20
-21.0
 30
0.0
  0
VERTEX
  8
0
 10
34.300000000000004
 20
-21.0
 30
0.0
  0
VERTEX
  8
0
 10
34.300000000000004
 20
-19.0
 30
0.0
  0
VERTEX
  8
0
 10
25.800000000000004
 20
-19.0
 30
0.0
  0
SEQEND
  0
CIRCLE
  8
0
 10
33.300000000000004
 20
-20.0
 30
0.0
 40
0.5
  0
TEXT
  8
0
 10
26.300000000000004
 20
-20.5
 30
0.0
 40
1.0
  1
FIN-812
  0
POLYLINE
 62
256
  8
0
 66
1
 10
0.0
 20
0.0
 30
0.0
 70
9
  0
VERTEX
  8
0
 10
34.400000000000006
 20
-21.0
 30
0.0
  0
VERTEX
  8
0
 10
42.900000000000006
 20
-21.0
 30
0.0
  0
VERTEX
  8
0
 10
42.900000000000006
 20
-19.0
 30
0.0
  0
VERTEX
  8
0
 10
34.400000000000006
 20
-19.0
 30
0.0
  0
SEQEND
  0
CIRCLE
  8
0
 10
41.900000000000006
 20
-20.0
 30
0.0
 40
0.5
  0
TEXT
  8
0
 10
34.900000000000006
 20
-20.5
 30
0.0
 40
1.0
  1
FIN-813
  0
POLYLINE
 62
256
  8
0
 66
1
 10
0.0
 20
0.0
 30
0.0
 70
9
  0
VERTEX
  8
0
 10
43.00000000000001
 20
-21.0
 30
0.0
  0
VERTEX
  8
0
 10
51.50000000000001
 20
-21.0
 30
0.0
  0
VERTEX
  8
0
 10
51.50000000000001
 20
-19.0
 30
0.0
  0
VERTEX
  8
0
 10
43.00000000000001
 20
-19.0
 30
0.0
  0
SEQEND
  0
CIRCLE
  8
0
 10
50.50000000000001
 20
-20.0
 30
0.0
 40
0.5
  0
TEXT
  8
0
 10
43.50000000000001
 20
-20.5
 30
0.0
 40
1.0
  1
FIN-814
  0
POLYLINE
 62
256
  8
0
 66
1
 10
0.0
 20
0.0
 30
0.0
 70
9
  0
VERTEX
  8
0
 10
51.60000000000001
 20
-21.0
 30
0.0
  0
VERTEX
  8
0
 10
60.10000000000001
 20
-21.0
 30
0.0
  0
VERTEX
  8
0
 10
60.10000000000001
 20
-19.0
 30
0.0
  0
VERTEX
  8
0
 10
51.60000000000001
 20
-19.0
 30
0.0
  0
SEQEND
  0
CIRCLE
  8
0
 10
59.10000000000001
 20
-20.0
 30
0.0
 40
0.5
  0
TEXT
  8
0
 10
52.10000000000001
 20
-20.5
 30
0.0
 40
1.0
  1
FIN-815
  0
POLYLINE
 62
256
  8
0
 66
1
 10
0.0
 20
0.0
 30
0.0
 70
9
  0
VERTEX
  8
0
 10
60.20000000000001
 20
-21.0
 30
0.0
  0
VERTEX
  8
0
 10
68.70000000000002
 20
-21.0
 30
0.0
  0
VERTEX
  8
0
 10
68.70000000000002
 20
-19.0
 30
0.0
  0
VERTEX
  8
0
 10
60.20000000000001
 20
-19.0
 30
0.0
  0
SEQEND
  0
CIRCLE
  8
0
 10
67.70000000000002
 20
-20.0
 30
0.0
 40
0.5
  0
TEXT
  8
0
 10
60.70000000000001
 20
-20.5
 30
0.0
 40
1.0
  1
FIN-816
  0
POLYLINE
 62
256
  8
0
 66
1
 10
0.0
 20
0.0
 30
0.0
 70
9
  0
VERTEX
  8
0
 10
68.80000000000001
 20
-21.0
 30
0.0
  0
VERTEX
  8
0
 10
77.30000000000001
 20
-21.0
 30
0.0
  0
VERTEX
  8
0
 10
77.30000000000001
 20
-19.0
 30
0.0
  0
VERTEX
  8
0
 10
68.80000000000001
 20
-19.0
 30
0.0
  0
SEQEND
  0
CIRCLE
  8
0
 10
76.30000000000001
 20
-20.0
 30
0.0
 40
0.5
  0
TEXT
  8
0
 10
69.30000000000001
 20
-20.5
 30
0.0
 40
1.0
  1
FIN-817
  0
POLYLINE
 62
256
  8
0
 66
1
 10
0.0
 20
0.0
 30
0.0
 70
9
  0
VERTEX
  8
0
 10
77.4
 20
-21.0
 30
0.0
  0
VERTEX
  8
0
 10
85.9
 20
-21.0
 30
0.0
  0
VERTEX
  8
0
 10
85.9
 20
-19.0
 30
0.0
  0
VERTEX
  8
0
 10
77.4
 20
-19.0
 30
0.0
  0
SEQEND
  0
CIRCLE
  8
0
 10
84.9
 20
-20.0
 30
0.0
 40
0.5
  0
TEXT
  8
0
 10
77.9
 20
-20.5
 30
0.0
 40
1.0
  1
FIN-818
  0
POLYLINE
 62
256
  8
0
 66
1
 10
0.0
 20
0.0
 30
0.0
 70
9
  0
VERTEX
  8
0
 10
86.0
 20
-21.0
 30
0.0
  0
VERTEX
  8
0
 10
94.5
 20
-21.0
 30
0.0
  0
VERTEX
  8
0
 10
94.5
 20
-19.0
 30
0.0
  0
VERTEX
  8
0
 10
86.0
 20
-19.0
 30
0.0
  0
SEQEND
  0
CIRCLE
  8
0
 10
93.5
 20
-20.0
 30
0.0
 40
0.5
  0
TEXT
  8
0
 10
86.5
 20
-20.5
 30
0.0
 40
1.0
  1
FIN-819
  0
POLYLINE
 62
256
  8
0
 66
1
 10
0.0
 20
0.0
 30
0.0
 70
9
  0
VERTEX
  8
0
 10
0.0
 20
-23.1
 30
0.0
  0
VERTEX
  8
0
 10
8.5
 20
-23.1
 30
0.0
  0
VERTEX
  8
0
 10
8.5
 20
-21.1
 30
0.0
  0
VERTEX
  8
0
 10
0.0
 20
-21.1
 30
0.0
  0
SEQEND
  0
CIRCLE
  8
0
 10
7.5
 20
-22.1
 30
0.0
 40
0.5
  0
TEXT
  8
0
 10
0.5
 20
-22.6
 30
0.0
 40
1.0
  1
FIN-82
  0
POLYLINE
 62
256
  8
0
 66
1
 10
0.0
 20
0.0
 30
0.0
 70
9
  0
VERTEX
  8
0
 10
8.6
 20
-23.1
 30
0.0
  0
VERTEX
  8
0
 10
17.1
 20
-23.1
 30
0.0
  0
VERTEX
  8
0
 10
17.1
 20
-21.1
 30
0.0
  0
VERTEX
  8
0
 10
8.6
 20
-21.1
 30
0.0
  0
SEQEND
  0
CIRCLE
  8
0
 10
16.1
 20
-22.1
 30
0.0
 40
0.5
  0
TEXT
  8
0
 10
9.1
 20
-22.6
 30
0.0
 40
1.0
  1
FIN-820
  0
POLYLINE
 62
256
  8
0
 66
1
 10
0.0
 20
0.0
 30
0.0
 70
9
  0
VERTEX
  8
0
 10
17.200000000000003
 20
-23.1
 30
0.0
  0
VERTEX
  8
0
 10
25.700000000000003
 20
-23.1
 30
0.0
  0
VERTEX
  8
0
 10
25.700000000000003
 20
-21.1
 30
0.0
  0
VERTEX
  8
0
 10
17.200000000000003
 20
-21.1
 30
0.0
  0
SEQEND
  0
CIRCLE
  8
0
 10
24.700000000000003
 20
-22.1
 30
0.0
 40
0.5
  0
TEXT
  8
0
 10
17.700000000000003
 20
-22.6
 30
0.0
 40
1.0
  1
FIN-821
  0
POLYLINE
 62
256
  8
0
 66
1
 10
0.0
 20
0.0
 30
0.0
 70
9
  0
VERTEX
  8
0
 10
25.800000000000004
 20
-23.1
 30
0.0
  0
VERTEX
  8
0
 10
34.300000000000004
 20
-23.1
 30
0.0
  0
VERTEX
  8
0
 10
34.300000000000004
 20
-21.1
 30
0.0
  0
VERTEX
  8
0
 10
25.800000000000004
 20
-21.1
 30
0.0
  0
SEQEND
  0
CIRCLE
  8
0
 10
33.300000000000004
 20
-22.1
 30
0.0
 40
0.5
  0
TEXT
  8
0
 10
26.300000000000004
 20
-22.6
 30
0.0
 40
1.0
  1
FIN-822
  0
POLYLINE
 62
256
  8
0
 66
1
 10
0.0
 20
0.0
 30
0.0
 70
9
  0
VERTEX
  8
0
 10
34.400000000000006
 20
-23.1
 30
0.0
  0
VERTEX
  8
0
 10
42.900000000000006
 20
-23.1
 30
0.0
  0
VERTEX
  8
0
 10
42.900000000000006
 20
-21.1
 30
0.0
  0
VERTEX
  8
0
 10
34.400000000000006
 20
-21.1
 30
0.0
  0
SEQEND
  0
CIRCLE
  8
0
 10
41.900000000000006
 20
-22.1
 30
0.0
 40
0.5
  0
TEXT
  8
0
 10
34.900000000000006
 20
-22.6
 30
0.0
 40
1.0
  1
FIN-823
  0
POLYLINE
 62
256
  8
0
 66
1
 10
0.0
 20
0.0
 30
0.0
 70
9
  0
VERTEX
  8
0
 10
43.00000000000001
 20
-23.1
 30
0.0
  0
VERTEX
  8
0
 10
51.50000000000001
 20
-23.1
 30
0.0
  0
VERTEX
  8
0
 10
51.50000000000001
 20
-21.1
 30
0.0
  0
VERTEX
  8
0
 10
43.00000000000001
 20
-21.1
 30
0.0
  0
SEQEND
  0
CIRCLE
  8
0
 10
50.50000000000001
 20
-22.1
 30
0.0
 40
0.5
  0
TEXT
  8
0
 10
43.50000000000001
 20
-22.6
 30
0.0
 40
1.0
  1
FIN-824
  0
POLYLINE
 62
256
  8
0
 66
1
 10
0.0
 20
0.0
 30
0.0
 70
9
  0
VERTEX
  8
0
 10
51.60000000000001
 20
-23.1
 30
0.0
  0
VERTEX
  8
0
 10
60.10000000000001
 20
-23.1
 30
0.0
  0
VERTEX
  8
0
 10
60.10000000000001
 20
-21.1
 30
0.0
  0
VERTEX
  8
0
 10
51.60000000000001
 20
-21.1
 30
0.0
  0
SEQEND
  0
CIRCLE
  8
0
 10
59.10000000000001
 20
-22.1
 30
0.0
 40
0.5
  0
TEXT
  8
0
 10
52.10000000000001
 20
-22.6
 30
0.0
 40
1.0
  1
FIN-825
  0
POLYLINE
 62
256
  8
0
 66
1
 10
0.0
 20
0.0
 30
0.0
 70
9
  0
VERTEX
  8
0
 10
60.20000000000001
 20
-23.1
 30
0.0
  0
VERTEX
  8
0
 10
68.70000000000002
 20
-23.1
 30
0.0
  0
VERTEX
  8
0
 10
68.70000000000002
 20
-21.1
 30
0.0
  0
VERTEX
  8
0
 10
60.20000000000001
 20
-21.1
 30
0.0
  0
SEQEND
  0
CIRCLE
  8
0
 10
67.70000000000002
 20
-22.1
 30
0.0
 40
0.5
  0
TEXT
  8
0
 10
60.70000000000001
 20
-22.6
 30
0.0
 40
1.0
  1
FIN-826
  0
POLYLINE
 62
256
  8
0
 66
1
 10
0.0
 20
0.0
 30
0.0
 70
9
  0
VERTEX
  8
0
 10
68.80000000000001
 20
-23.1
 30
0.0
  0
VERTEX
  8
0
 10
77.30000000000001
 20
-23.1
 30
0.0
  0
VERTEX
  8
0
 10
77.30000000000001
 20
-21.1
 30
0.0
  0
VERTEX
  8
0
 10
68.80000000000001
 20
-21.1
 30
0.0
  0
SEQEND
  0
CIRCLE
  8
0
 10
76.30000000000001
 20
-22.1
 30
0.0
 40
0.5
  0
TEXT
  8
0
 10
69.30000000000001
 20
-22.6
 30
0.0
 40
1.0
  1
FIN-827
  0
POLYLINE
 62
256
  8
0
 66
1
 10
0.0
 20
0.0
 30
0.0
 70
9
  0
VERTEX
  8
0
 10
77.4
 20
-23.1
 30
0.0
  0
VERTEX
  8
0
 10
85.9
 20
-23.1
 30
0.0
  0
VERTEX
  8
0
 10
85.9
 20
-21.1
 30
0.0
  0
VERTEX
  8
0
 10
77.4
 20
-21.1
 30
0.0
  0
SEQEND
  0
CIRCLE
  8
0
 10
84.9
 20
-22.1
 30
0.0
 40
0.5
  0
TEXT
  8
0
 10
77.9
 20
-22.6
 30
0.0
 40
1.0
  1
FIN-828
  0
POLYLINE
 62
256
  8
0
 66
1
 10
0.0
 20
0.0
 30
0.0
 70
9
  0
VERTEX
  8
0
 10
86.0
 20
-23.1
 30
0.0
  0
VERTEX
  8
0
 10
94.5
 20
-23.1
 30
0.0
  0
VERTEX
  8
0
 10
94.5
 20
-21.1
 30
0.0
  0
VERTEX
  8
0
 10
86.0
 20
-21.1
 30
0.0
  0
SEQEND
  0
CIRCLE
  8
0
 10
93.5
 20
-22.1
 30
0.0
 40
0.5
  0
TEXT
  8
0
 10
86.5
 20
-22.6
 30
0.0
 40
1.0
  1
FIN-829
  0
POLYLINE
 62
256
  8
0
 66
1
 10
0.0
 20
0.0
 30
0.0
 70
9
  0
VERTEX
  8
0
 10
0.0
 20
-25.200000000000003
 30
0.0
  0
VERTEX
  8
0
 10
8.5
 20
-25.200000000000003
 30
0.0
  0
VERTEX
  8
0
 10
8.5
 20
-23.200000000000003
 30
0.0
  0
VERTEX
  8
0
 10
0.0
 20
-23.200000000000003
 30
0.0
  0
SEQEND
  0
CIRCLE
  8
0
 10
7.5
 20
-24.200000000000003
 30
0.0
 40
0.5
  0
TEXT
  8
0
 10
0.5
 20
-24.700000000000003
 30
0.0
 40
1.0
  1
FIN-83
  0
POLYLINE
 62
256
  8
0
 66
1
 10
0.0
 20
0.0
 30
0.0
 70
9
  0
VERTEX
  8
0
 10
8.6
 20
-25.200000000000003
 30
0.0
  0
VERTEX
  8
0
 10
17.1
 20
-25.200000000000003
 30
0.0
  0
VERTEX
  8
0
 10
17.1
 20
-23.200000000000003
 30
0.0
  0
VERTEX
  8
0
 10
8.6
 20
-23.200000000000003
 30
0.0
  0
SEQEND
  0
CIRCLE
  8
0
 10
16.1
 20
-24.200000000000003
 30
0.0
 40
0.5
  0
TEXT
  8
0
 10
9.1
 20
-24.700000000000003
 30
0.0
 40
1.0
  1
FIN-830
  0
POLYLINE
 62
256
  8
0
 66
1
 10
0.0
 20
0.0
 30
0.0
 70
9
  0
VERTEX
  8
0
 10
17.200000000000003
 20
-25.200000000000003
 30
0.0
  0
VERTEX
  8
0
 10
25.700000000000003
 20
-25.200000000000003
 30
0.0
  0
VERTEX
  8
0
 10
25.700000000000003
 20
-23.200000000000003
 30
0.0
  0
VERTEX
  8
0
 10
17.200000000000003
 20
-23.200000000000003
 30
0.0
  0
SEQEND
  0
CIRCLE
  8
0
 10
24.700000000000003
 20
-24.200000000000003
 30
0.0
 40
0.5
  0
TEXT
  8
0
 10
17.700000000000003
 20
-24.700000000000003
 30
0.0
 40
1.0
  1
FIN-831
  0
POLYLINE
 62
256
  8
0
 66
1
 10
0.0
 20
0.0
 30
0.0
 70
9
  0
VERTEX
  8
0
 10
25.800000000000004
 20
-25.200000000000003
 30
0.0
  0
VERTEX
  8
0
 10
34.300000000000004
 20
-25.200000000000003
 30
0.0
  0
VERTEX
  8
0
 10
34.300000000000004
 20
-23.200000000000003
 30
0.0
  0
VERTEX
  8
0
 10
25.800000000000004
 20
-23.200000000000003
 30
0.0
  0
SEQEND
  0
CIRCLE
  8
0
 10
33.300000000000004
 20
-24.200000000000003
 30
0.0
 40
0.5
  0
TEXT
  8
0
 10
26.300000000000004
 20
-24.700000000000003
 30
0.0
 40
1.0
  1
FIN-832
  0
POLYLINE
 62
256
  8
0
 66
1
 10
0.0
 20
0.0
 30
0.0
 70
9
  0
VERTEX
  8
0
 10
34.400000000000006
 20
-25.200000000000003
 30
0.0
  0
VERTEX
  8
0
 10
42.900000000000006
 20
-25.200000000000003
 30
0.0
  0
VERTEX
  8
0
 10
42.900000000000006
 20
-23.200000000000003
 30
0.0
  0
VERTEX
  8
0
 10
34.400000000000006
 20
-23.200000000000003
 30
0.0
  0
SEQEND
  0
CIRCLE
  8
0
 10
41.900000000000006
 20
-24.200000000000003
 30
0.0
 40
0.5
  0
TEXT
  8
0
 10
34.900000000000006
 20
-24.700000000000003
 30
0.0
 40
1.0
  1
FIN-833
  0
POLYLINE
 62
256
  8
0
 66
1
 10
0.0
 20
0.0
 30
0.0
 70
9
  0
VERTEX
  8
0
 10
43.00000000000001
 20
-25.200000000000003
 30
0.0
  0
VERTEX
  8
0
 10
51.50000000000001
 20
-25.200000000000003
 30
0.0
  0
VERTEX
  8
0
 10
51.50000000000001
 20
-23.200000000000003
 30
0.0
  0
VERTEX
  8
0
 10
43.00000000000001
 20
-23.200000000000003
 30
0.0
  0
SEQEND
  0
CIRCLE
  8
0
 10
50.50000000000001
 20
-24.200000000000003
 30
0.0
 40
0.5
  0
TEXT
  8
0
 10
43.50000000000001
 20
-24.700000000000003
 30
0.0
 40
1.0
  1
FIN-834
  0
POLYLINE
 62
256
  8
0
 66
1
 10
0.0
 20
0.0
 30
0.0
 70
9
  0
VERTEX
  8
0
 10
51.60000000000001
 20
-25.200000000000003
 30
0.0
  0
VERTEX
  8
0
 10
60.10000000000001
 20
-25.200000000000003
 30
0.0
  0
VERTEX
  8
0
 10
60.10000000000001
 20
-23.200000000000003
 30
0.0
  0
VERTEX
  8
0
 10
51.60000000000001
 20
-23.200000000000003
 30
0.0
  0
SEQEND
  0
CIRCLE
  8
0
 10
59.10000000000001
 20
-24.200000000000003
 30
0.0
 40
0.5
  0
TEXT
  8
0
 10
52.10000000000001
 20
-24.700000000000003
 30
0.0
 40
1.0
  1
FIN-835
  0
POLYLINE
 62
256
  8
0
 66
1
 10
0.0
 20
0.0
 30
0.0
 70
9
  0
VERTEX
  8
0
 10
60.20000000000001
 20
-25.200000000000003
 30
0.0
  0
VERTEX
  8
0
 10
68.70000000000002
 20
-25.200000000000003
 30
0.0
  0
VERTEX
  8
0
 10
68.70000000000002
 20
-23.200000000000003
 30
0.0
  0
VERTEX
  8
0
 10
60.20000000000001
 20
-23.200000000000003
 30
0.0
  0
SEQEND
  0
CIRCLE
  8
0
 10
67.70000000000002
 20
-24.200000000000003
 30
0.0
 40
0.5
  0
TEXT
  8
0
 10
60.70000000000001
 20
-24.700000000000003
 30
0.0
 40
1.0
  1
FIN-836
  0
POLYLINE
 62
256
  8
0
 66
1
 10
0.0
 20
0.0
 30
0.0
 70
9
  0
VERTEX
  8
0
 10
68.80000000000001
 20
-25.200000000000003
 30
0.0
  0
VERTEX
  8
0
 10
77.30000000000001
 20
-25.200000000000003
 30
0.0
  0
VERTEX
  8
0
 10
77.30000000000001
 20
-23.200000000000003
 30
0.0
  0
VERTEX
  8
0
 10
68.80000000000001
 20
-23.200000000000003
 30
0.0
  0
SEQEND
  0
CIRCLE
  8
0
 10
76.30000000000001
 20
-24.200000000000003
 30
0.0
 40
0.5
  0
TEXT
  8
0
 10
69.30000000000001
 20
-24.700000000000003
 30
0.0
 40
1.0
  1
FIN-837
  0
POLYLINE
 62
256
  8
0
 66
1
 10
0.0
 20
0.0
 30
0.0
 70
9
  0
VERTEX
  8
0
 10
77.4
 20
-25.200000000000003
 30
0.0
  0
VERTEX
  8
0
 10
85.9
 20
-25.200000000000003
 30
0.0
  0
VERTEX
  8
0
 10
85.9
 20
-23.200000000000003
 30
0.0
  0
VERTEX
  8
0
 10
77.4
 20
-23.200000000000003
 30
0.0
  0
SEQEND
  0
CIRCLE
  8
0
 10
84.9
 20
-24.200000000000003
 30
0.0
 40
0.5
  0
TEXT
  8
0
 10
77.9
 20
-24.700000000000003
 30
0.0
 40
1.0
  1
FIN-838
  0
POLYLINE
 62
256
  8
0
 66
1
 10
0.0
 20
0.0
 30
0.0
 70
9
  0
VERTEX
  8
0
 10
86.0
 20
-25.200000000000003
 30
0.0
  0
VERTEX
  8
0
 10
94.5
 20
-25.200000000000003
 30
0.0
  0
VERTEX
  8
0
 10
94.5
 20
-23.200000000000003
 30
0.0
  0
VERTEX
  8
0
 10
86.0
 20
-23.200000000000003
 30
0.0
  0
SEQEND
  0
CIRCLE
  8
0
 10
93.5
 20
-24.200000000000003
 30
0.0
 40
0.5
  0
TEXT
  8
0
 10
86.5
 20
-24.700000000000003
 30
0.0
 40
1.0
  1
FIN-839
  0
POLYLINE
 62
256
  8
0
 66
1
 10
0.0
 20
0.0
 30
0.0
 70
9
  0
VERTEX
  8
0
 10
0.0
 20
-27.300000000000004
 30
0.0
  0
VERTEX
  8
0
 10
8.5
 20
-27.300000000000004
 30
0.0
  0
VERTEX
  8
0
 10
8.5
 20
-25.300000000000004
 30
0.0
  0
VERTEX
  8
0
 10
0.0
 20
-25.300000000000004
 30
0.0
  0
SEQEND
  0
CIRCLE
  8
0
 10
7.5
 20
-26.300000000000004
 30
0.0
 40
0.5
  0
TEXT
  8
0
 10
0.5
 20
-26.800000000000004
 30
0.0
 40
1.0
  1
FIN-84
  0
POLYLINE
 62
256
  8
0
 66
1
 10
0.0
 20
0.0
 30
0.0
 70
9
  0
VERTEX
  8
0
 10
8.6
 20
-27.300000000000004
 30
0.0
  0
VERTEX
  8
0
 10
17.1
 20
-27.300000000000004
 30
0.0
  0
VERTEX
  8
0
 10
17.1
 20
-25.300000000000004
 30
0.0
  0
VERTEX
  8
0
 10
8.6
 20
-25.300000000000004
 30
0.0
  0
SEQEND
  0
CIRCLE
  8
0
 10
16.1
 20
-26.300000000000004
 30
0.0
 40
0.5
  0
TEXT
  8
0
 10
9.1
 20
-26.800000000000004
 30
0.0
 40
1.0
  1
FIN-840
  0
POLYLINE
 62
256
  8
0
 66
1
 10
0.0
 20
0.0
 30
0.0
 70
9
  0
VERTEX
  8
0
 10
17.200000000000003
 20
-27.300000000000004
 30
0.0
  0
VERTEX
  8
0
 10
25.700000000000003
 20
-27.300000000000004
 30
0.0
  0
VERTEX
  8
0
 10
25.700000000000003
 20
-25.300000000000004
 30
0.0
  0
VERTEX
  8
0
 10
17.200000000000003
 20
-25.300000000000004
 30
0.0
  0
SEQEND
  0
CIRCLE
  8
0
 10
24.700000000000003
 20
-26.300000000000004
 30
0.0
 40
0.5
  0
TEXT
  8
0
 10
17.700000000000003
 20
-26.800000000000004
 30
0.0
 40
1.0
  1
FIN-841
  0
POLYLINE
 62
256
  8
0
 66
1
 10
0.0
 20
0.0
 30
0.0
 70
9
  0
VERTEX
  8
0
 10
25.800000000000004
 20
-27.300000000000004
 30
0.0
  0
VERTEX
  8
0
 10
34.300000000000004
 20
-27.300000000000004
 30
0.0
  0
VERTEX
  8
0
 10
34.300000000000004
 20
-25.300000000000004
 30
0.0
  0
VERTEX
  8
0
 10
25.800000000000004
 20
-25.300000000000004
 30
0.0
  0
SEQEND
  0
CIRCLE
  8
0
 10
33.300000000000004
 20
-26.300000000000004
 30
0.0
 40
0.5
  0
TEXT
  8
0
 10
26.300000000000004
 20
-26.800000000000004
 30
0.0
 40
1.0
  1
FIN-842
  0
POLYLINE
 62
256
  8
0
 66
1
 10
0.0
 20
0.0
 30
0.0
 70
9
  0
VERTEX
  8
0
 10
34.400000000000006
 20
-27.300000000000004
 30
0.0
  0
VERTEX
  8
0
 10
42.900000000000006
 20
-27.300000000000004
 30
0.0
  0
VERTEX
  8
0
 10
42.900000000000006
 20
-25.300000000000004
 30
0.0
  0
VERTEX
  8
0
 10
34.400000000000006
 20
-25.300000000000004
 30
0.0
  0
SEQEND
  0
CIRCLE
  8
0
 10
41.900000000000006
 20
-26.300000000000004
 30
0.0
 40
0.5
  0
TEXT
  8
0
 10
34.900000000000006
 20
-26.800000000000004
 30
0.0
 40
1.0
  1
FIN-843
  0
POLYLINE
 62
256
  8
0
 66
1
 10
0.0
 20
0.0
 30
0.0
 70
9
  0
VERTEX
  8
0
 10
43.00000000000001
 20
-27.300000000000004
 30
0.0
  0
VERTEX
  8
0
 10
51.50000000000001
 20
-27.300000000000004
 30
0.0
  0
VERTEX
  8
0
 10
51.50000000000001
 20
-25.300000000000004
 30
0.0
  0
VERTEX
  8
0
 10
43.00000000000001
 20
-25.300000000000004
 30
0.0
  0
SEQEND
  0
CIRCLE
  8
0
 10
50.50000000000001
 20
-26.300000000000004
 30
0.0
 40
0.5
  0
TEXT
  8
0
 10
43.50000000000001
 20
-26.800000000000004
 30
0.0
 40
1.0
  1
FIN-844
  0
POLYLINE
 62
256
  8
0
 66
1
 10
0.0
 20
0.0
 30
0.0
 70
9
  0
VERTEX
  8
0
 10
51.60000000000001
 20
-27.300000000000004
 30
0.0
  0
VERTEX
  8
0
 10
60.10000000000001
 20
-27.300000000000004
 30
0.0
  0
VERTEX
  8
0
 10
60.10000000000001
 20
-25.300000000000004
 30
0.0
  0
VERTEX
  8
0
 10
51.60000000000001
 20
-25.300000000000004
 30
0.0
  0
SEQEND
  0
CIRCLE
  8
0
 10
59.10000000000001
 20
-26.300000000000004
 30
0.0
 40
0.5
  0
TEXT
  8
0
 10
52.10000000000001
 20
-26.800000000000004
 30
0.0
 40
1.0
  1
FIN-845
  0
POLYLINE
 62
256
  8
0
 66
1
 10
0.0
 20
0.0
 30
0.0
 70
9
  0
VERTEX
  8
0
 10
60.20000000000001
 20
-27.300000000000004
 30
0.0
  0
VERTEX
  8
0
 10
68.70000000000002
 20
-27.300000000000004
 30
0.0
  0
VERTEX
  8
0
 10
68.70000000000002
 20
-25.300000000000004
 30
0.0
  0
VERTEX
  8
0
 10
60.20000000000001
 20
-25.300000000000004
 30
0.0
  0
SEQEND
  0
CIRCLE
  8
0
 10
67.70000000000002
 20
-26.300000000000004
 30
0.0
 40
0.5
  0
TEXT
  8
0
 10
60.70000000000001
 20
-26.800000000000004
 30
0.0
 40
1.0
  1
FIN-846
  0
POLYLINE
 62
256
  8
0
 66
1
 10
0.0
 20
0.0
 30
0.0
 70
9
  0
VERTEX
  8
0
 10
68.80000000000001
 20
-27.300000000000004
 30
0.0
  0
VERTEX
  8
0
 10
77.30000000000001
 20
-27.300000000000004
 30
0.0
  0
VERTEX
  8
0
 10
77.30000000000001
 20
-25.300000000000004
 30
0.0
  0
VERTEX
  8
0
 10
68.80000000000001
 20
-25.300000000000004
 30
0.0
  0
SEQEND
  0
CIRCLE
  8
0
 10
76.30000000000001
 20
-26.300000000000004
 30
0.0
 40
0.5
  0
TEXT
  8
0
 10
69.30000000000001
 20
-26.800000000000004
 30
0.0
 40
1.0
  1
FIN-847
  0
POLYLINE
 62
256
  8
0
 66
1
 10
0.0
 20
0.0
 30
0.0
 70
9
  0
VERTEX
  8
0
 10
77.4
 20
-27.300000000000004
 30
0.0
  0
VERTEX
  8
0
 10
85.9
 20
-27.300000000000004
 30
0.0
  0
VERTEX
  8
0
 10
85.9
 20
-25.300000000000004
 30
0.0
  0
VERTEX
  8
0
 10
77.4
 20
-25.300000000000004
 30
0.0
  0
SEQEND
  0
CIRCLE
  8
0
 10
84.9
 20
-26.300000000000004
 30
0.0
 40
0.5
  0
TEXT
  8
0
 10
77.9
 20
-26.800000000000004
 30
0.0
 40
1.0
  1
FIN-848
  0
POLYLINE
 62
256
  8
0
 66
1
 10
0.0
 20
0.0
 30
0.0
 70
9
  0
VERTEX
  8
0
 10
86.0
 20
-27.300000000000004
 30
0.0
  0
VERTEX
  8
0
 10
94.5
 20
-27.300000000000004
 30
0.0
  0
VERTEX
  8
0
 10
94.5
 20
-25.300000000000004
 30
0.0
  0
VERTEX
  8
0
 10
86.0
 20
-25.300000000000004
 30
0.0
  0
SEQEND
  0
CIRCLE
  8
0
 10
93.5
 20
-26.300000000000004
 30
0.0
 40
0.5
  0
TEXT
  8
0
 10
86.5
 20
-26.800000000000004
 30
0.0
 40
1.0
  1
FIN-849
  0
POLYLINE
 62
256
  8
0
 66
1
 10
0.0
 20
0.0
 30
0.0
 70
9
  0
VERTEX
  8
0
 10
0.0
 20
-29.400000000000006
 30
0.0
  0
VERTEX
  8
0
 10
8.5
 20
-29.400000000000006
 30
0.0
  0
VERTEX
  8
0
 10
8.5
 20
-27.400000000000006
 30
0.0
  0
VERTEX
  8
0
 10
0.0
 20
-27.400000000000006
 30
0.0
  0
SEQEND
  0
CIRCLE
  8
0
 10
7.5
 20
-28.400000000000006
 30
0.0
 40
0.5
  0
TEXT
  8
0
 10
0.5
 20
-28.900000000000006
 30
0.0
 40
1.0
  1
FIN-85
  0
POLYLINE
 62
256
  8
0
 66
1
 10
0.0
 20
0.0
 30
0.0
 70
9
  0
VERTEX
  8
0
 10
8.6
 20
-29.400000000000006
 30
0.0
  0
VERTEX
  8
0
 10
17.1
 20
-29.400000000000006
 30
0.0
  0
VERTEX
  8
0
 10
17.1
 20
-27.400000000000006
 30
0.0
  0
VERTEX
  8
0
 10
8.6
 20
-27.400000000000006
 30
0.0
  0
SEQEND
  0
CIRCLE
  8
0
 10
16.1
 20
-28.400000000000006
 30
0.0
 40
0.5
  0
TEXT
  8
0
 10
9.1
 20
-28.900000000000006
 30
0.0
 40
1.0
  1
FIN-850
  0
POLYLINE
 62
256
  8
0
 66
1
 10
0.0
 20
0.0
 30
0.0
 70
9
  0
VERTEX
  8
0
 10
17.200000000000003
 20
-29.400000000000006
 30
0.0
  0
VERTEX
  8
0
 10
25.700000000000003
 20
-29.400000000000006
 30
0.0
  0
VERTEX
  8
0
 10
25.700000000000003
 20
-27.400000000000006
 30
0.0
  0
VERTEX
  8
0
 10
17.200000000000003
 20
-27.400000000000006
 30
0.0
  0
SEQEND
  0
CIRCLE
  8
0
 10
24.700000000000003
 20
-28.400000000000006
 30
0.0
 40
0.5
  0
TEXT
  8
0
 10
17.700000000000003
 20
-28.900000000000006
 30
0.0
 40
1.0
  1
FIN-851
  0
POLYLINE
 62
256
  8
0
 66
1
 10
0.0
 20
0.0
 30
0.0
 70
9
  0
VERTEX
  8
0
 10
25.800000000000004
 20
-29.400000000000006
 30
0.0
  0
VERTEX
  8
0
 10
34.300000000000004
 20
-29.400000000000006
 30
0.0
  0
VERTEX
  8
0
 10
34.300000000000004
 20
-27.400000000000006
 30
0.0
  0
VERTEX
  8
0
 10
25.800000000000004
 20
-27.400000000000006
 30
0.0
  0
SEQEND
  0
CIRCLE
  8
0
 10
33.300000000000004
 20
-28.400000000000006
 30
0.0
 40
0.5
  0
TEXT
  8
0
 10
26.300000000000004
 20
-28.900000000000006
 30
0.0
 40
1.0
  1
FIN-852
  0
POLYLINE
 62
256
  8
0
 66
1
 10
0.0
 20
0.0
 30
0.0
 70
9
  0
VERTEX
  8
0
 10
34.400000000000006
 20
-29.400000000000006
 30
0.0
  0
VERTEX
  8
0
 10
42.900000000000006
 20
-29.400000000000006
 30
0.0
  0
VERTEX
  8
0
 10
42.900000000000006
 20
-27.400000000000006
 30
0.0
  0
VERTEX
  8
0
 10
34.400000000000006
 20
-27.400000000000006
 30
0.0
  0
SEQEND
  0
CIRCLE
  8
0
 10
41.900000000000006
 20
-28.400000000000006
 30
0.0
 40
0.5
  0
TEXT
  8
0
 10
34.900000000000006
 20
-28.900000000000006
 30
0.0
 40
1.0
  1
FIN-853
  0
POLYLINE
 62
256
  8
0
 66
1
 10
0.0
 20
0.0
 30
0.0
 70
9
  0
VERTEX
  8
0
 10
43.00000000000001
 20
-29.400000000000006
 30
0.0
  0
VERTEX
  8
0
 10
51.50000000000001
 20
-29.400000000000006
 30
0.0
  0
VERTEX
  8
0
 10
51.50000000000001
 20
-27.400000000000006
 30
0.0
  0
VERTEX
  8
0
 10
43.00000000000001
 20
-27.400000000000006
 30
0.0
  0
SEQEND
  0
CIRCLE
  8
0
 10
50.50000000000001
 20
-28.400000000000006
 30
0.0
 40
0.5
  0
TEXT
  8
0
 10
43.50000000000001
 20
-28.900000000000006
 30
0.0
 40
1.0
  1
FIN-854
  0
POLYLINE
 62
256
  8
0
 66
1
 10
0.0
 20
0.0
 30
0.0
 70
9
  0
VERTEX
  8
0
 10
51.60000000000001
 20
-29.400000000000006
 30
0.0
  0
VERTEX
  8
0
 10
60.10000000000001
 20
-29.400000000000006
 30
0.0
  0
VERTEX
  8
0
 10
60.10000000000001
 20
-27.400000000000006
 30
0.0
  0
VERTEX
  8
0
 10
51.60000000000001
 20
-27.400000000000006
 30
0.0
  0
SEQEND
  0
CIRCLE
  8
0
 10
59.10000000000001
 20
-28.400000000000006
 30
0.0
 40
0.5
  0
TEXT
  8
0
 10
52.10000000000001
 20
-28.900000000000006
 30
0.0
 40
1.0
  1
FIN-855
  0
POLYLINE
 62
256
  8
0
 66
1
 10
0.0
 20
0.0
 30
0.0
 70
9
  0
VERTEX
  8
0
 10
60.20000000000001
 20
-29.400000000000006
 30
0.0
  0
VERTEX
  8
0
 10
68.70000000000002
 20
-29.400000000000006
 30
0.0
  0
VERTEX
  8
0
 10
68.70000000000002
 20
-27.400000000000006
 30
0.0
  0
VERTEX
  8
0
 10
60.20000000000001
 20
-27.400000000000006
 30
0.0
  0
SEQEND
  0
CIRCLE
  8
0
 10
67.70000000000002
 20
-28.400000000000006
 30
0.0
 40
0.5
  0
TEXT
  8
0
 10
60.70000000000001
 20
-28.900000000000006
 30
0.0
 40
1.0
  1
FIN-856
  0
POLYLINE
 62
256
  8
0
 66
1
 10
0.0
 20
0.0
 30
0.0
 70
9
  0
VERTEX
  8
0
 10
68.80000000000001
 20
-29.400000000000006
 30
0.0
  0
VERTEX
  8
0
 10
77.30000000000001
 20
-29.400000000000006
 30
0.0
  0
VERTEX
  8
0
 10
77.30000000000001
 20
-27.400000000000006
 30
0.0
  0
VERTEX
  8
0
 10
68.80000000000001
 20
-27.400000000000006
 30
0.0
  0
SEQEND
  0
CIRCLE
  8
0
 10
76.30000000000001
 20
-28.400000000000006
 30
0.0
 40
0.5
  0
TEXT
  8
0
 10
69.30000000000001
 20
-28.900000000000006
 30
0.0
 40
1.0
  1
FIN-857
  0
POLYLINE
 62
256
  8
0
 66
1
 10
0.0
 20
0.0
 30
0.0
 70
9
  0
VERTEX
  8
0
 10
77.4
 20
-29.400000000000006
 30
0.0
  0
VERTEX
  8
0
 10
85.9
 20
-29.400000000000006
 30
0.0
  0
VERTEX
  8
0
 10
85.9
 20
-27.400000000000006
 30
0.0
  0
VERTEX
  8
0
 10
77.4
 20
-27.400000000000006
 30
0.0
  0
SEQEND
  0
CIRCLE
  8
0
 10
84.9
 20
-28.400000000000006
 30
0.0
 40
0.5
  0
TEXT
  8
0
 10
77.9
 20
-28.900000000000006
 30
0.0
 40
1.0
  1
FIN-858
  0
POLYLINE
 62
256
  8
0
 66
1
 10
0.0
 20
0.0
 30
0.0
 70
9
  0
VERTEX
  8
0
 10
86.0
 20
-29.400000000000006
 30
0.0
  0
VERTEX
  8
0
 10
94.5
 20
-29.400000000000006
 30
0.0
  0
VERTEX
  8
0
 10
94.5
 20
-27.400000000000006
 30
0.0
  0
VERTEX
  8
0
 10
86.0
 20
-27.400000000000006
 30
0.0
  0
SEQEND
  0
CIRCLE
  8
0
 10
93.5
 20
-28.400000000000006
 30
0.0
 40
0.5
  0
TEXT
  8
0
 10
86.5
 20
-28.900000000000006
 30
0.0
 40
1.0
  1
FIN-859
  0
POLYLINE
 62
256
  8
0
 66
1
 10
0.0
 20
0.0
 30
0.0
 70
9
  0
VERTEX
  8
0
 10
0.0
 20
-31.500000000000007
 30
0.0
  0
VERTEX
  8
0
 10
8.5
 20
-31.500000000000007
 30
0.0
  0
VERTEX
  8
0
 10
8.5
 20
-29.500000000000007
 30
0.0
  0
VERTEX
  8
0
 10
0.0
 20
-29.500000000000007
 30
0.0
  0
SEQEND
  0
CIRCLE
  8
0
 10
7.5
 20
-30.500000000000007
 30
0.0
 40
0.5
  0
TEXT
  8
0
 10
0.5
 20
-31.000000000000007
 30
0.0
 40
1.0
  1
FIN-86
  0
POLYLINE
 62
256
  8
0
 66
1
 10
0.0
 20
0.0
 30
0.0
 70
9
  0
VERTEX
  8
0
 10
8.6
 20
-31.500000000000007
 30
0.0
  0
VERTEX
  8
0
 10
17.1
 20
-31.500000000000007
 30
0.0
  0
VERTEX
  8
0
 10
17.1
 20
-29.500000000000007
 30
0.0
  0
VERTEX
  8
0
 10
8.6
 20
-29.500000000000007
 30
0.0
  0
SEQEND
  0
CIRCLE
  8
0
 10
16.1
 20
-30.500000000000007
 30
0.0
 40
0.5
  0
TEXT
  8
0
 10
9.1
 20
-31.000000000000007
 30
0.0
 40
1.0
  1
FIN-860
  0
POLYLINE
 62
256
  8
0
 66
1
 10
0.0
 20
0.0
 30
0.0
 70
9
  0
VERTEX
  8
0
 10
17.200000000000003
 20
-31.500000000000007
 30
0.0
  0
VERTEX
  8
0
 10
25.700000000000003
 20
-31.500000000000007
 30
0.0
  0
VERTEX
  8
0
 10
25.700000000000003
 20
-29.500000000000007
 30
0.0
  0
VERTEX
  8
0
 10
17.200000000000003
 20
-29.500000000000007
 30
0.0
  0
SEQEND
  0
CIRCLE
  8
0
 10
24.700000000000003
 20
-30.500000000000007
 30
0.0
 40
0.5
  0
TEXT
  8
0
 10
17.700000000000003
 20
-31.000000000000007
 30
0.0
 40
1.0
  1
FIN-861
  0
POLYLINE
 62
256
  8
0
 66
1
 10
0.0
 20
0.0
 30
0.0
 70
9
  0
VERTEX
  8
0
 10
25.800000000000004
 20
-31.500000000000007
 30
0.0
  0
VERTEX
  8
0
 10
34.300000000000004
 20
-31.500000000000007
 30
0.0
  0
VERTEX
  8
0
 10
34.300000000000004
 20
-29.500000000000007
 30
0.0
  0
VERTEX
  8
0
 10
25.800000000000004
 20
-29.500000000000007
 30
0.0
  0
SEQEND
  0
CIRCLE
  8
0
 10
33.300000000000004
 20
-30.500000000000007
 30
0.0
 40
0.5
  0
TEXT
  8
0
 10
26.300000000000004
 20
-31.000000000000007
 30
0.0
 40
1.0
  1
FIN-862
  0
POLYLINE
 62
256
  8
0
 66
1
 10
0.0
 20
0.0
 30
0.0
 70
9
  0
VERTEX
  8
0
 10
34.400000000000006
 20
-31.500000000000007
 30
0.0
  0
VERTEX
  8
0
 10
42.900000000000006
 20
-31.500000000000007
 30
0.0
  0
VERTEX
  8
0
 10
42.900000000000006
 20
-29.500000000000007
 30
0.0
  0
VERTEX
  8
0
 10
34.400000000000006
 20
-29.500000000000007
 30
0.0
  0
SEQEND
  0
CIRCLE
  8
0
 10
41.900000000000006
 20
-30.500000000000007
 30
0.0
 40
0.5
  0
TEXT
  8
0
 10
34.900000000000006
 20
-31.000000000000007
 30
0.0
 40
1.0
  1
FIN-863
  0
POLYLINE
 62
256
  8
0
 66
1
 10
0.0
 20
0.0
 30
0.0
 70
9
  0
VERTEX
  8
0
 10
43.00000000000001
 20
-31.500000000000007
 30
0.0
  0
VERTEX
  8
0
 10
51.50000000000001
 20
-31.500000000000007
 30
0.0
  0
VERTEX
  8
0
 10
51.50000000000001
 20
-29.500000000000007
 30
0.0
  0
VERTEX
  8
0
 10
43.00000000000001
 20
-29.500000000000007
 30
0.0
  0
SEQEND
  0
CIRCLE
  8
0
 10
50.50000000000001
 20
-30.500000000000007
 30
0.0
 40
0.5
  0
TEXT
  8
0
 10
43.50000000000001
 20
-31.000000000000007
 30
0.0
 40
1.0
  1
FIN-864
  0
POLYLINE
 62
256
  8
0
 66
1
 10
0.0
 20
0.0
 30
0.0
 70
9
  0
VERTEX
  8
0
 10
51.60000000000001
 20
-31.500000000000007
 30
0.0
  0
VERTEX
  8
0
 10
60.10000000000001
 20
-31.500000000000007
 30
0.0
  0
VERTEX
  8
0
 10
60.10000000000001
 20
-29.500000000000007
 30
0.0
  0
VERTEX
  8
0
 10
51.60000000000001
 20
-29.500000000000007
 30
0.0
  0
SEQEND
  0
CIRCLE
  8
0
 10
59.10000000000001
 20
-30.500000000000007
 30
0.0
 40
0.5
  0
TEXT
  8
0
 10
52.10000000000001
 20
-31.000000000000007
 30
0.0
 40
1.0
  1
FIN-865
  0
POLYLINE
 62
256
  8
0
 66
1
 10
0.0
 20
0.0
 30
0.0
 70
9
  0
VERTEX
  8
0
 10
60.20000000000001
 20
-31.500000000000007
 30
0.0
  0
VERTEX
  8
0
 10
68.70000000000002
 20
-31.500000000000007
 30
0.0
  0
VERTEX
  8
0
 10
68.70000000000002
 20
-29.500000000000007
 30
0.0
  0
VERTEX
  8
0
 10
60.20000000000001
 20
-29.500000000000007
 30
0.0
  0
SEQEND
  0
CIRCLE
  8
0
 10
67.70000000000002
 20
-30.500000000000007
 30
0.0
 40
0.5
  0
TEXT
  8
0
 10
60.70000000000001
 20
-31.000000000000007
 30
0.0
 40
1.0
  1
FIN-866
  0
POLYLINE
 62
256
  8
0
 66
1
 10
0.0
 20
0.0
 30
0.0
 70
9
  0
VERTEX
  8
0
 10
68.80000000000001
 20
-31.500000000000007
 30
0.0
  0
VERTEX
  8
0
 10
77.30000000000001
 20
-31.500000000000007
 30
0.0
  0
VERTEX
  8
0
 10
77.30000000000001
 20
-29.500000000000007
 30
0.0
  0
VERTEX
  8
0
 10
68.80000000000001
 20
-29.500000000000007
 30
0.0
  0
SEQEND
  0
CIRCLE
  8
0
 10
76.30000000000001
 20
-30.500000000000007
 30
0.0
 40
0.5
  0
TEXT
  8
0
 10
69.30000000000001
 20
-31.000000000000007
 30
0.0
 40
1.0
  1
FIN-867
  0
POLYLINE
 62
256
  8
0
 66
1
 10
0.0
 20
0.0
 30
0.0
 70
9
  0
VERTEX
  8
0
 10
77.4
 20
-31.500000000000007
 30
0.0
  0
VERTEX
  8
0
 10
85.9
 20
-31.500000000000007
 30
0.0
  0
VERTEX
  8
0
 10
85.9
 20
-29.500000000000007
 30
0.0
  0
VERTEX
  8
0
 10
77.4
 20
-29.500000000000007
 30
0.0
  0
SEQEND
  0
CIRCLE
  8
0
 10
84.9
 20
-30.500000000000007
 30
0.0
 40
0.5
  0
TEXT
  8
0
 10
77.9
 20
-31.000000000000007
 30
0.0
 40
1.0
  1
FIN-868
  0
POLYLINE
 62
256
  8
0
 66
1
 10
0.0
 20
0.0
 30
0.0
 70
9
  0
VERTEX
  8
0
 10
86.0
 20
-31.500000000000007
 30
0.0
  0
VERTEX
  8
0
 10
94.5
 20
-31.500000000000007
 30
0.0
  0
VERTEX
  8
0
 10
94.5
 20
-29.500000000000007
 30
0.0
  0
VERTEX
  8
0
 10
86.0
 20
-29.500000000000007
 30
0.0
  0
SEQEND
  0
CIRCLE
  8
0
 10
93.5
 20
-30.500000000000007
 30
0.0
 40
0.5
  0
TEXT
  8
0
 10
86.5
 20
-31.000000000000007
 30
0.0
 40
1.0
  1
FIN-869
  0
POLYLINE
 62
256
  8
0
 66
1
 10
0.0
 20
0.0
 30
0.0
 70
9
  0
VERTEX
  8
0
 10
0.0
 20
-33.60000000000001
 30
0.0
  0
VERTEX
  8
0
 10
8.5
 20
-33.60000000000001
 30
0.0
  0
VERTEX
  8
0
 10
8.5
 20
-31.60000000000001
 30
0.0
  0
VERTEX
  8
0
 10
0.0
 20
-31.60000000000001
 30
0.0
  0
SEQEND
  0
CIRCLE
  8
0
 10
7.5
 20
-32.60000000000001
 30
0.0
 40
0.5
  0
TEXT
  8
0
 10
0.5
 20
-33.10000000000001
 30
0.0
 40
1.0
  1
FIN-87
  0
POLYLINE
 62
256
  8
0
 66
1
 10
0.0
 20
0.0
 30
0.0
 70
9
  0
VERTEX
  8
0
 10
8.6
 20
-33.60000000000001
 30
0.0
  0
VERTEX
  8
0
 10
17.1
 20
-33.60000000000001
 30
0.0
  0
VERTEX
  8
0
 10
17.1
 20
-31.60000000000001
 30
0.0
  0
VERTEX
  8
0
 10
8.6
 20
-31.60000000000001
 30
0.0
  0
SEQEND
  0
CIRCLE
  8
0
 10
16.1
 20
-32.60000000000001
 30
0.0
 40
0.5
  0
TEXT
  8
0
 10
9.1
 20
-33.10000000000001
 30
0.0
 40
1.0
  1
FIN-870
  0
POLYLINE
 62
256
  8
0
 66
1
 10
0.0
 20
0.0
 30
0.0
 70
9
  0
VERTEX
  8
0
 10
17.200000000000003
 20
-33.60000000000001
 30
0.0
  0
VERTEX
  8
0
 10
25.700000000000003
 20
-33.60000000000001
 30
0.0
  0
VERTEX
  8
0
 10
25.700000000000003
 20
-31.60000000000001
 30
0.0
  0
VERTEX
  8
0
 10
17.200000000000003
 20
-31.60000000000001
 30
0.0
  0
SEQEND
  0
CIRCLE
  8
0
 10
24.700000000000003
 20
-32.60000000000001
 30
0.0
 40
0.5
  0
TEXT
  8
0
 10
17.700000000000003
 20
-33.10000000000001
 30
0.0
 40
1.0
  1
FIN-871
  0
POLYLINE
 62
256
  8
0
 66
1
 10
0.0
 20
0.0
 30
0.0
 70
9
  0
VERTEX
  8
0
 10
25.800000000000004
 20
-33.60000000000001
 30
0.0
  0
VERTEX
  8
0
 10
34.300000000000004
 20
-33.60000000000001
 30
0.0
  0
VERTEX
  8
0
 10
34.300000000000004
 20
-31.60000000000001
 30
0.0
  0
VERTEX
  8
0
 10
25.800000000000004
 20
-31.60000000000001
 30
0.0
  0
SEQEND
  0
CIRCLE
  8
0
 10
33.300000000000004
 20
-32.60000000000001
 30
0.0
 40
0.5
  0
TEXT
  8
0
 10
26.300000000000004
 20
-33.10000000000001
 30
0.0
 40
1.0
  1
FIN-872
  0
POLYLINE
 62
256
  8
0
 66
1
 10
0.0
 20
0.0
 30
0.0
 70
9
  0
VERTEX
  8
0
 10
34.400000000000006
 20
-33.60000000000001
 30
0.0
  0
VERTEX
  8
0
 10
42.900000000000006
 20
-33.60000000000001
 30
0.0
  0
VERTEX
  8
0
 10
42.900000000000006
 20
-31.60000000000001
 30
0.0
  0
VERTEX
  8
0
 10
34.400000000000006
 20
-31.60000000000001
 30
0.0
  0
SEQEND
  0
CIRCLE
  8
0
 10
41.900000000000006
 20
-32.60000000000001
 30
0.0
 40
0.5
  0
TEXT
  8
0
 10
34.900000000000006
 20
-33.10000000000001
 30
0.0
 40
1.0
  1
FIN-873
  0
POLYLINE
 62
256
  8
0
 66
1
 10
0.0
 20
0.0
 30
0.0
 70
9
  0
VERTEX
  8
0
 10
43.00000000000001
 20
-33.60000000000001
 30
0.0
  0
VERTEX
  8
0
 10
51.50000000000001
 20
-33.60000000000001
 30
0.0
  0
VERTEX
  8
0
 10
51.50000000000001
 20
-31.60000000000001
 30
0.0
  0
VERTEX
  8
0
 10
43.00000000000001
 20
-31.60000000000001
 30
0.0
  0
SEQEND
  0
CIRCLE
  8
0
 10
50.50000000000001
 20
-32.60000000000001
 30
0.0
 40
0.5
  0
TEXT
  8
0
 10
43.50000000000001
 20
-33.10000000000001
 30
0.0
 40
1.0
  1
FIN-874
  0
POLYLINE
 62
256
  8
0
 66
1
 10
0.0
 20
0.0
 30
0.0
 70
9
  0
VERTEX
  8
0
 10
51.60000000000001
 20
-33.60000000000001
 30
0.0
  0
VERTEX
  8
0
 10
60.10000000000001
 20
-33.60000000000001
 30
0.0
  0
VERTEX
  8
0
 10
60.10000000000001
 20
-31.60000000000001
 30
0.0
  0
VERTEX
  8
0
 10
51.60000000000001
 20
-31.60000000000001
 30
0.0
  0
SEQEND
  0
CIRCLE
  8
0
 10
59.10000000000001
 20
-32.60000000000001
 30
0.0
 40
0.5
  0
TEXT
  8
0
 10
52.10000000000001
 20
-33.10000000000001
 30
0.0
 40
1.0
  1
FIN-875
  0
POLYLINE
 62
256
  8
0
 66
1
 10
0.0
 20
0.0
 30
0.0
 70
9
  0
VERTEX
  8
0
 10
60.20000000000001
 20
-33.60000000000001
 30
0.0
  0
VERTEX
  8
0
 10
68.70000000000002
 20
-33.60000000000001
 30
0.0
  0
VERTEX
  8
0
 10
68.70000000000002
 20
-31.60000000000001
 30
0.0
  0
VERTEX
  8
0
 10
60.20000000000001
 20
-31.60000000000001
 30
0.0
  0
SEQEND
  0
CIRCLE
  8
0
 10
67.70000000000002
 20
-32.60000000000001
 30
0.0
 40
0.5
  0
TEXT
  8
0
 10
60.70000000000001
 20
-33.10000000000001
 30
0.0
 40
1.0
  1
FIN-876
  0
POLYLINE
 62
256
  8
0
 66
1
 10
0.0
 20
0.0
 30
0.0
 70
9
  0
VERTEX
  8
0
 10
68.80000000000001
 20
-33.60000000000001
 30
0.0
  0
VERTEX
  8
0
 10
77.30000000000001
 20
-33.60000000000001
 30
0.0
  0
VERTEX
  8
0
 10
77.30000000000001
 20
-31.60000000000001
 30
0.0
  0
VERTEX
  8
0
 10
68.80000000000001
 20
-31.60000000000001
 30
0.0
  0
SEQEND
  0
CIRCLE
  8
0
 10
76.30000000000001
 20
-32.60000000000001
 30
0.0
 40
0.5
  0
TEXT
  8
0
 10
69.30000000000001
 20
-33.10000000000001
 30
0.0
 40
1.0
  1
FIN-877
  0
POLYLINE
 62
256
  8
0
 66
1
 10
0.0
 20
0.0
 30
0.0
 70
9
  0
VERTEX
  8
0
 10
77.4
 20
-33.60000000000001
 30
0.0
  0
VERTEX
  8
0
 10
85.9
 20
-33.60000000000001
 30
0.0
  0
VERTEX
  8
0
 10
85.9
 20
-31.60000000000001
 30
0.0
  0
VERTEX
  8
0
 10
77.4
 20
-31.60000000000001
 30
0.0
  0
SEQEND
  0
CIRCLE
  8
0
 10
84.9
 20
-32.60000000000001
 30
0.0
 40
0.5
  0
TEXT
  8
0
 10
77.9
 20
-33.10000000000001
 30
0.0
 40
1.0
  1
FIN-878
  0
POLYLINE
 62
256
  8
0
 66
1
 10
0.0
 20
0.0
 30
0.0
 70
9
  0
VERTEX
  8
0
 10
86.0
 20
-33.60000000000001
 30
0.0
  0
VERTEX
  8
0
 10
94.5
 20
-33.60000000000001
 30
0.0
  0
VERTEX
  8
0
 10
94.5
 20
-31.60000000000001
 30
0.0
  0
VERTEX
  8
0
 10
86.0
 20
-31.60000000000001
 30
0.0
  0
SEQEND
  0
CIRCLE
  8
0
 10
93.5
 20
-32.60000000000001
 30
0.0
 40
0.5
  0
TEXT
  8
0
 10
86.5
 20
-33.10000000000001
 30
0.0
 40
1.0
  1
FIN-879
  0
POLYLINE
 62
256
  8
0
 66
1
 10
0.0
 20
0.0
 30
0.0
 70
9
  0
VERTEX
  8
0
 10
0.0
 20
-35.70000000000001
 30
0.0
  0
VERTEX
  8
0
 10
8.5
 20
-35.70000000000001
 30
0.0
  0
VERTEX
  8
0
 10
8.5
 20
-33.70000000000001
 30
0.0
  0
VERTEX
  8
0
 10
0.0
 20
-33.70000000000001
 30
0.0
  0
SEQEND
  0
CIRCLE
  8
0
 10
7.5
 20
-34.70000000000001
 30
0.0
 40
0.5
  0
TEXT
  8
0
 10
0.5
 20
-35.20000000000001
 30
0.0
 40
1.0
  1
FIN-88
  0
POLYLINE
 62
256
  8
0
 66
1
 10
0.0
 20
0.0
 30
0.0
 70
9
  0
VERTEX
  8
0
 10
8.6
 20
-35.70000000000001
 30
0.0
  0
VERTEX
  8
0
 10
17.1
 20
-35.70000000000001
 30
0.0
  0
VERTEX
  8
0
 10
17.1
 20
-33.70000000000001
 30
0.0
  0
VERTEX
  8
0
 10
8.6
 20
-33.70000000000001
 30
0.0
  0
SEQEND
  0
CIRCLE
  8
0
 10
16.1
 20
-34.70000000000001
 30
0.0
 40
0.5
  0
TEXT
  8
0
 10
9.1
 20
-35.20000000000001
 30
0.0
 40
1.0
  1
FIN-880
  0
POLYLINE
 62
256
  8
0
 66
1
 10
0.0
 20
0.0
 30
0.0
 70
9
  0
VERTEX
  8
0
 10
17.200000000000003
 20
-35.70000000000001
 30
0.0
  0
VERTEX
  8
0
 10
25.700000000000003
 20
-35.70000000000001
 30
0.0
  0
VERTEX
  8
0
 10
25.700000000000003
 20
-33.70000000000001
 30
0.0
  0
VERTEX
  8
0
 10
17.200000000000003
 20
-33.70000000000001
 30
0.0
  0
SEQEND
  0
CIRCLE
  8
0
 10
24.700000000000003
 20
-34.70000000000001
 30
0.0
 40
0.5
  0
TEXT
  8
0
 10
17.700000000000003
 20
-35.20000000000001
 30
0.0
 40
1.0
  1
FIN-881
  0
POLYLINE
 62
256
  8
0
 66
1
 10
0.0
 20
0.0
 30
0.0
 70
9
  0
VERTEX
  8
0
 10
25.800000000000004
 20
-35.70000000000001
 30
0.0
  0
VERTEX
  8
0
 10
34.300000000000004
 20
-35.70000000000001
 30
0.0
  0
VERTEX
  8
0
 10
34.300000000000004
 20
-33.70000000000001
 30
0.0
  0
VERTEX
  8
0
 10
25.800000000000004
 20
-33.70000000000001
 30
0.0
  0
SEQEND
  0
CIRCLE
  8
0
 10
33.300000000000004
 20
-34.70000000000001
 30
0.0
 40
0.5
  0
TEXT
  8
0
 10
26.300000000000004
 20
-35.20000000000001
 30
0.0
 40
1.0
  1
FIN-882
  0
POLYLINE
 62
256
  8
0
 66
1
 10
0.0
 20
0.0
 30
0.0
 70
9
  0
VERTEX
  8
0
 10
34.400000000000006
 20
-35.70000000000001
 30
0.0
  0
VERTEX
  8
0
 10
42.900000000000006
 20
-35.70000000000001
 30
0.0
  0
VERTEX
  8
0
 10
42.900000000000006
 20
-33.70000000000001
 30
0.0
  0
VERTEX
  8
0
 10
34.400000000000006
 20
-33.70000000000001
 30
0.0
  0
SEQEND
  0
CIRCLE
  8
0
 10
41.900000000000006
 20
-34.70000000000001
 30
0.0
 40
0.5
  0
TEXT
  8
0
 10
34.900000000000006
 20
-35.20000000000001
 30
0.0
 40
1.0
  1
FIN-883
  0
POLYLINE
 62
256
  8
0
 66
1
 10
0.0
 20
0.0
 30
0.0
 70
9
  0
VERTEX
  8
0
 10
43.00000000000001
 20
-35.70000000000001
 30
0.0
  0
VERTEX
  8
0
 10
51.50000000000001
 20
-35.70000000000001
 30
0.0
  0
VERTEX
  8
0
 10
51.50000000000001
 20
-33.70000000000001
 30
0.0
  0
VERTEX
  8
0
 10
43.00000000000001
 20
-33.70000000000001
 30
0.0
  0
SEQEND
  0
CIRCLE
  8
0
 10
50.50000000000001
 20
-34.70000000000001
 30
0.0
 40
0.5
  0
TEXT
  8
0
 10
43.50000000000001
 20
-35.20000000000001
 30
0.0
 40
1.0
  1
FIN-884
  0
POLYLINE
 62
256
  8
0
 66
1
 10
0.0
 20
0.0
 30
0.0
 70
9
  0
VERTEX
  8
0
 10
51.60000000000001
 20
-35.70000000000001
 30
0.0
  0
VERTEX
  8
0
 10
60.10000000000001
 20
-35.70000000000001
 30
0.0
  0
VERTEX
  8
0
 10
60.10000000000001
 20
-33.70000000000001
 30
0.0
  0
VERTEX
  8
0
 10
51.60000000000001
 20
-33.70000000000001
 30
0.0
  0
SEQEND
  0
CIRCLE
  8
0
 10
59.10000000000001
 20
-34.70000000000001
 30
0.0
 40
0.5
  0
TEXT
  8
0
 10
52.10000000000001
 20
-35.20000000000001
 30
0.0
 40
1.0
  1
FIN-885
  0
POLYLINE
 62
256
  8
0
 66
1
 10
0.0
 20
0.0
 30
0.0
 70
9
  0
VERTEX
  8
0
 10
60.20000000000001
 20
-35.70000000000001
 30
0.0
  0
VERTEX
  8
0
 10
68.70000000000002
 20
-35.70000000000001
 30
0.0
  0
VERTEX
  8
0
 10
68.70000000000002
 20
-33.70000000000001
 30
0.0
  0
VERTEX
  8
0
 10
60.20000000000001
 20
-33.70000000000001
 30
0.0
  0
SEQEND
  0
CIRCLE
  8
0
 10
67.70000000000002
 20
-34.70000000000001
 30
0.0
 40
0.5
  0
TEXT
  8
0
 10
60.70000000000001
 20
-35.20000000000001
 30
0.0
 40
1.0
  1
FIN-886
  0
POLYLINE
 62
256
  8
0
 66
1
 10
0.0
 20
0.0
 30
0.0
 70
9
  0
VERTEX
  8
0
 10
68.80000000000001
 20
-35.70000000000001
 30
0.0
  0
VERTEX
  8
0
 10
77.30000000000001
 20
-35.70000000000001
 30
0.0
  0
VERTEX
  8
0
 10
77.30000000000001
 20
-33.70000000000001
 30
0.0
  0
VERTEX
  8
0
 10
68.80000000000001
 20
-33.70000000000001
 30
0.0
  0
SEQEND
  0
CIRCLE
  8
0
 10
76.30000000000001
 20
-34.70000000000001
 30
0.0
 40
0.5
  0
TEXT
  8
0
 10
69.30000000000001
 20
-35.20000000000001
 30
0.0
 40
1.0
  1
FIN-887
  0
POLYLINE
 62
256
  8
0
 66
1
 10
0.0
 20
0.0
 30
0.0
 70
9
  0
VERTEX
  8
0
 10
77.4
 20
-35.70000000000001
 30
0.0
  0
VERTEX
  8
0
 10
85.9
 20
-35.70000000000001
 30
0.0
  0
VERTEX
  8
0
 10
85.9
 20
-33.70000000000001
 30
0.0
  0
VERTEX
  8
0
 10
77.4
 20
-33.70000000000001
 30
0.0
  0
SEQEND
  0
CIRCLE
  8
0
 10
84.9
 20
-34.70000000000001
 30
0.0
 40
0.5
  0
TEXT
  8
0
 10
77.9
 20
-35.20000000000001
 30
0.0
 40
1.0
  1
FIN-888
  0
POLYLINE
 62
256
  8
0
 66
1
 10
0.0
 20
0.0
 30
0.0
 70
9
  0
VERTEX
  8
0
 10
86.0
 20
-35.70000000000001
 30
0.0
  0
VERTEX
  8
0
 10
94.5
 20
-35.70000000000001
 30
0.0
  0
VERTEX
  8
0
 10
94.5
 20
-33.70000000000001
 30
0.0
  0
VERTEX
  8
0
 10
86.0
 20
-33.70000000000001
 30
0.0
  0
SEQEND
  0
CIRCLE
  8
0
 10
93.5
 20
-34.70000000000001
 30
0.0
 40
0.5
  0
TEXT
  8
0
 10
86.5
 20
-35.20000000000001
 30
0.0
 40
1.0
  1
FIN-889
  0
POLYLINE
 62
256
  8
0
 66
1
 10
0.0
 20
0.0
 30
0.0
 70
9
  0
VERTEX
  8
0
 10
0.0
 20
-37.80000000000001
 30
0.0
  0
VERTEX
  8
0
 10
8.5
 20
-37.80000000000001
 30
0.0
  0
VERTEX
  8
0
 10
8.5
 20
-35.80000000000001
 30
0.0
  0
VERTEX
  8
0
 10
0.0
 20
-35.80000000000001
 30
0.0
  0
SEQEND
  0
CIRCLE
  8
0
 10
7.5
 20
-36.80000000000001
 30
0.0
 40
0.5
  0
TEXT
  8
0
 10
0.5
 20
-37.30000000000001
 30
0.0
 40
1.0
  1
FIN-89
  0
POLYLINE
 62
256
  8
0
 66
1
 10
0.0
 20
0.0
 30
0.0
 70
9
  0
VERTEX
  8
0
 10
8.6
 20
-37.80000000000001
 30
0.0
  0
VERTEX
  8
0
 10
17.1
 20
-37.80000000000001
 30
0.0
  0
VERTEX
  8
0
 10
17.1
 20
-35.80000000000001
 30
0.0
  0
VERTEX
  8
0
 10
8.6
 20
-35.80000000000001
 30
0.0
  0
SEQEND
  0
CIRCLE
  8
0
 10
16.1
 20
-36.80000000000001
 30
0.0
 40
0.5
  0
TEXT
  8
0
 10
9.1
 20
-37.30000000000001
 30
0.0
 40
1.0
  1
FIN-890
  0
POLYLINE
 62
256
  8
0
 66
1
 10
0.0
 20
0.0
 30
0.0
 70
9
  0
VERTEX
  8
0
 10
17.200000000000003
 20
-37.80000000000001
 30
0.0
  0
VERTEX
  8
0
 10
25.700000000000003
 20
-37.80000000000001
 30
0.0
  0
VERTEX
  8
0
 10
25.700000000000003
 20
-35.80000000000001
 30
0.0
  0
VERTEX
  8
0
 10
17.200000000000003
 20
-35.80000000000001
 30
0.0
  0
SEQEND
  0
CIRCLE
  8
0
 10
24.700000000000003
 20
-36.80000000000001
 30
0.0
 40
0.5
  0
TEXT
  8
0
 10
17.700000000000003
 20
-37.30000000000001
 30
0.0
 40
1.0
  1
FIN-891
  0
POLYLINE
 62
256
  8
0
 66
1
 10
0.0
 20
0.0
 30
0.0
 70
9
  0
VERTEX
  8
0
 10
25.800000000000004
 20
-37.80000000000001
 30
0.0
  0
VERTEX
  8
0
 10
34.300000000000004
 20
-37.80000000000001
 30
0.0
  0
VERTEX
  8
0
 10
34.300000000000004
 20
-35.80000000000001
 30
0.0
  0
VERTEX
  8
0
 10
25.800000000000004
 20
-35.80000000000001
 30
0.0
  0
SEQEND
  0
CIRCLE
  8
0
 10
33.300000000000004
 20
-36.80000000000001
 30
0.0
 40
0.5
  0
TEXT
  8
0
 10
26.300000000000004
 20
-37.30000000000001
 30
0.0
 40
1.0
  1
FIN-892
  0
POLYLINE
 62
256
  8
0
 66
1
 10
0.0
 20
0.0
 30
0.0
 70
9
  0
VERTEX
  8
0
 10
34.400000000000006
 20
-37.80000000000001
 30
0.0
  0
VERTEX
  8
0
 10
42.900000000000006
 20
-37.80000000000001
 30
0.0
  0
VERTEX
  8
0
 10
42.900000000000006
 20
-35.80000000000001
 30
0.0
  0
VERTEX
  8
0
 10
34.400000000000006
 20
-35.80000000000001
 30
0.0
  0
SEQEND
  0
CIRCLE
  8
0
 10
41.900000000000006
 20
-36.80000000000001
 30
0.0
 40
0.5
  0
TEXT
  8
0
 10
34.900000000000006
 20
-37.30000000000001
 30
0.0
 40
1.0
  1
FIN-893
  0
POLYLINE
 62
256
  8
0
 66
1
 10
0.0
 20
0.0
 30
0.0
 70
9
  0
VERTEX
  8
0
 10
43.00000000000001
 20
-37.80000000000001
 30
0.0
  0
VERTEX
  8
0
 10
51.50000000000001
 20
-37.80000000000001
 30
0.0
  0
VERTEX
  8
0
 10
51.50000000000001
 20
-35.80000000000001
 30
0.0
  0
VERTEX
  8
0
 10
43.00000000000001
 20
-35.80000000000001
 30
0.0
  0
SEQEND
  0
CIRCLE
  8
0
 10
50.50000000000001
 20
-36.80000000000001
 30
0.0
 40
0.5
  0
TEXT
  8
0
 10
43.50000000000001
 20
-37.30000000000001
 30
0.0
 40
1.0
  1
FIN-894
  0
POLYLINE
 62
256
  8
0
 66
1
 10
0.0
 20
0.0
 30
0.0
 70
9
  0
VERTEX
  8
0
 10
51.60000000000001
 20
-37.80000000000001
 30
0.0
  0
VERTEX
  8
0
 10
60.10000000000001
 20
-37.80000000000001
 30
0.0
  0
VERTEX
  8
0
 10
60.10000000000001
 20
-35.80000000000001
 30
0.0
  0
VERTEX
  8
0
 10
51.60000000000001
 20
-35.80000000000001
 30
0.0
  0
SEQEND
  0
CIRCLE
  8
0
 10
59.10000000000001
 20
-36.80000000000001
 30
0.0
 40
0.5
  0
TEXT
  8
0
 10
52.10000000000001
 20
-37.30000000000001
 30
0.0
 40
1.0
  1
FIN-895
  0
POLYLINE
 62
256
  8
0
 66
1
 10
0.0
 20
0.0
 30
0.0
 70
9
  0
VERTEX
  8
0
 10
60.20000000000001
 20
-37.80000000000001
 30
0.0
  0
VERTEX
  8
0
 10
68.70000000000002
 20
-37.80000000000001
 30
0.0
  0
VERTEX
  8
0
 10
68.70000000000002
 20
-35.80000000000001
 30
0.0
  0
VERTEX
  8
0
 10
60.20000000000001
 20
-35.80000000000001
 30
0.0
  0
SEQEND
  0
CIRCLE
  8
0
 10
67.70000000000002
 20
-36.80000000000001
 30
0.0
 40
0.5
  0
TEXT
  8
0
 10
60.70000000000001
 20
-37.30000000000001
 30
0.0
 40
1.0
  1
FIN-896
  0
POLYLINE
 62
256
  8
0
 66
1
 10
0.0
 20
0.0
 30
0.0
 70
9
  0
VERTEX
  8
0
 10
68.80000000000001
 20
-37.80000000000001
 30
0.0
  0
VERTEX
  8
0
 10
77.30000000000001
 20
-37.80000000000001
 30
0.0
  0
VERTEX
  8
0
 10
77.30000000000001
 20
-35.80000000000001
 30
0.0
  0
VERTEX
  8
0
 10
68.80000000000001
 20
-35.80000000000001
 30
0.0
  0
SEQEND
  0
CIRCLE
  8
0
 10
76.30000000000001
 20
-36.80000000000001
 30
0.0
 40
0.5
  0
TEXT
  8
0
 10
69.30000000000001
 20
-37.30000000000001
 30
0.0
 40
1.0
  1
FIN-897
  0
POLYLINE
 62
256
  8
0
 66
1
 10
0.0
 20
0.0
 30
0.0
 70
9
  0
VERTEX
  8
0
 10
77.4
 20
-37.80000000000001
 30
0.0
  0
VERTEX
  8
0
 10
85.9
 20
-37.80000000000001
 30
0.0
  0
VERTEX
  8
0
 10
85.9
 20
-35.80000000000001
 30
0.0
  0
VERTEX
  8
0
 10
77.4
 20
-35.80000000000001
 30
0.0
  0
SEQEND
  0
CIRCLE
  8
0
 10
84.9
 20
-36.80000000000001
 30
0.0
 40
0.5
  0
TEXT
  8
0
 10
77.9
 20
-37.30000000000001
 30
0.0
 40
1.0
  1
FIN-898
  0
POLYLINE
 62
256
  8
0
 66
1
 10
0.0
 20
0.0
 30
0.0
 70
9
  0
VERTEX
  8
0
 10
86.0
 20
-37.80000000000001
 30
0.0
  0
VERTEX
  8
0
 10
94.5
 20
-37.80000000000001
 30
0.0
  0
VERTEX
  8
0
 10
94.5
 20
-35.80000000000001
 30
0.0
  0
VERTEX
  8
0
 10
86.0
 20
-35.80000000000001
 30
0.0
  0
SEQEND
  0
CIRCLE
  8
0
 10
93.5
 20
-36.80000000000001
 30
0.0
 40
0.5
  0
TEXT
  8
0
 10
86.5
 20
-37.30000000000001
 30
0.0
 40
1.0
  1
FIN-899
  0
POLYLINE
 62
256
  8
0
 66
1
 10
0.0
 20
0.0
 30
0.0
 70
9
  0
VERTEX
  8
0
 10
0.0
 20
-39.90000000000001
 30
0.0
  0
VERTEX
  8
0
 10
8.5
 20
-39.90000000000001
 30
0.0
  0
VERTEX
  8
0
 10
8.5
 20
-37.90000000000001
 30
0.0
  0
VERTEX
  8
0
 10
0.0
 20
-37.90000000000001
 30
0.0
  0
SEQEND
  0
CIRCLE
  8
0
 10
7.5
 20
-38.90000000000001
 30
0.0
 40
0.5
  0
TEXT
  8
0
 10
0.5
 20
-39.40000000000001
 30
0.0
 40
1.0
  1
FIN-9
  0
POLYLINE
 62
256
  8
0
 66
1
 10
0.0
 20
0.0
 30
0.0
 70
9
  0
VERTEX
  8
0
 10
8.6
 20
-39.90000000000001
 30
0.0
  0
VERTEX
  8
0
 10
17.1
 20
-39.90000000000001
 30
0.0
  0
VERTEX
  8
0
 10
17.1
 20
-37.90000000000001
 30
0.0
  0
VERTEX
  8
0
 10
8.6
 20
-37.90000000000001
 30
0.0
  0
SEQEND
  0
CIRCLE
  8
0
 10
16.1
 20
-38.90000000000001
 30
0.0
 40
0.5
  0
TEXT
  8
0
 10
9.1
 20
-39.40000000000001
 30
0.0
 40
1.0
  1
FIN-90
  0
POLYLINE
 62
256
  8
0
 66
1
 10
0.0
 20
0.0
 30
0.0
 70
9
  0
VERTEX
  8
0
 10
17.200000000000003
 20
-39.90000000000001
 30
0.0
  0
VERTEX
  8
0
 10
25.700000000000003
 20
-39.90000000000001
 30
0.0
  0
VERTEX
  8
0
 10
25.700000000000003
 20
-37.90000000000001
 30
0.0
  0
VERTEX
  8
0
 10
17.200000000000003
 20
-37.90000000000001
 30
0.0
  0
SEQEND
  0
CIRCLE
  8
0
 10
24.700000000000003
 20
-38.90000000000001
 30
0.0
 40
0.5
  0
TEXT
  8
0
 10
17.700000000000003
 20
-39.40000000000001
 30
0.0
 40
1.0
  1
FIN-900
  0
POLYLINE
 62
256
  8
0
 66
1
 10
0.0
 20
0.0
 30
0.0
 70
9
  0
VERTEX
  8
0
 10
25.800000000000004
 20
-39.90000000000001
 30
0.0
  0
VERTEX
  8
0
 10
34.300000000000004
 20
-39.90000000000001
 30
0.0
  0
VERTEX
  8
0
 10
34.300000000000004
 20
-37.90000000000001
 30
0.0
  0
VERTEX
  8
0
 10
25.800000000000004
 20
-37.90000000000001
 30
0.0
  0
SEQEND
  0
CIRCLE
  8
0
 10
33.300000000000004
 20
-38.90000000000001
 30
0.0
 40
0.5
  0
TEXT
  8
0
 10
26.300000000000004
 20
-39.40000000000001
 30
0.0
 40
1.0
  1
FIN-901
  0
POLYLINE
 62
256
  8
0
 66
1
 10
0.0
 20
0.0
 30
0.0
 70
9
  0
VERTEX
  8
0
 10
34.400000000000006
 20
-39.90000000000001
 30
0.0
  0
VERTEX
  8
0
 10
42.900000000000006
 20
-39.90000000000001
 30
0.0
  0
VERTEX
  8
0
 10
42.900000000000006
 20
-37.90000000000001
 30
0.0
  0
VERTEX
  8
0
 10
34.400000000000006
 20
-37.90000000000001
 30
0.0
  0
SEQEND
  0
CIRCLE
  8
0
 10
41.900000000000006
 20
-38.90000000000001
 30
0.0
 40
0.5
  0
TEXT
  8
0
 10
34.900000000000006
 20
-39.40000000000001
 30
0.0
 40
1.0
  1
FIN-902
  0
POLYLINE
 62
256
  8
0
 66
1
 10
0.0
 20
0.0
 30
0.0
 70
9
  0
VERTEX
  8
0
 10
43.00000000000001
 20
-39.90000000000001
 30
0.0
  0
VERTEX
  8
0
 10
51.50000000000001
 20
-39.90000000000001
 30
0.0
  0
VERTEX
  8
0
 10
51.50000000000001
 20
-37.90000000000001
 30
0.0
  0
VERTEX
  8
0
 10
43.00000000000001
 20
-37.90000000000001
 30
0.0
  0
SEQEND
  0
CIRCLE
  8
0
 10
50.50000000000001
 20
-38.90000000000001
 30
0.0
 40
0.5
  0
TEXT
  8
0
 10
43.50000000000001
 20
-39.40000000000001
 30
0.0
 40
1.0
  1
FIN-903
  0
POLYLINE
 62
256
  8
0
 66
1
 10
0.0
 20
0.0
 30
0.0
 70
9
  0
VERTEX
  8
0
 10
51.60000000000001
 20
-39.90000000000001
 30
0.0
  0
VERTEX
  8
0
 10
60.10000000000001
 20
-39.90000000000001
 30
0.0
  0
VERTEX
  8
0
 10
60.10000000000001
 20
-37.90000000000001
 30
0.0
  0
VERTEX
  8
0
 10
51.60000000000001
 20
-37.90000000000001
 30
0.0
  0
SEQEND
  0
CIRCLE
  8
0
 10
59.10000000000001
 20
-38.90000000000001
 30
0.0
 40
0.5
  0
TEXT
  8
0
 10
52.10000000000001
 20
-39.40000000000001
 30
0.0
 40
1.0
  1
FIN-904
  0
POLYLINE
 62
256
  8
0
 66
1
 10
0.0
 20
0.0
 30
0.0
 70
9
  0
VERTEX
  8
0
 10
60.20000000000001
 20
-39.90000000000001
 30
0.0
  0
VERTEX
  8
0
 10
68.70000000000002
 20
-39.90000000000001
 30
0.0
  0
VERTEX
  8
0
 10
68.70000000000002
 20
-37.90000000000001
 30
0.0
  0
VERTEX
  8
0
 10
60.20000000000001
 20
-37.90000000000001
 30
0.0
  0
SEQEND
  0
CIRCLE
  8
0
 10
67.70000000000002
 20
-38.90000000000001
 30
0.0
 40
0.5
  0
TEXT
  8
0
 10
60.70000000000001
 20
-39.40000000000001
 30
0.0
 40
1.0
  1
FIN-905
  0
POLYLINE
 62
256
  8
0
 66
1
 10
0.0
 20
0.0
 30
0.0
 70
9
  0
VERTEX
  8
0
 10
68.80000000000001
 20
-39.90000000000001
 30
0.0
  0
VERTEX
  8
0
 10
77.30000000000001
 20
-39.90000000000001
 30
0.0
  0
VERTEX
  8
0
 10
77.30000000000001
 20
-37.90000000000001
 30
0.0
  0
VERTEX
  8
0
 10
68.80000000000001
 20
-37.90000000000001
 30
0.0
  0
SEQEND
  0
CIRCLE
  8
0
 10
76.30000000000001
 20
-38.90000000000001
 30
0.0
 40
0.5
  0
TEXT
  8
0
 10
69.30000000000001
 20
-39.40000000000001
 30
0.0
 40
1.0
  1
FIN-906
  0
POLYLINE
 62
256
  8
0
 66
1
 10
0.0
 20
0.0
 30
0.0
 70
9
  0
VERTEX
  8
0
 10
77.4
 20
-39.90000000000001
 30
0.0
  0
VERTEX
  8
0
 10
85.9
 20
-39.90000000000001
 30
0.0
  0
VERTEX
  8
0
 10
85.9
 20
-37.90000000000001
 30
0.0
  0
VERTEX
  8
0
 10
77.4
 20
-37.90000000000001
 30
0.0
  0
SEQEND
  0
CIRCLE
  8
0
 10
84.9
 20
-38.90000000000001
 30
0.0
 40
0.5
  0
TEXT
  8
0
 10
77.9
 20
-39.40000000000001
 30
0.0
 40
1.0
  1
FIN-907
  0
POLYLINE
 62
256
  8
0
 66
1
 10
0.0
 20
0.0
 30
0.0
 70
9
  0
VERTEX
  8
0
 10
86.0
 20
-39.90000000000001
 30
0.0
  0
VERTEX
  8
0
 10
94.5
 20
-39.90000000000001
 30
0.0
  0
VERTEX
  8
0
 10
94.5
 20
-37.90000000000001
 30
0.0
  0
VERTEX
  8
0
 10
86.0
 20
-37.90000000000001
 30
0.0
  0
SEQEND
  0
CIRCLE
  8
0
 10
93.5
 20
-38.90000000000001
 30
0.0
 40
0.5
  0
TEXT
  8
0
 10
86.5
 20
-39.40000000000001
 30
0.0
 40
1.0
  1
FIN-908
  0
POLYLINE
 62
256
  8
0
 66
1
 10
0.0
 20
0.0
 30
0.0
 70
9
  0
VERTEX
  8
0
 10
0.0
 20
-42.000000000000014
 30
0.0
  0
VERTEX
  8
0
 10
8.5
 20
-42.000000000000014
 30
0.0
  0
VERTEX
  8
0
 10
8.5
 20
-40.000000000000014
 30
0.0
  0
VERTEX
  8
0
 10
0.0
 20
-40.000000000000014
 30
0.0
  0
SEQEND
  0
CIRCLE
  8
0
 10
7.5
 20
-41.000000000000014
 30
0.0
 40
0.5
  0
TEXT
  8
0
 10
0.5
 20
-41.500000000000014
 30
0.0
 40
1.0
  1
FIN-909
  0
POLYLINE
 62
256
  8
0
 66
1
 10
0.0
 20
0.0
 30
0.0
 70
9
  0
VERTEX
  8
0
 10
8.6
 20
-42.000000000000014
 30
0.0
  0
VERTEX
  8
0
 10
17.1
 20
-42.000000000000014
 30
0.0
  0
VERTEX
  8
0
 10
17.1
 20
-40.000000000000014
 30
0.0
  0
VERTEX
  8
0
 10
8.6
 20
-40.000000000000014
 30
0.0
  0
SEQEND
  0
CIRCLE
  8
0
 10
16.1
 20
-41.000000000000014
 30
0.0
 40
0.5
  0
TEXT
  8
0
 10
9.1
 20
-41.500000000000014
 30
0.0
 40
1.0
  1
FIN-91
  0
POLYLINE
 62
256
  8
0
 66
1
 10
0.0
 20
0.0
 30
0.0
 70
9
  0
VERTEX
  8
0
 10
17.200000000000003
 20
-42.000000000000014
 30
0.0
  0
VERTEX
  8
0
 10
25.700000000000003
 20
-42.000000000000014
 30
0.0
  0
VERTEX
  8
0
 10
25.700000000000003
 20
-40.000000000000014
 30
0.0
  0
VERTEX
  8
0
 10
17.200000000000003
 20
-40.000000000000014
 30
0.0
  0
SEQEND
  0
CIRCLE
  8
0
 10
24.700000000000003
 20
-41.000000000000014
 30
0.0
 40
0.5
  0
TEXT
  8
0
 10
17.700000000000003
 20
-41.500000000000014
 30
0.0
 40
1.0
  1
FIN-910
  0
POLYLINE
 62
256
  8
0
 66
1
 10
0.0
 20
0.0
 30
0.0
 70
9
  0
VERTEX
  8
0
 10
25.800000000000004
 20
-42.000000000000014
 30
0.0
  0
VERTEX
  8
0
 10
34.300000000000004
 20
-42.000000000000014
 30
0.0
  0
VERTEX
  8
0
 10
34.300000000000004
 20
-40.000000000000014
 30
0.0
  0
VERTEX
  8
0
 10
25.800000000000004
 20
-40.000000000000014
 30
0.0
  0
SEQEND
  0
CIRCLE
  8
0
 10
33.300000000000004
 20
-41.000000000000014
 30
0.0
 40
0.5
  0
TEXT
  8
0
 10
26.300000000000004
 20
-41.500000000000014
 30
0.0
 40
1.0
  1
FIN-911
  0
POLYLINE
 62
256
  8
0
 66
1
 10
0.0
 20
0.0
 30
0.0
 70
9
  0
VERTEX
  8
0
 10
34.400000000000006
 20
-42.000000000000014
 30
0.0
  0
VERTEX
  8
0
 10
42.900000000000006
 20
-42.000000000000014
 30
0.0
  0
VERTEX
  8
0
 10
42.900000000000006
 20
-40.000000000000014
 30
0.0
  0
VERTEX
  8
0
 10
34.400000000000006
 20
-40.000000000000014
 30
0.0
  0
SEQEND
  0
CIRCLE
  8
0
 10
41.900000000000006
 20
-41.000000000000014
 30
0.0
 40
0.5
  0
TEXT
  8
0
 10
34.900000000000006
 20
-41.500000000000014
 30
0.0
 40
1.0
  1
FIN-912
  0
POLYLINE
 62
256
  8
0
 66
1
 10
0.0
 20
0.0
 30
0.0
 70
9
  0
VERTEX
  8
0
 10
43.00000000000001
 20
-42.000000000000014
 30
0.0
  0
VERTEX
  8
0
 10
51.50000000000001
 20
-42.000000000000014
 30
0.0
  0
VERTEX
  8
0
 10
51.50000000000001
 20
-40.000000000000014
 30
0.0
  0
VERTEX
  8
0
 10
43.00000000000001
 20
-40.000000000000014
 30
0.0
  0
SEQEND
  0
CIRCLE
  8
0
 10
50.50000000000001
 20
-41.000000000000014
 30
0.0
 40
0.5
  0
TEXT
  8
0
 10
43.50000000000001
 20
-41.500000000000014
 30
0.0
 40
1.0
  1
FIN-913
  0
POLYLINE
 62
256
  8
0
 66
1
 10
0.0
 20
0.0
 30
0.0
 70
9
  0
VERTEX
  8
0
 10
51.60000000000001
 20
-42.000000000000014
 30
0.0
  0
VERTEX
  8
0
 10
60.10000000000001
 20
-42.000000000000014
 30
0.0
  0
VERTEX
  8
0
 10
60.10000000000001
 20
-40.000000000000014
 30
0.0
  0
VERTEX
  8
0
 10
51.60000000000001
 20
-40.000000000000014
 30
0.0
  0
SEQEND
  0
CIRCLE
  8
0
 10
59.10000000000001
 20
-41.000000000000014
 30
0.0
 40
0.5
  0
TEXT
  8
0
 10
52.10000000000001
 20
-41.500000000000014
 30
0.0
 40
1.0
  1
FIN-914
  0
POLYLINE
 62
256
  8
0
 66
1
 10
0.0
 20
0.0
 30
0.0
 70
9
  0
VERTEX
  8
0
 10
60.20000000000001
 20
-42.000000000000014
 30
0.0
  0
VERTEX
  8
0
 10
68.70000000000002
 20
-42.000000000000014
 30
0.0
  0
VERTEX
  8
0
 10
68.70000000000002
 20
-40.000000000000014
 30
0.0
  0
VERTEX
  8
0
 10
60.20000000000001
 20
-40.000000000000014
 30
0.0
  0
SEQEND
  0
CIRCLE
  8
0
 10
67.70000000000002
 20
-41.000000000000014
 30
0.0
 40
0.5
  0
TEXT
  8
0
 10
60.70000000000001
 20
-41.500000000000014
 30
0.0
 40
1.0
  1
FIN-915
  0
POLYLINE
 62
256
  8
0
 66
1
 10
0.0
 20
0.0
 30
0.0
 70
9
  0
VERTEX
  8
0
 10
68.80000000000001
 20
-42.000000000000014
 30
0.0
  0
VERTEX
  8
0
 10
77.30000000000001
 20
-42.000000000000014
 30
0.0
  0
VERTEX
  8
0
 10
77.30000000000001
 20
-40.000000000000014
 30
0.0
  0
VERTEX
  8
0
 10
68.80000000000001
 20
-40.000000000000014
 30
0.0
  0
SEQEND
  0
CIRCLE
  8
0
 10
76.30000000000001
 20
-41.000000000000014
 30
0.0
 40
0.5
  0
TEXT
  8
0
 10
69.30000000000001
 20
-41.500000000000014
 30
0.0
 40
1.0
  1
FIN-916
  0
POLYLINE
 62
256
  8
0
 66
1
 10
0.0
 20
0.0
 30
0.0
 70
9
  0
VERTEX
  8
0
 10
77.4
 20
-42.000000000000014
 30
0.0
  0
VERTEX
  8
0
 10
85.9
 20
-42.000000000000014
 30
0.0
  0
VERTEX
  8
0
 10
85.9
 20
-40.000000000000014
 30
0.0
  0
VERTEX
  8
0
 10
77.4
 20
-40.000000000000014
 30
0.0
  0
SEQEND
  0
CIRCLE
  8
0
 10
84.9
 20
-41.000000000000014
 30
0.0
 40
0.5
  0
TEXT
  8
0
 10
77.9
 20
-41.500000000000014
 30
0.0
 40
1.0
  1
FIN-917
  0
POLYLINE
 62
256
  8
0
 66
1
 10
0.0
 20
0.0
 30
0.0
 70
9
  0
VERTEX
  8
0
 10
86.0
 20
-42.000000000000014
 30
0.0
  0
VERTEX
  8
0
 10
94.5
 20
-42.000000000000014
 30
0.0
  0
VERTEX
  8
0
 10
94.5
 20
-40.000000000000014
 30
0.0
  0
VERTEX
  8
0
 10
86.0
 20
-40.000000000000014
 30
0.0
  0
SEQEND
  0
CIRCLE
  8
0
 10
93.5
 20
-41.000000000000014
 30
0.0
 40
0.5
  0
TEXT
  8
0
 10
86.5
 20
-41.500000000000014
 30
0.0
 40
1.0
  1
FIN-918
  0
POLYLINE
 62
256
  8
0
 66
1
 10
0.0
 20
0.0
 30
0.0
 70
9
  0
VERTEX
  8
0
 10
0.0
 20
-44.100000000000016
 30
0.0
  0
VERTEX
  8
0
 10
8.5
 20
-44.100000000000016
 30
0.0
  0
VERTEX
  8
0
 10
8.5
 20
-42.100000000000016
 30
0.0
  0
VERTEX
  8
0
 10
0.0
 20
-42.100000000000016
 30
0.0
  0
SEQEND
  0
CIRCLE
  8
0
 10
7.5
 20
-43.100000000000016
 30
0.0
 40
0.5
  0
TEXT
  8
0
 10
0.5
 20
-43.600000000000016
 30
0.0
 40
1.0
  1
FIN-919
  0
POLYLINE
 62
256
  8
0
 66
1
 10
0.0
 20
0.0
 30
0.0
 70
9
  0
VERTEX
  8
0
 10
8.6
 20
-44.100000000000016
 30
0.0
  0
VERTEX
  8
0
 10
17.1
 20
-44.100000000000016
 30
0.0
  0
VERTEX
  8
0
 10
17.1
 20
-42.100000000000016
 30
0.0
  0
VERTEX
  8
0
 10
8.6
 20
-42.100000000000016
 30
0.0
  0
SEQEND
  0
CIRCLE
  8
0
 10
16.1
 20
-43.100000000000016
 30
0.0
 40
0.5
  0
TEXT
  8
0
 10
9.1
 20
-43.600000000000016
 30
0.0
 40
1.0
  1
FIN-92
  0
POLYLINE
 62
256
  8
0
 66
1
 10
0.0
 20
0.0
 30
0.0
 70
9
  0
VERTEX
  8
0
 10
17.200000000000003
 20
-44.100000000000016
 30
0.0
  0
VERTEX
  8
0
 10
25.700000000000003
 20
-44.100000000000016
 30
0.0
  0
VERTEX
  8
0
 10
25.700000000000003
 20
-42.100000000000016
 30
0.0
  0
VERTEX
  8
0
 10
17.200000000000003
 20
-42.100000000000016
 30
0.0
  0
SEQEND
  0
CIRCLE
  8
0
 10
24.700000000000003
 20
-43.100000000000016
 30
0.0
 40
0.5
  0
TEXT
  8
0
 10
17.700000000000003
 20
-43.600000000000016
 30
0.0
 40
1.0
  1
FIN-920
  0
POLYLINE
 62
256
  8
0
 66
1
 10
0.0
 20
0.0
 30
0.0
 70
9
  0
VERTEX
  8
0
 10
25.800000000000004
 20
-44.100000000000016
 30
0.0
  0
VERTEX
  8
0
 10
34.300000000000004
 20
-44.100000000000016
 30
0.0
  0
VERTEX
  8
0
 10
34.300000000000004
 20
-42.100000000000016
 30
0.0
  0
VERTEX
  8
0
 10
25.800000000000004
 20
-42.100000000000016
 30
0.0
  0
SEQEND
  0
CIRCLE
  8
0
 10
33.300000000000004
 20
-43.100000000000016
 30
0.0
 40
0.5
  0
TEXT
  8
0
 10
26.300000000000004
 20
-43.600000000000016
 30
0.0
 40
1.0
  1
FIN-921
  0
POLYLINE
 62
256
  8
0
 66
1
 10
0.0
 20
0.0
 30
0.0
 70
9
  0
VERTEX
  8
0
 10
34.400000000000006
 20
-44.100000000000016
 30
0.0
  0
VERTEX
  8
0
 10
42.900000000000006
 20
-44.100000000000016
 30
0.0
  0
VERTEX
  8
0
 10
42.900000000000006
 20
-42.100000000000016
 30
0.0
  0
VERTEX
  8
0
 10
34.400000000000006
 20
-42.100000000000016
 30
0.0
  0
SEQEND
  0
CIRCLE
  8
0
 10
41.900000000000006
 20
-43.100000000000016
 30
0.0
 40
0.5
  0
TEXT
  8
0
 10
34.900000000000006
 20
-43.600000000000016
 30
0.0
 40
1.0
  1
FIN-922
  0
POLYLINE
 62
256
  8
0
 66
1
 10
0.0
 20
0.0
 30
0.0
 70
9
  0
VERTEX
  8
0
 10
43.00000000000001
 20
-44.100000000000016
 30
0.0
  0
VERTEX
  8
0
 10
51.50000000000001
 20
-44.100000000000016
 30
0.0
  0
VERTEX
  8
0
 10
51.50000000000001
 20
-42.100000000000016
 30
0.0
  0
VERTEX
  8
0
 10
43.00000000000001
 20
-42.100000000000016
 30
0.0
  0
SEQEND
  0
CIRCLE
  8
0
 10
50.50000000000001
 20
-43.100000000000016
 30
0.0
 40
0.5
  0
TEXT
  8
0
 10
43.50000000000001
 20
-43.600000000000016
 30
0.0
 40
1.0
  1
FIN-923
  0
POLYLINE
 62
256
  8
0
 66
1
 10
0.0
 20
0.0
 30
0.0
 70
9
  0
VERTEX
  8
0
 10
51.60000000000001
 20
-44.100000000000016
 30
0.0
  0
VERTEX
  8
0
 10
60.10000000000001
 20
-44.100000000000016
 30
0.0
  0
VERTEX
  8
0
 10
60.10000000000001
 20
-42.100000000000016
 30
0.0
  0
VERTEX
  8
0
 10
51.60000000000001
 20
-42.100000000000016
 30
0.0
  0
SEQEND
  0
CIRCLE
  8
0
 10
59.10000000000001
 20
-43.100000000000016
 30
0.0
 40
0.5
  0
TEXT
  8
0
 10
52.10000000000001
 20
-43.600000000000016
 30
0.0
 40
1.0
  1
FIN-924
  0
POLYLINE
 62
256
  8
0
 66
1
 10
0.0
 20
0.0
 30
0.0
 70
9
  0
VERTEX
  8
0
 10
60.20000000000001
 20
-44.100000000000016
 30
0.0
  0
VERTEX
  8
0
 10
68.70000000000002
 20
-44.100000000000016
 30
0.0
  0
VERTEX
  8
0
 10
68.70000000000002
 20
-42.100000000000016
 30
0.0
  0
VERTEX
  8
0
 10
60.20000000000001
 20
-42.100000000000016
 30
0.0
  0
SEQEND
  0
CIRCLE
  8
0
 10
67.70000000000002
 20
-43.100000000000016
 30
0.0
 40
0.5
  0
TEXT
  8
0
 10
60.70000000000001
 20
-43.600000000000016
 30
0.0
 40
1.0
  1
FIN-925
  0
POLYLINE
 62
256
  8
0
 66
1
 10
0.0
 20
0.0
 30
0.0
 70
9
  0
VERTEX
  8
0
 10
68.80000000000001
 20
-44.100000000000016
 30
0.0
  0
VERTEX
  8
0
 10
77.30000000000001
 20
-44.100000000000016
 30
0.0
  0
VERTEX
  8
0
 10
77.30000000000001
 20
-42.100000000000016
 30
0.0
  0
VERTEX
  8
0
 10
68.80000000000001
 20
-42.100000000000016
 30
0.0
  0
SEQEND
  0
CIRCLE
  8
0
 10
76.30000000000001
 20
-43.100000000000016
 30
0.0
 40
0.5
  0
TEXT
  8
0
 10
69.30000000000001
 20
-43.600000000000016
 30
0.0
 40
1.0
  1
FIN-926
  0
POLYLINE
 62
256
  8
0
 66
1
 10
0.0
 20
0.0
 30
0.0
 70
9
  0
VERTEX
  8
0
 10
77.4
 20
-44.100000000000016
 30
0.0
  0
VERTEX
  8
0
 10
85.9
 20
-44.100000000000016
 30
0.0
  0
VERTEX
  8
0
 10
85.9
 20
-42.100000000000016
 30
0.0
  0
VERTEX
  8
0
 10
77.4
 20
-42.100000000000016
 30
0.0
  0
SEQEND
  0
CIRCLE
  8
0
 10
84.9
 20
-43.100000000000016
 30
0.0
 40
0.5
  0
TEXT
  8
0
 10
77.9
 20
-43.600000000000016
 30
0.0
 40
1.0
  1
FIN-927
  0
POLYLINE
 62
256
  8
0
 66
1
 10
0.0
 20
0.0
 30
0.0
 70
9
  0
VERTEX
  8
0
 10
86.0
 20
-44.100000000000016
 30
0.0
  0
VERTEX
  8
0
 10
94.5
 20
-44.100000000000016
 30
0.0
  0
VERTEX
  8
0
 10
94.5
 20
-42.100000000000016
 30
0.0
  0
VERTEX
  8
0
 10
86.0
 20
-42.100000000000016
 30
0.0
  0
SEQEND
  0
CIRCLE
  8
0
 10
93.5
 20
-43.100000000000016
 30
0.0
 40
0.5
  0
TEXT
  8
0
 10
86.5
 20
-43.600000000000016
 30
0.0
 40
1.0
  1
FIN-928
  0
POLYLINE
 62
256
  8
0
 66
1
 10
0.0
 20
0.0
 30
0.0
 70
9
  0
VERTEX
  8
0
 10
0.0
 20
-46.20000000000002
 30
0.0
  0
VERTEX
  8
0
 10
8.5
 20
-46.20000000000002
 30
0.0
  0
VERTEX
  8
0
 10
8.5
 20
-44.20000000000002
 30
0.0
  0
VERTEX
  8
0
 10
0.0
 20
-44.20000000000002
 30
0.0
  0
SEQEND
  0
CIRCLE
  8
0
 10
7.5
 20
-45.20000000000002
 30
0.0
 40
0.5
  0
TEXT
  8
0
 10
0.5
 20
-45.70000000000002
 30
0.0
 40
1.0
  1
FIN-929
  0
POLYLINE
 62
256
  8
0
 66
1
 10
0.0
 20
0.0
 30
0.0
 70
9
  0
VERTEX
  8
0
 10
8.6
 20
-46.20000000000002
 30
0.0
  0
VERTEX
  8
0
 10
17.1
 20
-46.20000000000002
 30
0.0
  0
VERTEX
  8
0
 10
17.1
 20
-44.20000000000002
 30
0.0
  0
VERTEX
  8
0
 10
8.6
 20
-44.20000000000002
 30
0.0
  0
SEQEND
  0
CIRCLE
  8
0
 10
16.1
 20
-45.20000000000002
 30
0.0
 40
0.5
  0
TEXT
  8
0
 10
9.1
 20
-45.70000000000002
 30
0.0
 40
1.0
  1
FIN-93
  0
POLYLINE
 62
256
  8
0
 66
1
 10
0.0
 20
0.0
 30
0.0
 70
9
  0
VERTEX
  8
0
 10
17.200000000000003
 20
-46.20000000000002
 30
0.0
  0
VERTEX
  8
0
 10
25.700000000000003
 20
-46.20000000000002
 30
0.0
  0
VERTEX
  8
0
 10
25.700000000000003
 20
-44.20000000000002
 30
0.0
  0
VERTEX
  8
0
 10
17.200000000000003
 20
-44.20000000000002
 30
0.0
  0
SEQEND
  0
CIRCLE
  8
0
 10
24.700000000000003
 20
-45.20000000000002
 30
0.0
 40
0.5
  0
TEXT
  8
0
 10
17.700000000000003
 20
-45.70000000000002
 30
0.0
 40
1.0
  1
FIN-930
  0
POLYLINE
 62
256
  8
0
 66
1
 10
0.0
 20
0.0
 30
0.0
 70
9
  0
VERTEX
  8
0
 10
25.800000000000004
 20
-46.20000000000002
 30
0.0
  0
VERTEX
  8
0
 10
34.300000000000004
 20
-46.20000000000002
 30
0.0
  0
VERTEX
  8
0
 10
34.300000000000004
 20
-44.20000000000002
 30
0.0
  0
VERTEX
  8
0
 10
25.800000000000004
 20
-44.20000000000002
 30
0.0
  0
SEQEND
  0
CIRCLE
  8
0
 10
33.300000000000004
 20
-45.20000000000002
 30
0.0
 40
0.5
  0
TEXT
  8
0
 10
26.300000000000004
 20
-45.70000000000002
 30
0.0
 40
1.0
  1
FIN-931
  0
POLYLINE
 62
256
  8
0
 66
1
 10
0.0
 20
0.0
 30
0.0
 70
9
  0
VERTEX
  8
0
 10
34.400000000000006
 20
-46.20000000000002
 30
0.0
  0
VERTEX
  8
0
 10
42.900000000000006
 20
-46.20000000000002
 30
0.0
  0
VERTEX
  8
0
 10
42.900000000000006
 20
-44.20000000000002
 30
0.0
  0
VERTEX
  8
0
 10
34.400000000000006
 20
-44.20000000000002
 30
0.0
  0
SEQEND
  0
CIRCLE
  8
0
 10
41.900000000000006
 20
-45.20000000000002
 30
0.0
 40
0.5
  0
TEXT
  8
0
 10
34.900000000000006
 20
-45.70000000000002
 30
0.0
 40
1.0
  1
FIN-932
  0
POLYLINE
 62
256
  8
0
 66
1
 10
0.0
 20
0.0
 30
0.0
 70
9
  0
VERTEX
  8
0
 10
43.00000000000001
 20
-46.20000000000002
 30
0.0
  0
VERTEX
  8
0
 10
51.50000000000001
 20
-46.20000000000002
 30
0.0
  0
VERTEX
  8
0
 10
51.50000000000001
 20
-44.20000000000002
 30
0.0
  0
VERTEX
  8
0
 10
43.00000000000001
 20
-44.20000000000002
 30
0.0
  0
SEQEND
  0
CIRCLE
  8
0
 10
50.50000000000001
 20
-45.20000000000002
 30
0.0
 40
0.5
  0
TEXT
  8
0
 10
43.50000000000001
 20
-45.70000000000002
 30
0.0
 40
1.0
  1
FIN-933
  0
POLYLINE
 62
256
  8
0
 66
1
 10
0.0
 20
0.0
 30
0.0
 70
9
  0
VERTEX
  8
0
 10
51.60000000000001
 20
-46.20000000000002
 30
0.0
  0
VERTEX
  8
0
 10
60.10000000000001
 20
-46.20000000000002
 30
0.0
  0
VERTEX
  8
0
 10
60.10000000000001
 20
-44.20000000000002
 30
0.0
  0
VERTEX
  8
0
 10
51.60000000000001
 20
-44.20000000000002
 30
0.0
  0
SEQEND
  0
CIRCLE
  8
0
 10
59.10000000000001
 20
-45.20000000000002
 30
0.0
 40
0.5
  0
TEXT
  8
0
 10
52.10000000000001
 20
-45.70000000000002
 30
0.0
 40
1.0
  1
FIN-934
  0
POLYLINE
 62
256
  8
0
 66
1
 10
0.0
 20
0.0
 30
0.0
 70
9
  0
VERTEX
  8
0
 10
60.20000000000001
 20
-46.20000000000002
 30
0.0
  0
VERTEX
  8
0
 10
68.70000000000002
 20
-46.20000000000002
 30
0.0
  0
VERTEX
  8
0
 10
68.70000000000002
 20
-44.20000000000002
 30
0.0
  0
VERTEX
  8
0
 10
60.20000000000001
 20
-44.20000000000002
 30
0.0
  0
SEQEND
  0
CIRCLE
  8
0
 10
67.70000000000002
 20
-45.20000000000002
 30
0.0
 40
0.5
  0
TEXT
  8
0
 10
60.70000000000001
 20
-45.70000000000002
 30
0.0
 40
1.0
  1
FIN-935
  0
POLYLINE
 62
256
  8
0
 66
1
 10
0.0
 20
0.0
 30
0.0
 70
9
  0
VERTEX
  8
0
 10
68.80000000000001
 20
-46.20000000000002
 30
0.0
  0
VERTEX
  8
0
 10
77.30000000000001
 20
-46.20000000000002
 30
0.0
  0
VERTEX
  8
0
 10
77.30000000000001
 20
-44.20000000000002
 30
0.0
  0
VERTEX
  8
0
 10
68.80000000000001
 20
-44.20000000000002
 30
0.0
  0
SEQEND
  0
CIRCLE
  8
0
 10
76.30000000000001
 20
-45.20000000000002
 30
0.0
 40
0.5
  0
TEXT
  8
0
 10
69.30000000000001
 20
-45.70000000000002
 30
0.0
 40
1.0
  1
FIN-936
  0
POLYLINE
 62
256
  8
0
 66
1
 10
0.0
 20
0.0
 30
0.0
 70
9
  0
VERTEX
  8
0
 10
77.4
 20
-46.20000000000002
 30
0.0
  0
VERTEX
  8
0
 10
85.9
 20
-46.20000000000002
 30
0.0
  0
VERTEX
  8
0
 10
85.9
 20
-44.20000000000002
 30
0.0
  0
VERTEX
  8
0
 10
77.4
 20
-44.20000000000002
 30
0.0
  0
SEQEND
  0
CIRCLE
  8
0
 10
84.9
 20
-45.20000000000002
 30
0.0
 40
0.5
  0
TEXT
  8
0
 10
77.9
 20
-45.70000000000002
 30
0.0
 40
1.0
  1
FIN-937
  0
POLYLINE
 62
256
  8
0
 66
1
 10
0.0
 20
0.0
 30
0.0
 70
9
  0
VERTEX
  8
0
 10
86.0
 20
-46.20000000000002
 30
0.0
  0
VERTEX
  8
0
 10
94.5
 20
-46.20000000000002
 30
0.0
  0
VERTEX
  8
0
 10
94.5
 20
-44.20000000000002
 30
0.0
  0
VERTEX
  8
0
 10
86.0
 20
-44.20000000000002
 30
0.0
  0
SEQEND
  0
CIRCLE
  8
0
 10
93.5
 20
-45.20000000000002
 30
0.0
 40
0.5
  0
TEXT
  8
0
 10
86.5
 20
-45.70000000000002
 30
0.0
 40
1.0
  1
FIN-938
  0
POLYLINE
 62
256
  8
0
 66
1
 10
0.0
 20
0.0
 30
0.0
 70
9
  0
VERTEX
  8
0
 10
0.0
 20
-48.30000000000002
 30
0.0
  0
VERTEX
  8
0
 10
8.5
 20
-48.30000000000002
 30
0.0
  0
VERTEX
  8
0
 10
8.5
 20
-46.30000000000002
 30
0.0
  0
VERTEX
  8
0
 10
0.0
 20
-46.30000000000002
 30
0.0
  0
SEQEND
  0
CIRCLE
  8
0
 10
7.5
 20
-47.30000000000002
 30
0.0
 40
0.5
  0
TEXT
  8
0
 10
0.5
 20
-47.80000000000002
 30
0.0
 40
1.0
  1
FIN-939
  0
POLYLINE
 62
256
  8
0
 66
1
 10
0.0
 20
0.0
 30
0.0
 70
9
  0
VERTEX
  8
0
 10
8.6
 20
-48.30000000000002
 30
0.0
  0
VERTEX
  8
0
 10
17.1
 20
-48.30000000000002
 30
0.0
  0
VERTEX
  8
0
 10
17.1
 20
-46.30000000000002
 30
0.0
  0
VERTEX
  8
0
 10
8.6
 20
-46.30000000000002
 30
0.0
  0
SEQEND
  0
CIRCLE
  8
0
 10
16.1
 20
-47.30000000000002
 30
0.0
 40
0.5
  0
TEXT
  8
0
 10
9.1
 20
-47.80000000000002
 30
0.0
 40
1.0
  1
FIN-94
  0
POLYLINE
 62
256
  8
0
 66
1
 10
0.0
 20
0.0
 30
0.0
 70
9
  0
VERTEX
  8
0
 10
17.200000000000003
 20
-48.30000000000002
 30
0.0
  0
VERTEX
  8
0
 10
25.700000000000003
 20
-48.30000000000002
 30
0.0
  0
VERTEX
  8
0
 10
25.700000000000003
 20
-46.30000000000002
 30
0.0
  0
VERTEX
  8
0
 10
17.200000000000003
 20
-46.30000000000002
 30
0.0
  0
SEQEND
  0
CIRCLE
  8
0
 10
24.700000000000003
 20
-47.30000000000002
 30
0.0
 40
0.5
  0
TEXT
  8
0
 10
17.700000000000003
 20
-47.80000000000002
 30
0.0
 40
1.0
  1
FIN-940
  0
POLYLINE
 62
256
  8
0
 66
1
 10
0.0
 20
0.0
 30
0.0
 70
9
  0
VERTEX
  8
0
 10
25.800000000000004
 20
-48.30000000000002
 30
0.0
  0
VERTEX
  8
0
 10
34.300000000000004
 20
-48.30000000000002
 30
0.0
  0
VERTEX
  8
0
 10
34.300000000000004
 20
-46.30000000000002
 30
0.0
  0
VERTEX
  8
0
 10
25.800000000000004
 20
-46.30000000000002
 30
0.0
  0
SEQEND
  0
CIRCLE
  8
0
 10
33.300000000000004
 20
-47.30000000000002
 30
0.0
 40
0.5
  0
TEXT
  8
0
 10
26.300000000000004
 20
-47.80000000000002
 30
0.0
 40
1.0
  1
FIN-941
  0
POLYLINE
 62
256
  8
0
 66
1
 10
0.0
 20
0.0
 30
0.0
 70
9
  0
VERTEX
  8
0
 10
34.400000000000006
 20
-48.30000000000002
 30
0.0
  0
VERTEX
  8
0
 10
42.900000000000006
 20
-48.30000000000002
 30
0.0
  0
VERTEX
  8
0
 10
42.900000000000006
 20
-46.30000000000002
 30
0.0
  0
VERTEX
  8
0
 10
34.400000000000006
 20
-46.30000000000002
 30
0.0
  0
SEQEND
  0
CIRCLE
  8
0
 10
41.900000000000006
 20
-47.30000000000002
 30
0.0
 40
0.5
  0
TEXT
  8
0
 10
34.900000000000006
 20
-47.80000000000002
 30
0.0
 40
1.0
  1
FIN-942
  0
POLYLINE
 62
256
  8
0
 66
1
 10
0.0
 20
0.0
 30
0.0
 70
9
  0
VERTEX
  8
0
 10
43.00000000000001
 20
-48.30000000000002
 30
0.0
  0
VERTEX
  8
0
 10
51.50000000000001
 20
-48.30000000000002
 30
0.0
  0
VERTEX
  8
0
 10
51.50000000000001
 20
-46.30000000000002
 30
0.0
  0
VERTEX
  8
0
 10
43.00000000000001
 20
-46.30000000000002
 30
0.0
  0
SEQEND
  0
CIRCLE
  8
0
 10
50.50000000000001
 20
-47.30000000000002
 30
0.0
 40
0.5
  0
TEXT
  8
0
 10
43.50000000000001
 20
-47.80000000000002
 30
0.0
 40
1.0
  1
FIN-943
  0
POLYLINE
 62
256
  8
0
 66
1
 10
0.0
 20
0.0
 30
0.0
 70
9
  0
VERTEX
  8
0
 10
51.60000000000001
 20
-48.30000000000002
 30
0.0
  0
VERTEX
  8
0
 10
60.10000000000001
 20
-48.30000000000002
 30
0.0
  0
VERTEX
  8
0
 10
60.10000000000001
 20
-46.30000000000002
 30
0.0
  0
VERTEX
  8
0
 10
51.60000000000001
 20
-46.30000000000002
 30
0.0
  0
SEQEND
  0
CIRCLE
  8
0
 10
59.10000000000001
 20
-47.30000000000002
 30
0.0
 40
0.5
  0
TEXT
  8
0
 10
52.10000000000001
 20
-47.80000000000002
 30
0.0
 40
1.0
  1
FIN-944
  0
POLYLINE
 62
256
  8
0
 66
1
 10
0.0
 20
0.0
 30
0.0
 70
9
  0
VERTEX
  8
0
 10
60.20000000000001
 20
-48.30000000000002
 30
0.0
  0
VERTEX
  8
0
 10
68.70000000000002
 20
-48.30000000000002
 30
0.0
  0
VERTEX
  8
0
 10
68.70000000000002
 20
-46.30000000000002
 30
0.0
  0
VERTEX
  8
0
 10
60.20000000000001
 20
-46.30000000000002
 30
0.0
  0
SEQEND
  0
CIRCLE
  8
0
 10
67.70000000000002
 20
-47.30000000000002
 30
0.0
 40
0.5
  0
TEXT
  8
0
 10
60.70000000000001
 20
-47.80000000000002
 30
0.0
 40
1.0
  1
FIN-945
  0
POLYLINE
 62
256
  8
0
 66
1
 10
0.0
 20
0.0
 30
0.0
 70
9
  0
VERTEX
  8
0
 10
68.80000000000001
 20
-48.30000000000002
 30
0.0
  0
VERTEX
  8
0
 10
77.30000000000001
 20
-48.30000000000002
 30
0.0
  0
VERTEX
  8
0
 10
77.30000000000001
 20
-46.30000000000002
 30
0.0
  0
VERTEX
  8
0
 10
68.80000000000001
 20
-46.30000000000002
 30
0.0
  0
SEQEND
  0
CIRCLE
  8
0
 10
76.30000000000001
 20
-47.30000000000002
 30
0.0
 40
0.5
  0
TEXT
  8
0
 10
69.30000000000001
 20
-47.80000000000002
 30
0.0
 40
1.0
  1
FIN-946
  0
POLYLINE
 62
256
  8
0
 66
1
 10
0.0
 20
0.0
 30
0.0
 70
9
  0
VERTEX
  8
0
 10
77.4
 20
-48.30000000000002
 30
0.0
  0
VERTEX
  8
0
 10
85.9
 20
-48.30000000000002
 30
0.0
  0
VERTEX
  8
0
 10
85.9
 20
-46.30000000000002
 30
0.0
  0
VERTEX
  8
0
 10
77.4
 20
-46.30000000000002
 30
0.0
  0
SEQEND
  0
CIRCLE
  8
0
 10
84.9
 20
-47.30000000000002
 30
0.0
 40
0.5
  0
TEXT
  8
0
 10
77.9
 20
-47.80000000000002
 30
0.0
 40
1.0
  1
FIN-947
  0
POLYLINE
 62
256
  8
0
 66
1
 10
0.0
 20
0.0
 30
0.0
 70
9
  0
VERTEX
  8
0
 10
86.0
 20
-48.30000000000002
 30
0.0
  0
VERTEX
  8
0
 10
94.5
 20
-48.30000000000002
 30
0.0
  0
VERTEX
  8
0
 10
94.5
 20
-46.30000000000002
 30
0.0
  0
VERTEX
  8
0
 10
86.0
 20
-46.30000000000002
 30
0.0
  0
SEQEND
  0
CIRCLE
  8
0
 10
93.5
 20
-47.30000000000002
 30
0.0
 40
0.5
  0
TEXT
  8
0
 10
86.5
 20
-47.80000000000002
 30
0.0
 40
1.0
  1
FIN-948
  0
POLYLINE
 62
256
  8
0
 66
1
 10
0.0
 20
0.0
 30
0.0
 70
9
  0
VERTEX
  8
0
 10
0.0
 20
-50.40000000000002
 30
0.0
  0
VERTEX
  8
0
 10
8.5
 20
-50.40000000000002
 30
0.0
  0
VERTEX
  8
0
 10
8.5
 20
-48.40000000000002
 30
0.0
  0
VERTEX
  8
0
 10
0.0
 20
-48.40000000000002
 30
0.0
  0
SEQEND
  0
CIRCLE
  8
0
 10
7.5
 20
-49.40000000000002
 30
0.0
 40
0.5
  0
TEXT
  8
0
 10
0.5
 20
-49.90000000000002
 30
0.0
 40
1.0
  1
FIN-949
  0
POLYLINE
 62
256
  8
0
 66
1
 10
0.0
 20
0.0
 30
0.0
 70
9
  0
VERTEX
  8
0
 10
8.6
 20
-50.40000000000002
 30
0.0
  0
VERTEX
  8
0
 10
17.1
 20
-50.40000000000002
 30
0.0
  0
VERTEX
  8
0
 10
17.1
 20
-48.40000000000002
 30
0.0
  0
VERTEX
  8
0
 10
8.6
 20
-48.40000000000002
 30
0.0
  0
SEQEND
  0
CIRCLE
  8
0
 10
16.1
 20
-49.40000000000002
 30
0.0
 40
0.5
  0
TEXT
  8
0
 10
9.1
 20
-49.90000000000002
 30
0.0
 40
1.0
  1
FIN-95
  0
POLYLINE
 62
256
  8
0
 66
1
 10
0.0
 20
0.0
 30
0.0
 70
9
  0
VERTEX
  8
0
 10
17.200000000000003
 20
-50.40000000000002
 30
0.0
  0
VERTEX
  8
0
 10
25.700000000000003
 20
-50.40000000000002
 30
0.0
  0
VERTEX
  8
0
 10
25.700000000000003
 20
-48.40000000000002
 30
0.0
  0
VERTEX
  8
0
 10
17.200000000000003
 20
-48.40000000000002
 30
0.0
  0
SEQEND
  0
CIRCLE
  8
0
 10
24.700000000000003
 20
-49.40000000000002
 30
0.0
 40
0.5
  0
TEXT
  8
0
 10
17.700000000000003
 20
-49.90000000000002
 30
0.0
 40
1.0
  1
FIN-950
  0
POLYLINE
 62
256
  8
0
 66
1
 10
0.0
 20
0.0
 30
0.0
 70
9
  0
VERTEX
  8
0
 10
25.800000000000004
 20
-50.40000000000002
 30
0.0
  0
VERTEX
  8
0
 10
34.300000000000004
 20
-50.40000000000002
 30
0.0
  0
VERTEX
  8
0
 10
34.300000000000004
 20
-48.40000000000002
 30
0.0
  0
VERTEX
  8
0
 10
25.800000000000004
 20
-48.40000000000002
 30
0.0
  0
SEQEND
  0
CIRCLE
  8
0
 10
33.300000000000004
 20
-49.40000000000002
 30
0.0
 40
0.5
  0
TEXT
  8
0
 10
26.300000000000004
 20
-49.90000000000002
 30
0.0
 40
1.0
  1
FIN-951
  0
POLYLINE
 62
256
  8
0
 66
1
 10
0.0
 20
0.0
 30
0.0
 70
9
  0
VERTEX
  8
0
 10
34.400000000000006
 20
-50.40000000000002
 30
0.0
  0
VERTEX
  8
0
 10
42.900000000000006
 20
-50.40000000000002
 30
0.0
  0
VERTEX
  8
0
 10
42.900000000000006
 20
-48.40000000000002
 30
0.0
  0
VERTEX
  8
0
 10
34.400000000000006
 20
-48.40000000000002
 30
0.0
  0
SEQEND
  0
CIRCLE
  8
0
 10
41.900000000000006
 20
-49.40000000000002
 30
0.0
 40
0.5
  0
TEXT
  8
0
 10
34.900000000000006
 20
-49.90000000000002
 30
0.0
 40
1.0
  1
FIN-952
  0
POLYLINE
 62
256
  8
0
 66
1
 10
0.0
 20
0.0
 30
0.0
 70
9
  0
VERTEX
  8
0
 10
43.00000000000001
 20
-50.40000000000002
 30
0.0
  0
VERTEX
  8
0
 10
51.50000000000001
 20
-50.40000000000002
 30
0.0
  0
VERTEX
  8
0
 10
51.50000000000001
 20
-48.40000000000002
 30
0.0
  0
VERTEX
  8
0
 10
43.00000000000001
 20
-48.40000000000002
 30
0.0
  0
SEQEND
  0
CIRCLE
  8
0
 10
50.50000000000001
 20
-49.40000000000002
 30
0.0
 40
0.5
  0
TEXT
  8
0
 10
43.50000000000001
 20
-49.90000000000002
 30
0.0
 40
1.0
  1
FIN-953
  0
POLYLINE
 62
256
  8
0
 66
1
 10
0.0
 20
0.0
 30
0.0
 70
9
  0
VERTEX
  8
0
 10
51.60000000000001
 20
-50.40000000000002
 30
0.0
  0
VERTEX
  8
0
 10
60.10000000000001
 20
-50.40000000000002
 30
0.0
  0
VERTEX
  8
0
 10
60.10000000000001
 20
-48.40000000000002
 30
0.0
  0
VERTEX
  8
0
 10
51.60000000000001
 20
-48.40000000000002
 30
0.0
  0
SEQEND
  0
CIRCLE
  8
0
 10
59.10000000000001
 20
-49.40000000000002
 30
0.0
 40
0.5
  0
TEXT
  8
0
 10
52.10000000000001
 20
-49.90000000000002
 30
0.0
 40
1.0
  1
FIN-954
  0
POLYLINE
 62
256
  8
0
 66
1
 10
0.0
 20
0.0
 30
0.0
 70
9
  0
VERTEX
  8
0
 10
60.20000000000001
 20
-50.40000000000002
 30
0.0
  0
VERTEX
  8
0
 10
68.70000000000002
 20
-50.40000000000002
 30
0.0
  0
VERTEX
  8
0
 10
68.70000000000002
 20
-48.40000000000002
 30
0.0
  0
VERTEX
  8
0
 10
60.20000000000001
 20
-48.40000000000002
 30
0.0
  0
SEQEND
  0
CIRCLE
  8
0
 10
67.70000000000002
 20
-49.40000000000002
 30
0.0
 40
0.5
  0
TEXT
  8
0
 10
60.70000000000001
 20
-49.90000000000002
 30
0.0
 40
1.0
  1
FIN-955
  0
POLYLINE
 62
256
  8
0
 66
1
 10
0.0
 20
0.0
 30
0.0
 70
9
  0
VERTEX
  8
0
 10
68.80000000000001
 20
-50.40000000000002
 30
0.0
  0
VERTEX
  8
0
 10
77.30000000000001
 20
-50.40000000000002
 30
0.0
  0
VERTEX
  8
0
 10
77.30000000000001
 20
-48.40000000000002
 30
0.0
  0
VERTEX
  8
0
 10
68.80000000000001
 20
-48.40000000000002
 30
0.0
  0
SEQEND
  0
CIRCLE
  8
0
 10
76.30000000000001
 20
-49.40000000000002
 30
0.0
 40
0.5
  0
TEXT
  8
0
 10
69.30000000000001
 20
-49.90000000000002
 30
0.0
 40
1.0
  1
FIN-956
  0
POLYLINE
 62
256
  8
0
 66
1
 10
0.0
 20
0.0
 30
0.0
 70
9
  0
VERTEX
  8
0
 10
77.4
 20
-50.40000000000002
 30
0.0
  0
VERTEX
  8
0
 10
85.9
 20
-50.40000000000002
 30
0.0
  0
VERTEX
  8
0
 10
85.9
 20
-48.40000000000002
 30
0.0
  0
VERTEX
  8
0
 10
77.4
 20
-48.40000000000002
 30
0.0
  0
SEQEND
  0
CIRCLE
  8
0
 10
84.9
 20
-49.40000000000002
 30
0.0
 40
0.5
  0
TEXT
  8
0
 10
77.9
 20
-49.90000000000002
 30
0.0
 40
1.0
  1
FIN-957
  0
POLYLINE
 62
256
  8
0
 66
1
 10
0.0
 20
0.0
 30
0.0
 70
9
  0
VERTEX
  8
0
 10
86.0
 20
-50.40000000000002
 30
0.0
  0
VERTEX
  8
0
 10
94.5
 20
-50.40000000000002
 30
0.0
  0
VERTEX
  8
0
 10
94.5
 20
-48.40000000000002
 30
0.0
  0
VERTEX
  8
0
 10
86.0
 20
-48.40000000000002
 30
0.0
  0
SEQEND
  0
CIRCLE
  8
0
 10
93.5
 20
-49.40000000000002
 30
0.0
 40
0.5
  0
TEXT
  8
0
 10
86.5
 20
-49.90000000000002
 30
0.0
 40
1.0
  1
FIN-958
  0
POLYLINE
 62
256
  8
0
 66
1
 10
0.0
 20
0.0
 30
0.0
 70
9
  0
VERTEX
  8
0
 10
0.0
 20
-52.50000000000002
 30
0.0
  0
VERTEX
  8
0
 10
8.5
 20
-52.50000000000002
 30
0.0
  0
VERTEX
  8
0
 10
8.5
 20
-50.50000000000002
 30
0.0
  0
VERTEX
  8
0
 10
0.0
 20
-50.50000000000002
 30
0.0
  0
SEQEND
  0
CIRCLE
  8
0
 10
7.5
 20
-51.50000000000002
 30
0.0
 40
0.5
  0
TEXT
  8
0
 10
0.5
 20
-52.00000000000002
 30
0.0
 40
1.0
  1
FIN-959
  0
POLYLINE
 62
256
  8
0
 66
1
 10
0.0
 20
0.0
 30
0.0
 70
9
  0
VERTEX
  8
0
 10
8.6
 20
-52.50000000000002
 30
0.0
  0
VERTEX
  8
0
 10
17.1
 20
-52.50000000000002
 30
0.0
  0
VERTEX
  8
0
 10
17.1
 20
-50.50000000000002
 30
0.0
  0
VERTEX
  8
0
 10
8.6
 20
-50.50000000000002
 30
0.0
  0
SEQEND
  0
CIRCLE
  8
0
 10
16.1
 20
-51.50000000000002
 30
0.0
 40
0.5
  0
TEXT
  8
0
 10
9.1
 20
-52.00000000000002
 30
0.0
 40
1.0
  1
FIN-96
  0
POLYLINE
 62
256
  8
0
 66
1
 10
0.0
 20
0.0
 30
0.0
 70
9
  0
VERTEX
  8
0
 10
17.200000000000003
 20
-52.50000000000002
 30
0.0
  0
VERTEX
  8
0
 10
25.700000000000003
 20
-52.50000000000002
 30
0.0
  0
VERTEX
  8
0
 10
25.700000000000003
 20
-50.50000000000002
 30
0.0
  0
VERTEX
  8
0
 10
17.200000000000003
 20
-50.50000000000002
 30
0.0
  0
SEQEND
  0
CIRCLE
  8
0
 10
24.700000000000003
 20
-51.50000000000002
 30
0.0
 40
0.5
  0
TEXT
  8
0
 10
17.700000000000003
 20
-52.00000000000002
 30
0.0
 40
1.0
  1
FIN-960
  0
POLYLINE
 62
256
  8
0
 66
1
 10
0.0
 20
0.0
 30
0.0
 70
9
  0
VERTEX
  8
0
 10
25.800000000000004
 20
-52.50000000000002
 30
0.0
  0
VERTEX
  8
0
 10
34.300000000000004
 20
-52.50000000000002
 30
0.0
  0
VERTEX
  8
0
 10
34.300000000000004
 20
-50.50000000000002
 30
0.0
  0
VERTEX
  8
0
 10
25.800000000000004
 20
-50.50000000000002
 30
0.0
  0
SEQEND
  0
CIRCLE
  8
0
 10
33.300000000000004
 20
-51.50000000000002
 30
0.0
 40
0.5
  0
TEXT
  8
0
 10
26.300000000000004
 20
-52.00000000000002
 30
0.0
 40
1.0
  1
FIN-961
  0
POLYLINE
 62
256
  8
0
 66
1
 10
0.0
 20
0.0
 30
0.0
 70
9
  0
VERTEX
  8
0
 10
34.400000000000006
 20
-52.50000000000002
 30
0.0
  0
VERTEX
  8
0
 10
42.900000000000006
 20
-52.50000000000002
 30
0.0
  0
VERTEX
  8
0
 10
42.900000000000006
 20
-50.50000000000002
 30
0.0
  0
VERTEX
  8
0
 10
34.400000000000006
 20
-50.50000000000002
 30
0.0
  0
SEQEND
  0
CIRCLE
  8
0
 10
41.900000000000006
 20
-51.50000000000002
 30
0.0
 40
0.5
  0
TEXT
  8
0
 10
34.900000000000006
 20
-52.00000000000002
 30
0.0
 40
1.0
  1
FIN-962
  0
POLYLINE
 62
256
  8
0
 66
1
 10
0.0
 20
0.0
 30
0.0
 70
9
  0
VERTEX
  8
0
 10
43.00000000000001
 20
-52.50000000000002
 30
0.0
  0
VERTEX
  8
0
 10
51.50000000000001
 20
-52.50000000000002
 30
0.0
  0
VERTEX
  8
0
 10
51.50000000000001
 20
-50.50000000000002
 30
0.0
  0
VERTEX
  8
0
 10
43.00000000000001
 20
-50.50000000000002
 30
0.0
  0
SEQEND
  0
CIRCLE
  8
0
 10
50.50000000000001
 20
-51.50000000000002
 30
0.0
 40
0.5
  0
TEXT
  8
0
 10
43.50000000000001
 20
-52.00000000000002
 30
0.0
 40
1.0
  1
FIN-963
  0
POLYLINE
 62
256
  8
0
 66
1
 10
0.0
 20
0.0
 30
0.0
 70
9
  0
VERTEX
  8
0
 10
51.60000000000001
 20
-52.50000000000002
 30
0.0
  0
VERTEX
  8
0
 10
60.10000000000001
 20
-52.50000000000002
 30
0.0
  0
VERTEX
  8
0
 10
60.10000000000001
 20
-50.50000000000002
 30
0.0
  0
VERTEX
  8
0
 10
51.60000000000001
 20
-50.50000000000002
 30
0.0
  0
SEQEND
  0
CIRCLE
  8
0
 10
59.10000000000001
 20
-51.50000000000002
 30
0.0
 40
0.5
  0
TEXT
  8
0
 10
52.10000000000001
 20
-52.00000000000002
 30
0.0
 40
1.0
  1
FIN-964
  0
POLYLINE
 62
256
  8
0
 66
1
 10
0.0
 20
0.0
 30
0.0
 70
9
  0
VERTEX
  8
0
 10
60.20000000000001
 20
-52.50000000000002
 30
0.0
  0
VERTEX
  8
0
 10
68.70000000000002
 20
-52.50000000000002
 30
0.0
  0
VERTEX
  8
0
 10
68.70000000000002
 20
-50.50000000000002
 30
0.0
  0
VERTEX
  8
0
 10
60.20000000000001
 20
-50.50000000000002
 30
0.0
  0
SEQEND
  0
CIRCLE
  8
0
 10
67.70000000000002
 20
-51.50000000000002
 30
0.0
 40
0.5
  0
TEXT
  8
0
 10
60.70000000000001
 20
-52.00000000000002
 30
0.0
 40
1.0
  1
FIN-965
  0
POLYLINE
 62
256
  8
0
 66
1
 10
0.0
 20
0.0
 30
0.0
 70
9
  0
VERTEX
  8
0
 10
68.80000000000001
 20
-52.50000000000002
 30
0.0
  0
VERTEX
  8
0
 10
77.30000000000001
 20
-52.50000000000002
 30
0.0
  0
VERTEX
  8
0
 10
77.30000000000001
 20
-50.50000000000002
 30
0.0
  0
VERTEX
  8
0
 10
68.80000000000001
 20
-50.50000000000002
 30
0.0
  0
SEQEND
  0
CIRCLE
  8
0
 10
76.30000000000001
 20
-51.50000000000002
 30
0.0
 40
0.5
  0
TEXT
  8
0
 10
69.30000000000001
 20
-52.00000000000002
 30
0.0
 40
1.0
  1
FIN-966
  0
POLYLINE
 62
256
  8
0
 66
1
 10
0.0
 20
0.0
 30
0.0
 70
9
  0
VERTEX
  8
0
 10
77.4
 20
-52.50000000000002
 30
0.0
  0
VERTEX
  8
0
 10
85.9
 20
-52.50000000000002
 30
0.0
  0
VERTEX
  8
0
 10
85.9
 20
-50.50000000000002
 30
0.0
  0
VERTEX
  8
0
 10
77.4
 20
-50.50000000000002
 30
0.0
  0
SEQEND
  0
CIRCLE
  8
0
 10
84.9
 20
-51.50000000000002
 30
0.0
 40
0.5
  0
TEXT
  8
0
 10
77.9
 20
-52.00000000000002
 30
0.0
 40
1.0
  1
FIN-967
  0
POLYLINE
 62
256
  8
0
 66
1
 10
0.0
 20
0.0
 30
0.0
 70
9
  0
VERTEX
  8
0
 10
86.0
 20
-52.50000000000002
 30
0.0
  0
VERTEX
  8
0
 10
94.5
 20
-52.50000000000002
 30
0.0
  0
VERTEX
  8
0
 10
94.5
 20
-50.50000000000002
 30
0.0
  0
VERTEX
  8
0
 10
86.0
 20
-50.50000000000002
 30
0.0
  0
SEQEND
  0
CIRCLE
  8
0
 10
93.5
 20
-51.50000000000002
 30
0.0
 40
0.5
  0
TEXT
  8
0
 10
86.5
 20
-52.00000000000002
 30
0.0
 40
1.0
  1
FIN-968
  0
POLYLINE
 62
256
  8
0
 66
1
 10
0.0
 20
0.0
 30
0.0
 70
9
  0
VERTEX
  8
0
 10
0.0
 20
-54.60000000000002
 30
0.0
  0
VERTEX
  8
0
 10
8.5
 20
-54.60000000000002
 30
0.0
  0
VERTEX
  8
0
 10
8.5
 20
-52.60000000000002
 30
0.0
  0
VERTEX
  8
0
 10
0.0
 20
-52.60000000000002
 30
0.0
  0
SEQEND
  0
CIRCLE
  8
0
 10
7.5
 20
-53.60000000000002
 30
0.0
 40
0.5
  0
TEXT
  8
0
 10
0.5
 20
-54.10000000000002
 30
0.0
 40
1.0
  1
FIN-969
  0
POLYLINE
 62
256
  8
0
 66
1
 10
0.0
 20
0.0
 30
0.0
 70
9
  0
VERTEX
  8
0
 10
8.6
 20
-54.60000000000002
 30
0.0
  0
VERTEX
  8
0
 10
17.1
 20
-54.60000000000002
 30
0.0
  0
VERTEX
  8
0
 10
17.1
 20
-52.60000000000002
 30
0.0
  0
VERTEX
  8
0
 10
8.6
 20
-52.60000000000002
 30
0.0
  0
SEQEND
  0
CIRCLE
  8
0
 10
16.1
 20
-53.60000000000002
 30
0.0
 40
0.5
  0
TEXT
  8
0
 10
9.1
 20
-54.10000000000002
 30
0.0
 40
1.0
  1
FIN-97
  0
POLYLINE
 62
256
  8
0
 66
1
 10
0.0
 20
0.0
 30
0.0
 70
9
  0
VERTEX
  8
0
 10
17.200000000000003
 20
-54.60000000000002
 30
0.0
  0
VERTEX
  8
0
 10
25.700000000000003
 20
-54.60000000000002
 30
0.0
  0
VERTEX
  8
0
 10
25.700000000000003
 20
-52.60000000000002
 30
0.0
  0
VERTEX
  8
0
 10
17.200000000000003
 20
-52.60000000000002
 30
0.0
  0
SEQEND
  0
CIRCLE
  8
0
 10
24.700000000000003
 20
-53.60000000000002
 30
0.0
 40
0.5
  0
TEXT
  8
0
 10
17.700000000000003
 20
-54.10000000000002
 30
0.0
 40
1.0
  1
FIN-970
  0
POLYLINE
 62
256
  8
0
 66
1
 10
0.0
 20
0.0
 30
0.0
 70
9
  0
VERTEX
  8
0
 10
25.800000000000004
 20
-54.60000000000002
 30
0.0
  0
VERTEX
  8
0
 10
34.300000000000004
 20
-54.60000000000002
 30
0.0
  0
VERTEX
  8
0
 10
34.300000000000004
 20
-52.60000000000002
 30
0.0
  0
VERTEX
  8
0
 10
25.800000000000004
 20
-52.60000000000002
 30
0.0
  0
SEQEND
  0
CIRCLE
  8
0
 10
33.300000000000004
 20
-53.60000000000002
 30
0.0
 40
0.5
  0
TEXT
  8
0
 10
26.300000000000004
 20
-54.10000000000002
 30
0.0
 40
1.0
  1
FIN-971
  0
POLYLINE
 62
256
  8
0
 66
1
 10
0.0
 20
0.0
 30
0.0
 70
9
  0
VERTEX
  8
0
 10
34.400000000000006
 20
-54.60000000000002
 30
0.0
  0
VERTEX
  8
0
 10
42.900000000000006
 20
-54.60000000000002
 30
0.0
  0
VERTEX
  8
0
 10
42.900000000000006
 20
-52.60000000000002
 30
0.0
  0
VERTEX
  8
0
 10
34.400000000000006
 20
-52.60000000000002
 30
0.0
  0
SEQEND
  0
CIRCLE
  8
0
 10
41.900000000000006
 20
-53.60000000000002
 30
0.0
 40
0.5
  0
TEXT
  8
0
 10
34.900000000000006
 20
-54.10000000000002
 30
0.0
 40
1.0
  1
FIN-972
  0
POLYLINE
 62
256
  8
0
 66
1
 10
0.0
 20
0.0
 30
0.0
 70
9
  0
VERTEX
  8
0
 10
43.00000000000001
 20
-54.60000000000002
 30
0.0
  0
VERTEX
  8
0
 10
51.50000000000001
 20
-54.60000000000002
 30
0.0
  0
VERTEX
  8
0
 10
51.50000000000001
 20
-52.60000000000002
 30
0.0
  0
VERTEX
  8
0
 10
43.00000000000001
 20
-52.60000000000002
 30
0.0
  0
SEQEND
  0
CIRCLE
  8
0
 10
50.50000000000001
 20
-53.60000000000002
 30
0.0
 40
0.5
  0
TEXT
  8
0
 10
43.50000000000001
 20
-54.10000000000002
 30
0.0
 40
1.0
  1
FIN-973
  0
POLYLINE
 62
256
  8
0
 66
1
 10
0.0
 20
0.0
 30
0.0
 70
9
  0
VERTEX
  8
0
 10
51.60000000000001
 20
-54.60000000000002
 30
0.0
  0
VERTEX
  8
0
 10
60.10000000000001
 20
-54.60000000000002
 30
0.0
  0
VERTEX
  8
0
 10
60.10000000000001
 20
-52.60000000000002
 30
0.0
  0
VERTEX
  8
0
 10
51.60000000000001
 20
-52.60000000000002
 30
0.0
  0
SEQEND
  0
CIRCLE
  8
0
 10
59.10000000000001
 20
-53.60000000000002
 30
0.0
 40
0.5
  0
TEXT
  8
0
 10
52.10000000000001
 20
-54.10000000000002
 30
0.0
 40
1.0
  1
FIN-974
  0
POLYLINE
 62
256
  8
0
 66
1
 10
0.0
 20
0.0
 30
0.0
 70
9
  0
VERTEX
  8
0
 10
60.20000000000001
 20
-54.60000000000002
 30
0.0
  0
VERTEX
  8
0
 10
68.70000000000002
 20
-54.60000000000002
 30
0.0
  0
VERTEX
  8
0
 10
68.70000000000002
 20
-52.60000000000002
 30
0.0
  0
VERTEX
  8
0
 10
60.20000000000001
 20
-52.60000000000002
 30
0.0
  0
SEQEND
  0
CIRCLE
  8
0
 10
67.70000000000002
 20
-53.60000000000002
 30
0.0
 40
0.5
  0
TEXT
  8
0
 10
60.70000000000001
 20
-54.10000000000002
 30
0.0
 40
1.0
  1
FIN-975
  0
POLYLINE
 62
256
  8
0
 66
1
 10
0.0
 20
0.0
 30
0.0
 70
9
  0
VERTEX
  8
0
 10
68.80000000000001
 20
-54.60000000000002
 30
0.0
  0
VERTEX
  8
0
 10
77.30000000000001
 20
-54.60000000000002
 30
0.0
  0
VERTEX
  8
0
 10
77.30000000000001
 20
-52.60000000000002
 30
0.0
  0
VERTEX
  8
0
 10
68.80000000000001
 20
-52.60000000000002
 30
0.0
  0
SEQEND
  0
CIRCLE
  8
0
 10
76.30000000000001
 20
-53.60000000000002
 30
0.0
 40
0.5
  0
TEXT
  8
0
 10
69.30000000000001
 20
-54.10000000000002
 30
0.0
 40
1.0
  1
FIN-976
  0
POLYLINE
 62
256
  8
0
 66
1
 10
0.0
 20
0.0
 30
0.0
 70
9
  0
VERTEX
  8
0
 10
77.4
 20
-54.60000000000002
 30
0.0
  0
VERTEX
  8
0
 10
85.9
 20
-54.60000000000002
 30
0.0
  0
VERTEX
  8
0
 10
85.9
 20
-52.60000000000002
 30
0.0
  0
VERTEX
  8
0
 10
77.4
 20
-52.60000000000002
 30
0.0
  0
SEQEND
  0
CIRCLE
  8
0
 10
84.9
 20
-53.60000000000002
 30
0.0
 40
0.5
  0
TEXT
  8
0
 10
77.9
 20
-54.10000000000002
 30
0.0
 40
1.0
  1
FIN-977
  0
POLYLINE
 62
256
  8
0
 66
1
 10
0.0
 20
0.0
 30
0.0
 70
9
  0
VERTEX
  8
0
 10
86.0
 20
-54.60000000000002
 30
0.0
  0
VERTEX
  8
0
 10
94.5
 20
-54.60000000000002
 30
0.0
  0
VERTEX
  8
0
 10
94.5
 20
-52.60000000000002
 30
0.0
  0
VERTEX
  8
0
 10
86.0
 20
-52.60000000000002
 30
0.0
  0
SEQEND
  0
CIRCLE
  8
0
 10
93.5
 20
-53.60000000000002
 30
0.0
 40
0.5
  0
TEXT
  8
0
 10
86.5
 20
-54.10000000000002
 30
0.0
 40
1.0
  1
FIN-978
  0
POLYLINE
 62
256
  8
0
 66
1
 10
0.0
 20
0.0
 30
0.0
 70
9
  0
VERTEX
  8
0
 10
0.0
 20
-56.700000000000024
 30
0.0
  0
VERTEX
  8
0
 10
8.5
 20
-56.700000000000024
 30
0.0
  0
VERTEX
  8
0
 10
8.5
 20
-54.700000000000024
 30
0.0
  0
VERTEX
  8
0
 10
0.0
 20
-54.700000000000024
 30
0.0
  0
SEQEND
  0
CIRCLE
  8
0
 10
7.5
 20
-55.700000000000024
 30
0.0
 40
0.5
  0
TEXT
  8
0
 10
0.5
 20
-56.200000000000024
 30
0.0
 40
1.0
  1
FIN-979
  0
POLYLINE
 62
256
  8
0
 66
1
 10
0.0
 20
0.0
 30
0.0
 70
9
  0
VERTEX
  8
0
 10
8.6
 20
-56.700000000000024
 30
0.0
  0
VERTEX
  8
0
 10
17.1
 20
-56.700000000000024
 30
0.0
  0
VERTEX
  8
0
 10
17.1
 20
-54.700000000000024
 30
0.0
  0
VERTEX
  8
0
 10
8.6
 20
-54.700000000000024
 30
0.0
  0
SEQEND
  0
CIRCLE
  8
0
 10
16.1
 20
-55.700000000000024
 30
0.0
 40
0.5
  0
TEXT
  8
0
 10
9.1
 20
-56.200000000000024
 30
0.0
 40
1.0
  1
FIN-98
  0
POLYLINE
 62
256
  8
0
 66
1
 10
0.0
 20
0.0
 30
0.0
 70
9
  0
VERTEX
  8
0
 10
17.200000000000003
 20
-56.700000000000024
 30
0.0
  0
VERTEX
  8
0
 10
25.700000000000003
 20
-56.700000000000024
 30
0.0
  0
VERTEX
  8
0
 10
25.700000000000003
 20
-54.700000000000024
 30
0.0
  0
VERTEX
  8
0
 10
17.200000000000003
 20
-54.700000000000024
 30
0.0
  0
SEQEND
  0
CIRCLE
  8
0
 10
24.700000000000003
 20
-55.700000000000024
 30
0.0
 40
0.5
  0
TEXT
  8
0
 10
17.700000000000003
 20
-56.200000000000024
 30
0.0
 40
1.0
  1
FIN-980
  0
POLYLINE
 62
256
  8
0
 66
1
 10
0.0
 20
0.0
 30
0.0
 70
9
  0
VERTEX
  8
0
 10
25.800000000000004
 20
-56.700000000000024
 30
0.0
  0
VERTEX
  8
0
 10
34.300000000000004
 20
-56.700000000000024
 30
0.0
  0
VERTEX
  8
0
 10
34.300000000000004
 20
-54.700000000000024
 30
0.0
  0
VERTEX
  8
0
 10
25.800000000000004
 20
-54.700000000000024
 30
0.0
  0
SEQEND
  0
CIRCLE
  8
0
 10
33.300000000000004
 20
-55.700000000000024
 30
0.0
 40
0.5
  0
TEXT
  8
0
 10
26.300000000000004
 20
-56.200000000000024
 30
0.0
 40
1.0
  1
FIN-981
  0
POLYLINE
 62
256
  8
0
 66
1
 10
0.0
 20
0.0
 30
0.0
 70
9
  0
VERTEX
  8
0
 10
34.400000000000006
 20
-56.700000000000024
 30
0.0
  0
VERTEX
  8
0
 10
42.900000000000006
 20
-56.700000000000024
 30
0.0
  0
VERTEX
  8
0
 10
42.900000000000006
 20
-54.700000000000024
 30
0.0
  0
VERTEX
  8
0
 10
34.400000000000006
 20
-54.700000000000024
 30
0.0
  0
SEQEND
  0
CIRCLE
  8
0
 10
41.900000000000006
 20
-55.700000000000024
 30
0.0
 40
0.5
  0
TEXT
  8
0
 10
34.900000000000006
 20
-56.200000000000024
 30
0.0
 40
1.0
  1
FIN-982
  0
POLYLINE
 62
256
  8
0
 66
1
 10
0.0
 20
0.0
 30
0.0
 70
9
  0
VERTEX
  8
0
 10
43.00000000000001
 20
-56.700000000000024
 30
0.0
  0
VERTEX
  8
0
 10
51.50000000000001
 20
-56.700000000000024
 30
0.0
  0
VERTEX
  8
0
 10
51.50000000000001
 20
-54.700000000000024
 30
0.0
  0
VERTEX
  8
0
 10
43.00000000000001
 20
-54.700000000000024
 30
0.0
  0
SEQEND
  0
CIRCLE
  8
0
 10
50.50000000000001
 20
-55.700000000000024
 30
0.0
 40
0.5
  0
TEXT
  8
0
 10
43.50000000000001
 20
-56.200000000000024
 30
0.0
 40
1.0
  1
FIN-983
  0
POLYLINE
 62
256
  8
0
 66
1
 10
0.0
 20
0.0
 30
0.0
 70
9
  0
VERTEX
  8
0
 10
51.60000000000001
 20
-56.700000000000024
 30
0.0
  0
VERTEX
  8
0
 10
60.10000000000001
 20
-56.700000000000024
 30
0.0
  0
VERTEX
  8
0
 10
60.10000000000001
 20
-54.700000000000024
 30
0.0
  0
VERTEX
  8
0
 10
51.60000000000001
 20
-54.700000000000024
 30
0.0
  0
SEQEND
  0
CIRCLE
  8
0
 10
59.10000000000001
 20
-55.700000000000024
 30
0.0
 40
0.5
  0
TEXT
  8
0
 10
52.10000000000001
 20
-56.200000000000024
 30
0.0
 40
1.0
  1
FIN-984
  0
POLYLINE
 62
256
  8
0
 66
1
 10
0.0
 20
0.0
 30
0.0
 70
9
  0
VERTEX
  8
0
 10
60.20000000000001
 20
-56.700000000000024
 30
0.0
  0
VERTEX
  8
0
 10
68.70000000000002
 20
-56.700000000000024
 30
0.0
  0
VERTEX
  8
0
 10
68.70000000000002
 20
-54.700000000000024
 30
0.0
  0
VERTEX
  8
0
 10
60.20000000000001
 20
-54.700000000000024
 30
0.0
  0
SEQEND
  0
CIRCLE
  8
0
 10
67.70000000000002
 20
-55.700000000000024
 30
0.0
 40
0.5
  0
TEXT
  8
0
 10
60.70000000000001
 20
-56.200000000000024
 30
0.0
 40
1.0
  1
FIN-985
  0
POLYLINE
 62
256
  8
0
 66
1
 10
0.0
 20
0.0
 30
0.0
 70
9
  0
VERTEX
  8
0
 10
68.80000000000001
 20
-56.700000000000024
 30
0.0
  0
VERTEX
  8
0
 10
77.30000000000001
 20
-56.700000000000024
 30
0.0
  0
VERTEX
  8
0
 10
77.30000000000001
 20
-54.700000000000024
 30
0.0
  0
VERTEX
  8
0
 10
68.80000000000001
 20
-54.700000000000024
 30
0.0
  0
SEQEND
  0
CIRCLE
  8
0
 10
76.30000000000001
 20
-55.700000000000024
 30
0.0
 40
0.5
  0
TEXT
  8
0
 10
69.30000000000001
 20
-56.200000000000024
 30
0.0
 40
1.0
  1
FIN-986
  0
POLYLINE
 62
256
  8
0
 66
1
 10
0.0
 20
0.0
 30
0.0
 70
9
  0
VERTEX
  8
0
 10
77.4
 20
-56.700000000000024
 30
0.0
  0
VERTEX
  8
0
 10
85.9
 20
-56.700000000000024
 30
0.0
  0
VERTEX
  8
0
 10
85.9
 20
-54.700000000000024
 30
0.0
  0
VERTEX
  8
0
 10
77.4
 20
-54.700000000000024
 30
0.0
  0
SEQEND
  0
CIRCLE
  8
0
 10
84.9
 20
-55.700000000000024
 30
0.0
 40
0.5
  0
TEXT
  8
0
 10
77.9
 20
-56.200000000000024
 30
0.0
 40
1.0
  1
FIN-987
  0
POLYLINE
 62
256
  8
0
 66
1
 10
0.0
 20
0.0
 30
0.0
 70
9
  0
VERTEX
  8
0
 10
86.0
 20
-56.700000000000024
 30
0.0
  0
VERTEX
  8
0
 10
94.5
 20
-56.700000000000024
 30
0.0
  0
VERTEX
  8
0
 10
94.5
 20
-54.700000000000024
 30
0.0
  0
VERTEX
  8
0
 10
86.0
 20
-54.700000000000024
 30
0.0
  0
SEQEND
  0
CIRCLE
  8
0
 10
93.5
 20
-55.700000000000024
 30
0.0
 40
0.5
  0
TEXT
  8
0
 10
86.5
 20
-56.200000000000024
 30
0.0
 40
1.0
  1
FIN-988
  0
POLYLINE
 62
256
  8
0
 66
1
 10
0.0
 20
0.0
 30
0.0
 70
9
  0
VERTEX
  8
0
 10
0.0
 20
-58.800000000000026
 30
0.0
  0
VERTEX
  8
0
 10
8.5
 20
-58.800000000000026
 30
0.0
  0
VERTEX
  8
0
 10
8.5
 20
-56.800000000000026
 30
0.0
  0
VERTEX
  8
0
 10
0.0
 20
-56.800000000000026
 30
0.0
  0
SEQEND
  0
CIRCLE
  8
0
 10
7.5
 20
-57.800000000000026
 30
0.0
 40
0.5
  0
TEXT
  8
0
 10
0.5
 20
-58.300000000000026
 30
0.0
 40
1.0
  1
FIN-989
  0
POLYLINE
 62
256
  8
0
 66
1
 10
0.0
 20
0.0
 30
0.0
 70
9
  0
VERTEX
  8
0
 10
8.6
 20
-58.800000000000026
 30
0.0
  0
VERTEX
  8
0
 10
17.1
 20
-58.800000000000026
 30
0.0
  0
VERTEX
  8
0
 10
17.1
 20
-56.800000000000026
 30
0.0
  0
VERTEX
  8
0
 10
8.6
 20
-56.800000000000026
 30
0.0
  0
SEQEND
  0
CIRCLE
  8
0
 10
16.1
 20
-57.800000000000026
 30
0.0
 40
0.5
  0
TEXT
  8
0
 10
9.1
 20
-58.300000000000026
 30
0.0
 40
1.0
  1
FIN-99
  0
POLYLINE
 62
256
  8
0
 66
1
 10
0.0
 20
0.0
 30
0.0
 70
9
  0
VERTEX
  8
0
 10
17.200000000000003
 20
-58.800000000000026
 30
0.0
  0
VERTEX
  8
0
 10
25.700000000000003
 20
-58.800000000000026
 30
0.0
  0
VERTEX
  8
0
 10
25.700000000000003
 20
-56.800000000000026
 30
0.0
  0
VERTEX
  8
0
 10
17.200000000000003
 20
-56.800000000000026
 30
0.0
  0
SEQEND
  0
CIRCLE
  8
0
 10
24.700000000000003
 20
-57.800000000000026
 30
0.0
 40
0.5
  0
TEXT
  8
0
 10
17.700000000000003
 20
-58.300000000000026
 30
0.0
 40
1.0
  1
FIN-990
  0
POLYLINE
 62
256
  8
0
 66
1
 10
0.0
 20
0.0
 30
0.0
 70
9
  0
VERTEX
  8
0
 10
25.800000000000004
 20
-58.800000000000026
 30
0.0
  0
VERTEX
  8
0
 10
34.300000000000004
 20
-58.800000000000026
 30
0.0
  0
VERTEX
  8
0
 10
34.300000000000004
 20
-56.800000000000026
 30
0.0
  0
VERTEX
  8
0
 10
25.800000000000004
 20
-56.800000000000026
 30
0.0
  0
SEQEND
  0
CIRCLE
  8
0
 10
33.300000000000004
 20
-57.800000000000026
 30
0.0
 40
0.5
  0
TEXT
  8
0
 10
26.300000000000004
 20
-58.300000000000026
 30
0.0
 40
1.0
  1
FIN-991
  0
POLYLINE
 62
256
  8
0
 66
1
 10
0.0
 20
0.0
 30
0.0
 70
9
  0
VERTEX
  8
0
 10
34.400000000000006
 20
-58.800000000000026
 30
0.0
  0
VERTEX
  8
0
 10
42.900000000000006
 20
-58.800000000000026
 30
0.0
  0
VERTEX
  8
0
 10
42.900000000000006
 20
-56.800000000000026
 30
0.0
  0
VERTEX
  8
0
 10
34.400000000000006
 20
-56.800000000000026
 30
0.0
  0
SEQEND
  0
CIRCLE
  8
0
 10
41.900000000000006
 20
-57.800000000000026
 30
0.0
 40
0.5
  0
TEXT
  8
0
 10
34.900000000000006
 20
-58.300000000000026
 30
0.0
 40
1.0
  1
FIN-992
  0
POLYLINE
 62
256
  8
0
 66
1
 10
0.0
 20
0.0
 30
0.0
 70
9
  0
VERTEX
  8
0
 10
43.00000000000001
 20
-58.800000000000026
 30
0.0
  0
VERTEX
  8
0
 10
51.50000000000001
 20
-58.800000000000026
 30
0.0
  0
VERTEX
  8
0
 10
51.50000000000001
 20
-56.800000000000026
 30
0.0
  0
VERTEX
  8
0
 10
43.00000000000001
 20
-56.800000000000026
 30
0.0
  0
SEQEND
  0
CIRCLE
  8
0
 10
50.50000000000001
 20
-57.800000000000026
 30
0.0
 40
0.5
  0
TEXT
  8
0
 10
43.50000000000001
 20
-58.300000000000026
 30
0.0
 40
1.0
  1
FIN-993
  0
POLYLINE
 62
256
  8
0
 66
1
 10
0.0
 20
0.0
 30
0.0
 70
9
  0
VERTEX
  8
0
 10
51.60000000000001
 20
-58.800000000000026
 30
0.0
  0
VERTEX
  8
0
 10
60.10000000000001
 20
-58.800000000000026
 30
0.0
  0
VERTEX
  8
0
 10
60.10000000000001
 20
-56.800000000000026
 30
0.0
  0
VERTEX
  8
0
 10
51.60000000000001
 20
-56.800000000000026
 30
0.0
  0
SEQEND
  0
CIRCLE
  8
0
 10
59.10000000000001
 20
-57.800000000000026
 30
0.0
 40
0.5
  0
TEXT
  8
0
 10
52.10000000000001
 20
-58.300000000000026
 30
0.0
 40
1.0
  1
FIN-994
  0
POLYLINE
 62
256
  8
0
 66
1
 10
0.0
 20
0.0
 30
0.0
 70
9
  0
VERTEX
  8
0
 10
60.20000000000001
 20
-58.800000000000026
 30
0.0
  0
VERTEX
  8
0
 10
68.70000000000002
 20
-58.800000000000026
 30
0.0
  0
VERTEX
  8
0
 10
68.70000000000002
 20
-56.800000000000026
 30
0.0
  0
VERTEX
  8
0
 10
60.20000000000001
 20
-56.800000000000026
 30
0.0
  0
SEQEND
  0
CIRCLE
  8
0
 10
67.70000000000002
 20
-57.800000000000026
 30
0.0
 40
0.5
  0
TEXT
  8
0
 10
60.70000000000001
 20
-58.300000000000026
 30
0.0
 40
1.0
  1
FIN-995
  0
POLYLINE
 62
256
  8
0
 66
1
 10
0.0
 20
0.0
 30
0.0
 70
9
  0
VERTEX
  8
0
 10
68.80000000000001
 20
-58.800000000000026
 30
0.0
  0
VERTEX
  8
0
 10
77.30000000000001
 20
-58.800000000000026
 30
0.0
  0
VERTEX
  8
0
 10
77.30000000000001
 20
-56.800000000000026
 30
0.0
  0
VERTEX
  8
0
 10
68.80000000000001
 20
-56.800000000000026
 30
0.0
  0
SEQEND
  0
CIRCLE
  8
0
 10
76.30000000000001
 20
-57.800000000000026
 30
0.0
 40
0.5
  0
TEXT
  8
0
 10
69.30000000000001
 20
-58.300000000000026
 30
0.0
 40
1.0
  1
FIN-996
  0
POLYLINE
 62
256
  8
0
 66
1
 10
0.0
 20
0.0
 30
0.0
 70
9
  0
VERTEX
  8
0
 10
77.4
 20
-58.800000000000026
 30
0.0
  0
VERTEX
  8
0
 10
85.9
 20
-58.800000000000026
 30
0.0
  0
VERTEX
  8
0
 10
85.9
 20
-56.800000000000026
 30
0.0
  0
VERTEX
  8
0
 10
77.4
 20
-56.800000000000026
 30
0.0
  0
SEQEND
  0
CIRCLE
  8
0
 10
84.9
 20
-57.800000000000026
 30
0.0
 40
0.5
  0
TEXT
  8
0
 10
77.9
 20
-58.300000000000026
 30
0.0
 40
1.0
  1
FIN-997
  0
POLYLINE
 62
256
  8
0
 66
1
 10
0.0
 20
0.0
 30
0.0
 70
9
  0
VERTEX
  8
0
 10
86.0
 20
-58.800000000000026
 30
0.0
  0
VERTEX
  8
0
 10
94.5
 20
-58.800000000000026
 30
0.0
  0
VERTEX
  8
0
 10
94.5
 20
-56.800000000000026
 30
0.0
  0
VERTEX
  8
0
 10
86.0
 20
-56.800000000000026
 30
0.0
  0
SEQEND
  0
CIRCLE
  8
0
 10
93.5
 20
-57.800000000000026
 30
0.0
 40
0.5
  0
TEXT
  8
0
 10
86.5
 20
-58.300000000000026
 30
0.0
 40
1.0
  1
FIN-998
  0
POLYLINE
 62
256
  8
0
 66
1
 10
0.0
 20
0.0
 30
0.0
 70
9
  0
VERTEX
  8
0
 10
0.0
 20
-60.90000000000003
 30
0.0
  0
VERTEX
  8
0
 10
8.5
 20
-60.90000000000003
 30
0.0
  0
VERTEX
  8
0
 10
8.5
 20
-58.90000000000003
 30
0.0
  0
VERTEX
  8
0
 10
0.0
 20
-58.90000000000003
 30
0.0
  0
SEQEND
  0
CIRCLE
  8
0
 10
7.5
 20
-59.90000000000003
 30
0.0
 40
0.5
  0
TEXT
  8
0
 10
0.5
 20
-60.40000000000003
 30
0.0
 40
1.0
  1
FIN-999
  0
ENDSEC
  0
EOF
